<svg width="78" height="79" viewBox="0 0 78 79" fill="none" xmlns="http://www.w3.org/2000/svg">
<path d="M78 39.5C78 17.6864 60.5375 0 39 0C17.4625 0 0 17.6864 0 39.5C0 59.2139 14.2596 75.556 32.9068 78.5223V50.9206H23.0018V39.5H32.9068V30.7957C32.9068 20.8971 38.7313 15.4256 47.638 15.4256C51.9049 15.4256 56.3693 16.1977 56.3693 16.1977V25.9186H51.4497C46.6069 25.9186 45.0932 28.9626 45.0932 32.0899V39.5H55.9086L54.181 50.9206H45.0932V78.5223C63.7404 75.5616 78 59.2195 78 39.5Z" fill="#7DA77D"/>
<path d="M54.1811 50.9208L55.9087 39.5002H45.0934V32.0901C45.0934 28.9683 46.6016 25.9187 51.4499 25.9187H56.3694V16.1979C56.3694 16.1979 51.9051 15.4258 47.6381 15.4258C38.7314 15.4258 32.9069 20.8917 32.9069 30.7958V39.5002H23.002V50.9208H32.9069V78.5225C34.8923 78.8391 36.927 79.0002 39.0001 79.0002C41.0732 79.0002 43.108 78.8335 45.0934 78.5225V50.9208H54.1811Z" fill="#FEFEFE"/>
</svg>
