<svg width="72" height="73" viewBox="0 0 72 73" fill="none" xmlns="http://www.w3.org/2000/svg">
<path d="M17.8255 0.0228806C17.8142 0.0342865 17.398 0.0913239 16.903 0.142647C13.1792 0.54187 9.94486 1.8707 7.05923 4.18616C6.35048 4.75648 4.96673 6.13093 4.37048 6.86093C2.87423 8.68593 1.70423 10.8303 0.99548 13.0317C0.539855 14.4518 0.32048 15.4841 0.12923 17.138C0.0336053 17.9421 0.0279803 19.1169 0.0279803 36.4716C0.0279803 56.6777 0.0111053 55.4173 0.337355 57.345C1.73236 65.4834 8.44861 71.8994 16.5036 72.8005C16.9367 72.8461 17.4992 72.9145 17.7467 72.943C18.3599 73.0229 53.6399 73.0229 54.253 72.943C54.5005 72.9145 55.063 72.8461 55.4961 72.8005C62.9999 71.9621 69.418 66.3046 71.3249 58.8392C71.5836 57.8127 71.7411 56.9629 71.8255 56.0618C71.8649 55.7025 71.9155 55.2177 71.9436 54.9896C72.0224 54.4193 72.0167 18.6094 71.9436 17.9934C71.9155 17.7425 71.848 17.1722 71.803 16.733C71.443 13.3967 70.1042 10.1003 68.0061 7.3457C67.4155 6.57007 66.1555 5.22984 65.4524 4.62531C62.8199 2.36117 59.6811 0.861244 56.4186 0.319443C54.6299 0.0171814 55.8392 0.0342865 36.1067 0.0171814C26.0661 0.00577545 17.8424 0.0114746 17.8255 0.0228806ZM54.9392 6.30202C58.0217 6.71265 60.8736 8.2639 62.8761 10.6364C64.4117 12.4557 65.368 14.5316 65.7955 16.9954C65.8911 17.5714 65.8967 18.3869 65.8967 36.5286V55.463L65.7674 56.193C65.2836 58.902 64.1024 61.2231 62.2405 63.1052C60.4011 64.9758 58.168 66.1506 55.4624 66.681L54.8155 66.8065L36.4217 66.8293C22.9049 66.8407 17.8649 66.8293 17.4092 66.7837C12.0936 66.2248 7.67798 62.2839 6.45173 57.0028C6.11423 55.5542 6.13111 56.7348 6.13111 36.5286C6.13111 20.2405 6.14236 17.9478 6.21548 17.3547C6.89611 12.0679 10.7155 7.77343 15.8342 6.54156C17.1955 6.21078 16.0761 6.22788 35.9549 6.22218C52.1099 6.21648 54.3542 6.22788 54.9392 6.30202Z" fill="#7DA77D"/>
<path d="M54.8998 12.3246C53.4373 12.7067 52.2786 13.9044 51.9411 15.3758C51.8173 15.9233 51.8286 16.8016 51.9692 17.3548C52.2955 18.638 53.2798 19.7387 54.5005 20.1892C56.0305 20.7538 57.6223 20.3945 58.7811 19.2197C59.5967 18.3984 59.9623 17.4973 59.9623 16.3225C59.9623 15.353 59.7036 14.5545 59.1467 13.8074C58.1848 12.5242 56.4467 11.914 54.8998 12.3246Z" fill="#7DA77D"/>
<path d="M34.8185 18.4613C30.0091 18.8263 25.6216 21.0563 22.5054 24.7234C18.7366 29.1604 17.3135 35.1544 18.6804 40.8347C19.2822 43.3384 20.4466 45.7451 22.0497 47.7925C22.6516 48.5624 24.1591 50.0966 24.9185 50.7011C27.4779 52.7599 30.4479 54.0374 33.6991 54.4937C34.6216 54.6249 36.4891 54.6648 37.4679 54.5849C42.5191 54.1515 46.9797 51.7049 50.1522 47.6214C52.2391 44.9352 53.5385 41.5419 53.8366 37.9888C53.9154 36.9965 53.876 35.1031 53.7466 34.1677C53.2966 30.8713 52.0366 27.8601 50.006 25.2652C49.4097 24.4952 47.8966 22.9611 47.1429 22.3623C43.9029 19.7673 39.9485 18.3815 35.8929 18.4328C35.4429 18.4385 34.9591 18.4499 34.8185 18.4613ZM37.7885 23.982C41.5122 24.5295 44.8422 26.7708 46.7491 30.0273C47.9472 32.0633 48.5097 34.1221 48.5097 36.5003C48.5154 37.9489 48.3916 38.8215 48.0035 40.1617C46.7322 44.5702 42.9804 48.0491 38.531 48.9559C37.2316 49.2183 35.4541 49.2696 34.256 49.0814C30.0429 48.4199 26.5835 45.8306 24.7554 41.9753C23.9172 40.2016 23.546 38.5306 23.546 36.5288C23.546 34.4871 23.9229 32.8218 24.806 30.9968C26.0435 28.419 28.0291 26.4058 30.5716 25.1511C32.0341 24.4268 33.5416 24.0105 35.1841 23.8736C35.7016 23.8337 37.1754 23.8907 37.7885 23.982Z" fill="#7DA77D"/>
</svg>
