<svg width="333" height="366" viewBox="0 0 333 366" fill="none" xmlns="http://www.w3.org/2000/svg">
<path d="M-1.27974 173.87C-0.692244 173.419 -0.256329 172.829 -0.0300232 172.178C0.196282 171.528 0.202241 170.847 -0.0129583 170.228C-0.10661 169.941 -0.253267 169.675 -0.447075 169.438C-0.509637 169.3 -0.584131 169.167 -0.669948 169.041C-1.08638 168.547 -1.68158 168.202 -2.36663 168.057C-3.05167 167.913 -3.7898 167.976 -4.47077 168.239C-5.12126 168.473 -5.70081 168.862 -6.14268 169.363C-6.58455 169.863 -6.87078 170.453 -6.96838 171.066C-7.0761 171.691 -6.99575 172.316 -6.73586 172.874C-6.52673 173.31 -6.20642 173.69 -5.79876 173.984C-5.39111 174.279 -4.90661 174.481 -4.38135 174.575C-3.8561 174.669 -3.30361 174.653 -2.76501 174.528C-2.22642 174.403 -1.71561 174.173 -1.27059 173.854L-1.27974 173.87Z" fill="#94AE94"/>
<path d="M7.81379 165.667L7.79848 165.624L7.82343 165.554C7.92271 165.241 7.95522 164.918 7.91916 164.605C7.87897 164.187 7.7364 163.789 7.50147 163.441C7.28744 163.141 6.99517 162.896 6.64719 162.724C6.29922 162.552 5.90486 162.459 5.49462 162.45C5.02568 162.436 4.55005 162.511 4.09863 162.671C3.75658 162.789 3.43775 162.965 3.16 163.188C2.79005 163.472 2.49053 163.824 2.28455 164.215C2.10457 164.609 2.02461 165.028 2.05088 165.438C2.1056 166.2 2.49429 166.886 3.133 167.347C3.48785 167.6 3.90961 167.771 4.36585 167.846C4.86445 167.924 5.38857 167.879 5.88502 167.717C6.38025 167.569 6.82806 167.295 7.1715 166.93C7.51495 166.565 7.73852 166.125 7.81379 165.667Z" fill="#94AE94"/>
<path d="M102.986 188.973C102.608 189.039 102.224 189.085 101.852 189.183L101.817 189.196C98.8417 188.513 96.7735 186.191 95.8991 183.616C94.7497 180.233 95.5036 176.351 96.6204 172.85C97.5892 169.832 99.3055 166.436 102.573 164.803C105.546 163.298 109.063 163.506 110.601 166.198C112.339 169.194 111.03 172.912 109.821 176.087C108.591 179.339 107.153 182.54 105.514 185.671C104.944 186.751 104.312 187.815 103.656 188.882C103.461 188.899 103.228 188.935 102.986 188.973Z" fill="#94AE94"/>
<path d="M52.1843 207.975C53.4603 209.307 54.655 210.703 55.7636 212.157C57.1288 213.961 58.4714 215.94 58.8079 218.205C59.0629 219.921 58.7164 221.849 57.4158 223.314C56.1152 224.779 54.1878 225.309 52.3041 225.206C48.2959 224.986 45.0583 222.594 42.8829 219.833C40.607 216.881 39.3516 213.341 39.2583 209.612C39.2035 207.743 39.4474 205.852 39.9826 203.998C40.4218 202.605 40.9985 201.241 41.7053 199.921C41.7836 199.832 41.8678 199.745 41.9475 199.659C42.5007 200.012 43.0526 200.361 43.5923 200.732C46.7315 202.873 49.6086 205.298 52.1843 207.975Z" fill="#94AE94"/>
<path d="M197.542 215.705C199.498 212.766 198.874 209.295 196.978 206.767C194.925 204.028 191.461 202.514 188.136 201.26C187.92 201.176 187.69 201.109 187.471 201.03C189.173 201.146 190.888 201.196 192.611 201.16C194.334 201.123 196.043 201.118 197.674 200.545C200.35 199.611 201.88 196.982 200.354 194.842C198.769 192.622 195.496 192.646 192.762 193.265C188.94 194.107 184.998 195.833 182.093 198.408C181.982 198.505 181.897 198.624 181.848 198.754C181.799 198.883 181.786 199.019 181.812 199.148C181.756 199.137 181.7 199.128 181.642 199.122C180.319 198.721 179 198.319 177.664 197.98C177.532 197.904 177.379 197.86 177.217 197.852C173.316 196.84 169.339 195.996 165.335 195.284C160.893 194.498 156.41 193.866 151.895 193.35C148.148 192.923 144.337 192.426 140.517 192.243C140.783 192.2 141.047 192.154 141.314 192.115C142.06 192.04 142.805 191.947 143.547 191.878C147.323 191.533 151.093 191.23 154.868 191.053C162.545 190.697 170.194 190.807 177.764 191.382C182.013 191.7 186.245 192.067 190.442 192.631C190.828 192.685 190.922 192.152 190.552 192.084C179.716 190.156 168.6 189.217 157.368 189.28C164.709 187.811 172.01 186.121 179.269 184.209C183.392 183.114 187.559 181.986 191.689 180.757C195.639 180.979 199.541 181.463 203.364 182.204C204.367 182.4 205.384 182.617 206.401 182.865C205.694 184.279 205.861 186.071 206.154 187.458C206.522 189.209 207.297 190.84 208.43 192.249C210.485 194.786 214.944 197.449 218.82 196.027C223.252 194.396 221.835 189.498 219.673 187.223C216.796 184.198 212.294 182.798 208.072 181.704C203.816 180.583 199.385 179.926 194.869 179.747C197.705 178.855 200.531 177.92 203.298 176.878C205.258 176.139 207.209 175.383 209.153 174.61C210.471 174.088 209.715 172.442 208.407 172.868C201.136 175.216 193.86 177.482 186.545 179.583C189.69 178.152 192.804 176.666 195.86 175.07C198.011 173.948 200.125 172.764 202.215 171.541C205.364 170.095 208.404 168.443 211.636 167.156C213.459 169.851 216.326 171.807 219.744 172.689C223.191 173.553 228.082 173.548 231.057 171.031C231.772 170.467 232.318 169.752 232.638 168.961C232.958 168.171 233.04 167.335 232.874 166.544C232.436 164.836 230.795 163.705 228.994 163.244C224.816 162.174 219.74 163.187 215.541 164.489C214.578 164.786 213.612 165.142 212.646 165.497C212.531 165.439 212.401 165.406 212.265 165.4C212.129 165.394 211.991 165.415 211.86 165.462C211.73 165.509 211.61 165.581 211.509 165.672C211.408 165.763 211.329 165.871 211.277 165.989C210.912 166.12 210.56 166.299 210.198 166.451C211.892 165.274 213.488 163.98 214.967 162.584C217.204 160.428 219.125 157.729 219.534 154.842C219.884 152.379 219.298 149.739 217.553 147.927C216.67 146.978 215.485 146.295 214.134 145.957C212.783 145.62 211.32 145.64 209.912 146.017C206.838 146.832 204.207 148.98 202.43 151.383C198.351 156.892 197.385 164.826 200.353 170.449C198.571 171.496 196.767 172.511 194.919 173.486C191.378 175.362 187.759 177.107 184.121 178.812C181.543 180.018 178.941 181.158 176.394 182.365C171.069 183.761 165.715 185.048 160.32 186.18C147.829 188.787 135.241 190.743 122.623 192.035C123.383 191.846 124.143 191.669 124.9 191.472C132.293 189.562 139.634 187.408 146.873 184.94C151.032 183.526 155.169 182.04 159.284 180.484C159.728 180.324 159.472 179.751 159.034 179.9C144.481 184.883 129.65 188.988 114.648 192.185C113.152 192.507 111.663 192.818 110.167 193.11C108.952 193.191 107.736 193.267 106.521 193.338C110.647 192.811 114.79 191.757 118.784 190.651C123.872 189.25 128.889 187.583 133.808 185.66C143.568 181.831 152.898 177.03 161.611 171.353C162.017 171.088 162.39 170.828 162.778 170.566C164.293 169.712 165.852 168.929 167.446 168.22C168.505 169.343 169.747 170.314 171.136 171.102C172.838 172.179 174.763 172.962 176.824 173.416C180.619 174.203 185.515 173.68 188.69 171.034C190.054 169.9 190.939 168.326 190.506 166.744C190.045 165.04 188.396 163.955 186.569 163.548C184.532 163.088 182.241 163.276 180.11 163.489C177.755 163.727 175.412 164.164 173.111 164.794C171.823 165.147 170.53 165.559 169.251 166.022C170.973 164.738 172.674 163.423 174.352 162.059C178.042 159.031 182.232 155.535 182.715 150.913C183.106 147.166 180.748 144.037 176.631 143.515C173.087 143.062 169.14 144.453 166.177 146.458C157.99 151.989 154.556 162.271 156.978 170.415C157.021 170.609 157.135 170.779 157.302 170.9C157.47 171.02 157.682 171.084 157.905 171.081C150.39 175.843 142.43 179.958 134.143 183.364C129.111 185.43 123.974 187.237 118.757 188.774C115.928 189.602 113.071 190.295 110.213 191.001C111.923 190.285 113.625 189.547 115.32 188.787C121.684 185.897 127.888 182.69 133.901 179.182C134.266 178.968 133.938 178.434 133.555 178.624C127.291 181.722 120.891 184.554 114.424 187.244C111.221 188.572 107.996 189.839 104.749 191.046C103.793 191.389 102.811 191.741 101.807 192.062C100.675 192.276 99.5449 192.498 98.4113 192.695C103.054 191.099 107.402 188.766 111.236 185.814C115.539 182.478 119.262 178.572 122.256 174.253C125.024 171.775 128.038 169.393 131.348 167.64C132.603 169.649 134.645 171.133 137.117 171.832C139.588 172.53 142.331 172.398 144.863 171.46C146.535 170.86 148.47 169.836 149.467 168.406C151.887 164.941 146.195 163.57 143.587 163.364C139.693 163.055 135.565 164.055 131.963 165.734C129.394 166.963 126.997 168.493 124.838 170.279C125.564 169.073 126.267 167.857 126.91 166.629C128.801 163.016 130.413 159.308 131.733 155.533C133.004 151.889 133.637 147.81 131.202 144.717C128.991 141.913 124.825 141.491 121.212 142.959C117.394 144.514 114.942 147.859 113.584 151.262C111.838 155.61 110.873 160.483 112.133 164.802C113.218 168.51 116.329 171.526 120.586 172.274C120.664 172.28 120.742 172.278 120.82 172.269C118.128 176.385 114.777 180.155 110.887 183.444C104.29 188.929 96.1083 192.598 87.4697 193.458C87.344 193.472 87.2242 193.526 87.1318 193.61C87.0395 193.693 86.9807 193.802 86.9662 193.915C78.7574 193.96 70.5743 193.754 62.4432 193.233C46.6398 192.222 31.0409 190.159 15.7718 187.063C27.594 187.961 39.5884 187.79 51.579 186.552C55.9742 186.117 60.5822 185.631 64.8609 184.41C65.3668 184.268 65.0994 183.677 64.6797 183.696C60.7324 183.883 56.7609 184.534 52.8234 184.958C48.8859 185.383 44.9633 185.723 41.0271 185.941C37.2543 186.153 33.4913 186.239 29.7317 186.236C30.6075 186.132 31.4792 186.016 32.3467 185.888C38.9148 184.897 45.3724 183.071 51.5215 180.466C52.7172 180.036 53.913 179.607 55.0776 179.189C57.6292 178.343 60.2045 177.563 62.7987 176.933C64.5533 176.509 66.3266 176.179 68.1047 175.904C70.0374 179.258 73.172 181.87 77.0484 183.357C80.6815 184.741 87.1638 185.981 90.0589 182.123C93.524 177.503 86.2495 175.216 82.7182 174.466C78.3623 173.606 73.7907 173.521 69.2495 174.215C69.0542 174.127 68.8282 174.099 68.6025 174.133C68.3768 174.168 68.1626 174.264 67.9894 174.409C67.8049 174.44 67.6221 174.462 67.4375 174.493C64.9289 174.944 62.4404 175.533 59.9868 176.258C66.1527 172.787 72.717 167.953 72.5763 161.327C72.501 158.001 70.1028 155.346 66.7589 154.279C65.1349 153.762 63.3638 153.609 61.5905 153.835C59.8173 154.061 58.0923 154.658 56.5566 155.578C52.9436 157.703 50.5091 161.405 49.7198 165.077C48.7479 169.554 50.0136 174.016 52.1696 177.812C52.1703 177.822 52.1737 177.831 52.1793 177.839C46.0816 180.662 39.6279 182.684 33.031 183.839C25.8033 185.12 18.6686 185.152 11.5824 184.535C9.66983 184.044 7.57992 183.884 5.62917 183.608C3.17563 183.246 0.74287 182.801 -1.67295 182.32C-3.94815 181.868 -6.20228 181.32 -8.42033 180.733L-8.33808 180.738C-5.43689 180.967 -2.50549 181.021 0.437181 180.902C6.29452 180.681 12.4302 179.936 18.1303 178.187C20.7072 177.398 23.2529 176.116 24.7864 173.972C26.1259 172.112 26.5308 169.843 25.4026 168.029C22.7548 163.757 16.0673 165.089 11.9109 167.462C9.63487 168.779 7.67233 170.515 6.1674 172.542C4.66248 174.569 3.65333 176.835 3.21406 179.173C2.2401 179.256 1.26612 179.339 0.279626 179.386C-2.58137 179.527 -5.43436 179.515 -8.26434 179.35C-11.1629 179.174 -13.9828 178.672 -16.8786 178.503C-16.95 178.509 -17.0196 178.534 -17.0787 178.575C-21.7369 177.136 -26.3628 175.629 -30.9565 174.053C-32.8233 173.41 -34.6834 172.749 -36.5367 172.068C-37.2069 171.823 -37.6659 172.767 -37.0301 173.042C-30.7644 175.748 -24.3426 178.162 -17.8074 180.347C-10.1441 183.436 -3.74002 188.418 0.72242 194.764C0.823953 194.907 0.910493 195.065 1.00898 195.213C-2.26564 198.783 -3.30553 203.714 -1.94167 207.834C-1.3039 209.75 -0.129436 211.75 1.89044 212.679C2.35478 212.907 2.87424 213.042 3.41698 213.076C3.95971 213.111 4.51427 213.044 5.04663 212.881C5.57897 212.717 6.07792 212.46 6.51283 212.124C6.94773 211.789 7.30944 211.383 7.57577 210.931C8.92255 208.784 8.17854 206.377 7.54118 204.294C6.87036 202.099 5.98423 199.977 4.89266 197.951C2.69566 193.855 -0.269523 190.172 -3.88405 187.05C-5.70475 185.481 -7.68595 184.069 -9.80578 182.828C-3.88751 184.608 2.10598 186.234 8.18905 187.649C9.24023 187.893 10.3055 188.093 11.3628 188.326C18.7871 191.469 25.1124 196.234 29.812 202.226L30.617 203.294C28.8313 203.316 27.0478 203.826 25.5022 204.758C22.5925 206.437 20.5826 209.225 19.7188 212.145C18.855 215.064 19.3054 218.387 21.5151 220.544C23.5026 222.488 26.6446 223.65 29.7723 222.899C32.9709 222.136 35.4127 219.67 36.4764 216.902C37.7675 213.51 37.023 210.038 35.5443 207.01C35.1769 206.266 34.774 205.535 34.3444 204.814C34.3071 204.603 34.1888 204.417 34.0094 204.286C31.2236 199.886 27.5791 196.012 23.2331 192.833C21.8314 191.79 20.3575 190.826 18.8186 189.944C22.7451 190.714 26.691 191.422 30.6563 192.068C42.7199 194.807 54.5711 198.366 64.7835 204.405C62.5739 207.322 61.7388 211.146 61.5939 214.446C61.4272 218.231 62.3266 221.91 64.2087 225.139C66.1071 228.358 68.9735 231.212 72.7747 232.645C76.576 234.078 81.7684 233.934 84.5856 230.291C87.7276 226.226 86.1023 221.503 83.652 218.005C81.2478 214.619 78.3865 211.532 75.1261 208.808C68.8362 203.449 61.2217 199.433 53.1844 196.391C52.5056 196.135 51.8037 195.928 51.1202 195.687C60.2315 197.661 68.9866 200.551 77.2282 204.306C78.8012 205.026 80.3516 205.775 81.8793 206.554C82.5374 206.892 83.1993 207.254 83.872 207.59C83.478 208.123 83.2088 208.716 83.0827 209.329C82.9566 209.943 82.9765 210.562 83.141 211.145C83.3103 211.8 83.6657 212.391 84.1739 212.863C84.6821 213.335 85.3266 213.673 86.0473 213.844C86.7272 213.996 87.4541 213.987 88.16 213.817C88.8658 213.647 89.5278 213.322 90.0841 212.872C90.7402 212.348 91.1986 211.654 91.3846 210.904C91.5203 210.259 91.4603 209.608 91.2109 209.022C90.5009 208.101 89.7021 207.242 88.8228 206.452C88.1868 206.09 87.4262 205.922 86.6423 205.969C85.8846 206.035 85.153 206.335 84.5732 206.817C84.5337 206.857 84.4965 206.898 84.4618 206.941C82.6886 205.887 80.6983 205.026 78.8666 204.173C76.1069 202.879 73.2863 201.685 70.4048 200.592C64.7604 198.444 58.9117 196.687 52.9057 195.335C51.3712 194.988 49.8239 194.69 48.2691 194.399C50.876 194.672 53.4504 194.951 56.0703 195.162C63.7992 195.807 71.5706 196.198 79.3844 196.335C90.0771 197.911 100.727 199.871 110.291 204.063C110.182 204.206 110.104 204.365 110.062 204.53C109.211 208.013 109.28 211.557 110.264 214.867C111.249 218.177 113.12 221.159 115.722 223.564C118.155 225.755 121.581 227.458 125.351 226.622C128.782 225.863 131.252 223.281 131.248 220.126C131.242 217.117 129.241 214.451 127.138 212.409C124.651 210.004 121.865 207.865 118.825 206.029C113.144 202.661 106.887 200.082 100.242 198.368C103.751 198.763 107.252 199.218 110.704 199.804C119.303 201.258 127.722 203.276 135.895 205.841C139.404 206.95 142.852 208.181 146.271 209.471C145.886 209.834 145.587 210.262 145.397 210.726C145.111 211.481 145.023 212.272 145.142 213.033C145.26 213.793 145.582 214.502 146.079 215.099C146.541 215.687 147.143 216.169 147.848 216.516C148.552 216.863 149.343 217.065 150.168 217.111C150.345 217.114 150.524 217.08 150.696 217.071C150.872 217.066 151.048 217.052 151.223 217.03C151.324 217.016 151.431 217.021 151.534 217.002C152.034 216.949 152.529 216.829 153.002 216.646C153.675 216.386 154.292 216.005 154.813 215.529C155.334 215.054 155.747 214.493 156.025 213.884C156.218 213.407 156.308 212.909 156.292 212.418C156.359 211.862 156.33 211.309 156.204 210.777C156.14 210.59 156.06 210.41 155.965 210.236C155.854 209.715 155.634 209.225 155.316 208.793C154.831 208.207 154.189 207.744 153.442 207.443C152.694 207.142 151.863 207.01 151.015 207.058C150.29 207.096 149.568 207.272 148.898 207.574C148.228 207.877 147.625 208.299 147.129 208.812C132.263 202.583 116.316 198.344 99.7519 196.219C99.479 196.186 99.1986 196.16 98.9243 196.123C100.019 196.084 101.12 196.048 102.217 196C102.267 196.012 102.296 196.05 102.356 196.051C103.077 196.051 103.802 196 104.524 195.898C104.795 195.884 105.063 195.875 105.334 195.861C116.012 195.282 126.681 194.224 137.34 192.688C137.317 192.748 137.308 192.811 137.313 192.872C137.318 192.934 137.337 192.992 137.37 193.044C137.402 193.097 137.447 193.141 137.501 193.175C137.555 193.209 137.618 193.232 137.685 193.243C141.154 193.976 144.777 194.282 148.327 194.75C151.877 195.217 155.446 195.696 158.998 196.251C164.673 197.088 170.267 198.206 175.756 199.598C175.404 201.077 175.499 202.628 175.518 204.105C175.523 206.068 175.751 208.007 176.196 209.894C176.887 213.006 178.617 215.78 181.164 217.86C183.549 219.722 186.781 220.689 190.106 220.139C193.043 219.667 195.945 218.104 197.542 215.705Z" fill="#94AE94"/>
<path d="M233.197 156.906C234.968 155.929 237.163 154.576 236.981 152.505C236.97 152.404 236.914 152.319 236.907 152.216C237.118 151.592 237.133 150.942 236.953 150.34C236.773 149.739 236.403 149.21 235.886 148.814C235.144 148.246 234.198 147.923 233.187 147.892C232.501 147.876 231.807 147.977 231.141 148.188C229.654 148.555 228.263 149.249 227.097 150.205C226.681 150.443 226.291 150.719 225.932 151.026C225.136 151.72 224.576 152.6 224.327 153.546C224.056 154.283 224.017 155.056 224.215 155.775C224.346 156.262 224.61 156.702 224.982 157.059C225.355 157.416 225.826 157.679 226.356 157.826L226.425 157.836C226.509 157.876 226.588 157.926 226.675 157.961C228.8 158.888 231.204 158.024 233.197 156.906Z" fill="#94AE94"/>
<path d="M239.766 162.651C240.318 162.223 240.779 161.707 241.123 161.135C241.211 160.967 241.262 160.787 241.274 160.607C241.286 160.427 241.259 160.25 241.193 160.085C241.06 159.757 240.787 159.498 240.431 159.361C240.308 159.327 240.182 159.299 240.055 159.277C239.871 158.783 239.531 158.358 239.074 158.052C238.616 157.745 238.061 157.569 237.47 157.543C236.764 157.518 236.048 157.698 235.427 158.058C234.776 158.454 234.27 159.021 233.986 159.672C233.702 160.323 233.657 161.021 233.857 161.66C234.057 162.298 234.492 162.841 235.093 163.205C235.695 163.569 236.431 163.733 237.187 163.673C237.566 163.633 237.939 163.527 238.285 163.362C238.822 163.223 239.327 162.98 239.766 162.651Z" fill="#94AE94"/>
<path d="M144.924 219.459C145.056 218.953 145.031 218.437 144.851 217.968C144.671 217.5 144.344 217.097 143.907 216.807C143.824 216.758 143.719 216.731 143.628 216.689C143.385 216.368 143.057 216.109 142.67 215.934C142.214 215.76 141.709 215.691 141.197 215.732C140.722 215.756 140.25 215.873 139.813 216.073C139.376 216.273 138.983 216.552 138.663 216.891C137.289 218.334 137.738 220.66 139.336 221.561C139.811 221.837 140.36 222.006 140.94 222.056C141.52 222.105 142.117 222.034 142.685 221.847C143.244 221.646 143.746 221.319 144.14 220.899C144.533 220.479 144.804 219.982 144.924 219.459Z" fill="#94AE94"/>
<path d="M154.485 226.366C154.81 226.076 155.093 225.75 155.327 225.399C155.795 224.661 156.005 223.829 155.928 223.02C155.829 222.098 155.354 221.27 154.591 220.694C153.867 220.162 152.954 219.866 151.983 219.847C151.012 219.828 150.032 220.089 149.184 220.591C148.38 221.093 147.736 221.784 147.332 222.579C146.927 223.373 146.779 224.237 146.906 225.064C147.047 225.887 147.466 226.631 148.108 227.198C148.751 227.764 149.586 228.127 150.505 228.238C151.266 228.297 152.049 228.152 152.757 227.819C153.465 227.486 154.066 226.981 154.485 226.366Z" fill="#94AE94"/>
<path d="M88.89 158.153C88.6592 157.523 88.2568 156.965 87.7173 156.529C87.1778 156.092 86.517 155.789 85.7915 155.645C85.4081 155.579 85.0092 155.574 84.6121 155.631C84.5122 155.626 84.4115 155.626 84.3106 155.63C83.7422 155.469 83.1244 155.448 82.5173 155.569C81.9056 155.692 81.3229 155.943 80.8182 156.302C80.7293 156.333 80.6448 156.364 80.5687 156.417C79.1079 157.226 78.3609 158.738 78.2847 160.175C78.2866 160.21 78.2908 160.245 78.2973 160.28C78.1948 160.714 78.1503 161.154 78.1648 161.588C78.1755 162.373 78.4211 163.121 78.8761 163.757C79.3311 164.392 79.9786 164.89 80.7511 165.2C81.4003 165.407 82.1006 165.493 82.8109 165.45C83.5212 165.408 84.2273 165.239 84.8879 164.953C87.6963 163.774 89.837 160.777 88.89 158.153Z" fill="#94AE94"/>
<path d="M84.1398 170.208C84.6111 169.64 84.8387 168.949 84.7761 168.277C84.6887 167.615 84.3325 167.025 83.7742 166.618C83.5043 166.419 83.1869 166.275 82.8417 166.196C82.4966 166.117 82.1308 166.103 81.7669 166.157C81.3474 166.229 80.9437 166.386 80.5867 166.616C80.422 166.732 80.2682 166.86 80.1274 167C80.0514 167.065 79.9832 167.138 79.9244 167.217C79.6753 167.527 79.4978 167.876 79.4035 168.24C79.3529 168.439 79.3374 168.641 79.3576 168.839C79.3645 168.858 79.339 168.885 79.334 168.913C79.3043 169.096 79.2996 169.28 79.3199 169.461C79.3462 169.646 79.3958 169.827 79.4679 169.999C79.6298 170.338 79.8764 170.633 80.1902 170.864C80.417 171.035 80.6822 171.161 80.9711 171.236C81.3602 171.354 81.7837 171.382 82.205 171.319C82.5833 171.256 82.95 171.125 83.2827 170.934C83.6153 170.743 83.907 170.496 84.1398 170.208Z" fill="#94AE94"/>
<path d="M90.6515 167.616C90.8699 167.464 91.0445 167.265 91.1574 167.041L91.285 166.697C91.3372 166.455 91.3167 166.209 91.2258 165.987C91.17 165.814 91.06 165.663 90.9081 165.55C90.7049 165.369 90.4433 165.248 90.154 165.203C89.8648 165.157 89.5598 165.188 89.2747 165.291L88.9089 165.488C88.6889 165.64 88.5123 165.838 88.3972 166.062L88.274 166.404C88.2225 166.648 88.2418 166.895 88.3301 167.119C88.3906 167.291 88.5017 167.441 88.6522 167.555C88.7709 167.683 88.9278 167.778 89.1071 167.829C89.2824 167.9 89.4788 167.927 89.6777 167.909C89.8813 167.919 90.0888 167.881 90.2801 167.798L90.6515 167.616Z" fill="#94AE94"/>
<path d="M40.4564 228.812C41.2749 228.003 41.7357 226.964 41.7404 225.917C41.7542 225.388 41.6421 224.872 41.4117 224.403C41.1812 223.935 40.8376 223.525 40.4039 223.201C39.9782 222.886 39.48 222.654 38.9377 222.52C38.3954 222.387 37.8198 222.353 37.2436 222.422C36.6675 222.49 36.1022 222.66 35.5801 222.92C35.0579 223.181 34.5892 223.527 34.2007 223.94C32.6463 225.662 32.7269 228.291 34.6505 229.47C34.7865 229.545 34.928 229.613 35.0744 229.672C35.1954 229.739 35.3208 229.799 35.4503 229.852L35.5292 229.876C35.9934 230.052 36.4993 230.141 37.0184 230.139C37.6426 230.146 38.2728 230.031 38.8662 229.802C39.4595 229.573 40.0019 229.235 40.4564 228.812Z" fill="#94AE94"/>
<path d="M48.1921 231.197C48.3324 231.041 48.4484 230.869 48.5364 230.688C48.7527 230.458 48.9266 230.2 49.0505 229.925C49.255 229.463 49.3404 228.974 49.3001 228.496C49.2594 228.021 49.0782 227.576 48.7748 227.205C48.4715 226.834 48.0569 226.551 47.5733 226.384C47.142 226.243 46.6745 226.188 46.2011 226.223C45.7277 226.258 45.2591 226.382 44.8259 226.587C44.3472 226.806 43.9252 227.123 43.5966 227.51C43.2667 227.91 43.0488 228.371 42.9634 228.849C42.8851 229.335 42.9229 229.822 43.0743 230.276C43.1342 230.443 43.2117 230.602 43.3058 230.753C43.3963 230.919 43.506 231.075 43.6332 231.218C43.9594 231.577 44.3851 231.851 44.8733 232.016C45.3755 232.176 45.9275 232.208 46.4732 232.111C47.1323 231.994 47.7427 231.669 48.1921 231.197Z" fill="#94AE94"/>
<path d="M40.388 235.96C40.4239 235.938 40.457 235.913 40.4866 235.885C40.6098 235.789 40.7251 235.684 40.8313 235.573C40.8784 235.513 40.9214 235.451 40.9601 235.386C40.9887 235.354 41.0026 235.323 41.0267 235.293L41.0692 235.229C41.1738 235.084 41.2562 234.927 41.314 234.765C41.3502 234.675 41.3777 234.583 41.396 234.49C41.4188 234.353 41.4299 234.216 41.4293 234.08C41.4247 233.925 41.3987 233.772 41.3518 233.626C41.3324 233.551 41.3063 233.479 41.2738 233.409C41.2083 233.265 41.1315 233.126 41.0439 232.992C40.9228 232.823 40.7755 232.671 40.6059 232.541C40.4388 232.403 40.242 232.295 40.0254 232.224C39.8217 232.146 39.6019 232.101 39.3751 232.09C39.0226 232.073 38.6634 232.128 38.3244 232.253C38.1527 232.322 37.9879 232.406 37.8325 232.504C37.681 232.607 37.5414 232.725 37.4164 232.854C37.2419 233.029 37.1009 233.228 37 233.442C36.8877 233.654 36.8121 233.877 36.7763 234.104C36.7349 234.33 36.7303 234.558 36.7626 234.779C36.8135 235.108 36.9431 235.416 37.1428 235.684C37.2464 235.809 37.366 235.922 37.4994 236.02C37.6362 236.121 37.7876 236.205 37.9503 236.27C38.0129 236.296 38.0778 236.318 38.1446 236.336C38.3262 236.389 38.5162 236.42 38.7104 236.431C38.8996 236.44 39.0913 236.43 39.2818 236.401C39.4324 236.373 39.5818 236.328 39.7416 236.284C39.7816 236.269 39.8216 236.255 39.8616 236.241C40.0477 236.166 40.2246 236.072 40.388 235.96Z" fill="#94AE94"/>
</svg>
