<svg width="549" height="464" viewBox="0 0 549 464" fill="none" xmlns="http://www.w3.org/2000/svg">
<path d="M512.94 369.312C510.987 367.751 508.906 366.357 506.719 365.145C504.262 363.68 501.751 362.299 499.186 361.003C490.068 356.404 480.439 352.896 470.499 350.55C478.143 350.937 485.787 351.063 493.433 350.93C497.505 350.852 501.545 350.565 505.596 350.161C507.107 350.033 506.998 347.468 505.446 347.466C493.03 347.451 480.692 347.532 468.337 346.929C481.376 343.155 493.409 336.52 503.558 327.506C506.456 324.959 509.388 321.406 508.157 317.23C507.073 313.646 503.258 312.77 499.947 313.334C495.924 314.02 491.938 316.037 488.342 317.895C484.463 319.902 480.77 322.252 477.309 324.916C473.526 327.856 470.013 331.129 466.813 334.694C465.214 336.458 463.704 338.302 462.29 340.218C460.8 342.037 459.557 344.045 458.593 346.189C457.666 346.114 456.752 346.074 455.817 345.993C446.064 345.097 436.355 343.737 426.707 342.025C438.857 339.948 450.334 335 460.185 327.592C462.925 325.563 466.78 323.05 467.105 319.326C467.455 315.297 463.328 313.109 459.807 313.283C457.732 313.481 455.686 313.919 453.711 314.588C451.726 315.174 449.747 315.852 447.807 316.595C435.268 321.379 424.247 329.446 415.897 339.952C412.559 339.254 409.225 338.534 405.901 337.734C399.494 336.188 393.132 334.464 386.814 332.561C390.949 332.284 395.043 331.577 399.032 330.453C406.412 328.427 413.344 325.031 419.468 320.441C422.409 318.224 426.054 315.607 427.664 312.197C429.078 309.201 428.353 305.249 424.952 304.082C421.551 302.914 417.194 304.844 413.937 306.108C400.783 311.117 389.105 319.362 379.982 330.081C379.898 330.167 379.826 330.265 379.769 330.37C365.782 325.855 352.094 320.466 338.783 314.235C344.111 314.02 349.39 313.135 354.497 311.6C362.255 309.357 369.549 305.745 376.036 300.935C379.255 298.526 383.063 295.706 383.469 291.382C383.826 287.445 380.772 284.931 377.139 284.55C373.046 284.102 368.742 285.488 364.94 286.733C351.873 291.132 340.498 299.486 332.39 310.637C332.329 310.586 332.264 310.538 332.197 310.495C329.742 309.111 327.156 307.973 324.476 307.097C320.61 305.073 316.78 302.964 312.989 300.771C304.734 296.014 296.686 290.942 288.847 285.556C295.549 286.171 302.304 285.838 308.913 284.566C317.443 283.063 325.695 280.272 333.387 276.29C336.843 274.503 342.063 271.842 339.959 267.097C338.113 262.963 333.026 262.615 329.092 262.372C320.362 261.883 311.628 263.254 303.467 266.393C295.306 269.533 287.905 274.37 281.753 280.583C269.343 271.7 257.416 262.129 245.885 252.105C263.595 254.883 282.635 255.807 298.998 247.711C301.799 246.323 306.37 244.053 306.164 240.273C305.919 235.754 299.058 235.738 295.816 235.384C282.259 233.935 268.563 236.196 256.192 241.926C253.932 242.968 251.739 244.121 249.59 245.382C247.442 246.643 245.065 247.71 243.47 249.652C243.41 249.716 243.358 249.786 243.315 249.861C236.637 243.99 230.083 237.977 223.653 231.825C215.309 223.866 207.149 215.708 199.078 207.479C208.924 212.072 219.924 214.596 230.616 215.836C242.885 217.321 255.307 216.951 267.465 214.739C272.23 213.856 280.272 211.563 278.583 205.01C277.267 199.888 270.547 198.148 266.186 196.833C255.094 193.56 243.501 192.324 231.969 193.185C225.469 193.637 219.03 194.735 212.748 196.463C206.593 198.227 200.612 200.549 194.88 203.4C181.344 189.423 168.082 175.177 154.776 160.973C161.781 164.49 169.224 167.056 176.908 168.603C186.205 170.641 195.73 171.442 205.236 170.987C207.565 170.909 209.888 170.707 212.195 170.381C214.185 170.059 216.384 169.37 217.538 167.587C218.006 166.806 218.253 165.912 218.25 165.001C218.247 164.09 217.996 163.197 217.523 162.419C216.406 160.414 214.311 159.378 212.233 158.64C202.577 155.09 192.502 152.803 182.259 151.835C171.736 150.89 161.139 152.438 151.326 156.352C151.138 156.423 150.969 156.536 150.832 156.683C148.541 154.247 146.256 151.803 143.951 149.369C136.069 141.069 128.156 132.744 120.131 124.537C123.414 125.629 126.757 126.555 130.092 127.425C135.075 128.723 140.093 129.878 145.146 130.889C150.199 131.9 155.203 132.754 160.156 133.452C164.511 134.217 168.921 134.627 173.343 134.68C177.796 134.573 182.243 133.481 185.484 130.267C185.61 130.131 185.703 129.967 185.756 129.79C185.809 129.612 185.82 129.424 185.79 129.241C185.76 129.058 185.688 128.885 185.58 128.734C185.473 128.583 185.332 128.458 185.169 128.369C169.102 120.196 151.001 116.881 133.079 118.829C128.046 119.4 123.065 120.362 118.181 121.706C117.977 121.757 117.789 121.857 117.631 121.997C113.669 117.979 109.679 114 105.661 110.058C110.532 110.918 115.967 110.205 120.65 109.349C126.398 108.26 131.927 106.23 137.014 103.34C138.838 102.3 141.154 100.542 140.339 98.1259C139.524 95.7102 136.418 95.4565 134.301 95.3611C128.692 95.138 123.093 96.0191 117.823 97.9543C114.837 99.0353 111.977 100.438 109.293 102.137C106.984 103.678 104.784 105.377 102.709 107.221C89.5707 94.4576 76.0176 82.1215 61.7491 70.6369C58.1088 67.7107 54.4308 64.8355 50.7152 62.0112C50.1036 61.56 49.4891 62.5108 50.0667 62.9743C63.085 73.4246 75.5542 84.5012 87.6863 95.9504C87.4361 96.146 87.2737 96.4329 87.2346 96.748C85.9199 99.6655 84.9945 102.743 84.4822 105.902C83.7253 109.608 83.2381 113.365 83.0243 117.142C82.5207 124.808 83.2139 132.505 85.0791 139.958C85.9477 143.346 87.8814 146.872 91.7986 147.004C93.4107 146.976 94.9812 146.488 96.3243 145.596C97.6674 144.704 98.7269 143.446 99.3774 141.97C101.014 138.505 100.934 134.42 100.832 130.616C100.694 126.889 100.252 123.18 99.5094 119.525C98.1214 112.732 95.6593 106.204 92.2157 100.187C95.3492 103.183 98.4472 106.226 101.539 109.278C101.686 109.547 101.911 109.765 102.184 109.903C107.498 115.166 112.757 120.479 117.962 125.844C115.471 130.904 114.236 136.84 113.29 142.281C112.781 145.5 112.461 148.745 112.332 152.001C112.213 154.858 111.93 158.054 112.586 160.887C113.14 163.185 115.17 165.403 117.738 164.887C120.306 164.371 121.685 161.524 122.731 159.4C125.072 154.547 126.222 149.205 126.087 143.819C125.99 139.719 125.166 135.669 123.653 131.858C127.224 135.586 130.785 139.332 134.337 143.096L136.181 145.078C131.49 152.329 129.559 160.958 128.331 169.41C127.69 173.833 127.247 178.291 126.852 182.734C126.512 186.647 126.422 190.98 128.675 194.394C130.63 197.353 134.073 199.408 137.668 198.544C141.263 197.68 143.575 194.091 144.864 190.829C147.52 183.865 148.468 176.365 147.628 168.959C146.981 162.921 145.195 157.061 142.363 151.69C152.86 162.964 163.295 174.304 173.819 185.574C173.79 185.614 173.772 185.639 173.742 185.679C170.209 193.163 169.107 201.932 168.581 210.106C168.299 214.396 168.269 218.699 168.322 222.988C168.369 226.9 168.517 230.961 170.313 234.523C171.77 237.4 174.647 239.933 177.939 240.324C181.23 240.714 184.384 238.629 186.059 235.752C188.118 232.238 188.038 228.016 187.792 224.106C187.521 220.092 187.007 216.097 186.252 212.146C184.759 204.775 182.271 197.642 178.856 190.943C189.997 202.792 201.175 214.457 212.73 225.878C212.631 225.964 212.551 226.071 212.499 226.192C209.338 235.529 208.092 245.757 207.733 255.558C207.509 260.408 207.623 265.268 208.075 270.102C208.536 274.531 209.455 279.062 211.879 282.851C214.057 286.198 217.515 288.973 221.637 289.181C226.061 289.4 229.156 286.03 230.486 282.139C231.923 277.918 231.66 273.188 231.363 268.806C231.075 264.336 230.413 259.898 229.383 255.539C228.201 250.666 226.576 245.911 224.53 241.332C223.476 238.989 222.319 236.682 221.046 234.45L220.514 233.486C226.721 239.457 233.037 245.31 239.461 251.044C239.508 251.086 239.559 251.123 239.613 251.156C248.616 259.166 257.845 266.87 267.341 274.212C266.911 278.381 267.11 282.591 267.931 286.702C268.64 290.921 269.744 295.064 271.228 299.076C272.722 303.126 274.568 307.038 276.746 310.765C278.945 314.78 281.811 318.39 285.222 321.443C288.449 324.16 292.598 326.252 296.896 325.832C300.664 325.492 304.068 323.22 304.661 319.283C305.254 315.346 303.269 311.283 301.528 307.849C299.458 303.864 296.96 300.116 294.078 296.673C291.17 293.188 288.028 289.906 284.673 286.85C290.418 290.854 296.192 294.666 302.121 298.32C306.936 301.293 311.818 304.137 316.766 306.852C317.508 311.772 318.844 316.584 320.745 321.183C322.69 326.147 325.139 330.898 328.054 335.362C334.21 344.929 342.724 352.752 352.777 358.077C356.85 360.187 361.72 362.563 366.44 361.944C367.457 361.846 368.44 361.527 369.32 361.009C370.201 360.49 370.957 359.786 371.536 358.944C372.084 357.995 372.425 356.94 372.535 355.85C372.645 354.76 372.523 353.658 372.177 352.619C371.419 350.271 370.367 348.03 369.046 345.947C367.668 343.571 366.185 341.263 364.598 339.024C361.431 334.562 357.879 330.387 353.984 326.544C352.766 325.348 351.505 324.194 350.226 323.064C360.017 327.193 370.014 330.841 380.142 334.076C385.04 342.512 391.868 349.898 399.147 356.337C402.822 359.588 406.693 362.61 410.738 365.387C414.752 368.316 419.034 370.859 423.526 372.983C427.102 374.553 431.868 375.05 434.731 371.793C437.209 368.973 436.259 365.191 434.377 362.335C432.031 358.778 428.495 355.771 425.259 352.999C421.591 349.861 417.687 347.01 413.582 344.47C412.193 343.607 410.777 342.798 409.343 342.013C411.469 342.5 413.589 342.996 415.738 343.451C415.807 343.475 415.879 343.491 415.953 343.497C423.876 345.155 431.865 346.539 439.904 347.636C447.822 356.846 457.886 364.395 468.263 370.61C473.58 373.807 479.109 376.641 484.81 379.091C489.885 381.257 495.166 383.414 500.656 384.209C505.438 384.903 511.899 384.837 515.32 380.824C518.741 376.811 516.317 372.214 512.94 369.312ZM115.344 101.096C119.798 99.0002 124.589 97.7132 129.494 97.2948C131.833 97.1065 134.575 96.843 136.84 97.4453C138.465 97.8865 139.254 99.2264 137.932 100.513C137.013 101.313 135.979 101.97 134.865 102.463C130.379 104.844 125.575 106.569 120.599 107.583C117.85 108.149 115.06 108.489 112.256 108.598C109.679 108.722 107.079 108.507 104.484 108.555C107.614 105.422 111.296 102.893 115.344 101.096ZM122.12 154.686C121.432 156.945 120.424 159.093 119.128 161.066C118.457 161.975 117.485 163.073 116.252 162.437C115.019 161.8 114.692 160.105 114.59 158.812C114.222 153.278 114.482 147.721 115.366 142.247C115.798 139.28 116.395 136.339 117.155 133.439C117.629 131.601 118.182 129.772 118.722 127.946C121.225 131.877 122.828 136.313 123.415 140.936C124.002 145.559 123.56 150.254 122.12 154.686ZM177.233 153.83C186.49 154 195.636 155.938 204.5 158.527C206.663 159.166 208.843 159.817 210.984 160.552C213.126 161.287 215.809 162.434 215.905 164.966C216.001 167.497 212.775 167.962 210.932 168.169C208.78 168.408 206.605 168.543 204.444 168.626C195.864 168.962 187.275 168.277 178.857 166.586C174.139 165.601 169.484 164.333 164.919 162.789C160.848 161.451 156.893 159.788 152.918 158.185C160.389 154.712 169.109 153.64 177.256 153.798L177.233 153.83ZM183.127 207.74C184.154 211.297 184.978 214.909 185.596 218.559C186.293 222.187 186.539 225.887 186.329 229.575C186.003 233.2 184.15 237.413 180.176 238.184C176.905 238.828 173.82 236.49 172.275 233.734C170.427 230.394 170.423 226.34 170.37 222.622C170.317 218.905 170.383 215.176 170.515 211.545C170.73 207.255 171.205 202.983 171.939 198.751C172.637 194.969 173.535 191.227 174.631 187.54C178.296 193.883 181.158 200.658 183.151 207.708L183.127 207.74ZM249.185 248.053C250.832 246.965 252.543 245.978 254.31 245.099C257.94 243.229 261.721 241.671 265.614 240.44C273.287 238.008 281.307 236.852 289.354 237.016C293.485 236.973 297.606 237.442 301.621 238.412C304.197 239.132 304.565 240.957 302.906 242.802C301.484 244.157 299.824 245.237 298.009 245.987C290.141 249.912 281.334 251.592 272.605 252.036C263.547 252.523 254.494 251.486 245.473 250.559C246.787 249.788 247.942 248.863 249.209 248.021L249.185 248.053ZM288.377 293.822C293.853 299.639 299.154 306.57 301.632 314.276C302.819 317.923 302.469 322.102 298.14 323.17C294.323 324.082 290.304 322.235 287.377 319.852C284.156 317.033 281.44 313.685 279.347 309.951C277.312 306.584 275.566 303.051 274.129 299.389C272.54 295.331 271.301 291.145 270.424 286.876C269.628 283.02 269.314 279.135 268.763 275.249C269.061 275.468 269.367 275.694 269.672 275.92C269.587 276.025 269.523 276.146 269.485 276.276C269.448 276.407 269.437 276.543 269.454 276.678C269.471 276.812 269.515 276.942 269.584 277.059C269.653 277.176 269.744 277.278 269.854 277.358C276.298 282.536 282.736 287.758 288.401 293.789L288.377 293.822ZM371.59 286.917C374.864 286.152 381.142 285.576 381.465 290.376C381.778 294.584 377.174 297.624 374.189 299.783C368.357 304.026 361.87 307.283 354.984 309.424C348.605 311.267 342.014 312.273 335.376 312.418L334.336 311.824C343.358 299.315 356.582 290.474 371.59 286.917ZM382.488 330.761C387.321 325.137 392.895 320.195 399.057 316.069C405.371 311.707 412.335 308.373 419.692 306.191C421.257 305.755 423.306 305.352 424.813 306.241C426.535 307.275 426.513 309.595 425.73 311.23C424.792 312.839 423.557 314.256 422.091 315.404C420.75 316.615 419.363 317.754 417.909 318.831C412.325 322.948 406.074 326.075 399.431 328.076C395.734 329.193 391.941 329.964 388.101 330.379C386.227 330.612 384.359 330.701 382.488 330.761ZM428.487 359.37C430.634 361.513 433.936 364.483 433.736 367.853C433.629 368.762 433.221 369.61 432.577 370.261C431.932 370.911 431.089 371.327 430.18 371.443C428.114 371.695 426.021 371.279 424.209 370.255C416.191 366.256 408.738 361.213 402.044 355.257C394.992 349.184 388.95 342.215 383.085 335.055C386.919 336.226 390.768 337.347 394.634 338.418C395.47 338.65 396.33 338.849 397.183 339.056C408.899 343.59 419.549 350.5 428.463 359.352L428.487 359.37ZM461.185 346.449C462.058 345.266 462.748 343.961 463.562 342.722C464.661 341.047 465.876 339.384 467.178 337.822C469.55 334.866 472.165 332.116 474.997 329.598C480.9 324.311 487.642 320.046 494.947 316.977C497.774 315.807 502.72 313.516 505.371 316.156C508.774 319.561 504.122 324.232 501.649 326.371C495.926 331.303 489.625 335.522 482.885 338.935C476.524 342.102 469.878 344.659 463.034 346.57L461.185 346.449Z" fill="#94AE94"/>
<path d="M236.428 139.98C230.4 135.383 222.08 136.166 214.936 136.45C206.924 136.787 198.94 137.597 191.024 138.878C190.742 138.906 190.478 139.032 190.278 139.233C190.077 139.434 189.952 139.698 189.925 139.98C189.877 140.086 189.854 140.202 189.859 140.318C189.865 140.434 189.897 140.547 189.954 140.648C190.01 140.953 190.146 141.238 190.348 141.472C190.551 141.707 190.813 141.883 191.106 141.983C192.734 142.438 194.372 142.839 196.022 143.187C198.041 143.819 200.043 144.289 202.07 144.741C206.162 145.638 210.313 146.237 214.491 146.536C218.586 146.937 222.709 146.985 226.812 146.679C230.422 146.335 234.192 145.301 236.482 142.281C236.987 141.647 237.221 140.59 236.428 139.98Z" fill="#94AE94"/>
<path d="M250.024 308.311C253.055 303.563 251.961 297.449 251.315 292.176C250.585 286.276 249.508 280.423 248.092 274.649C248.05 274.442 247.939 274.255 247.777 274.12C247.615 273.984 247.411 273.908 247.2 273.904C247.118 273.873 247.03 273.863 246.943 273.875C246.856 273.887 246.773 273.92 246.703 273.972C246.48 274.029 246.278 274.146 246.117 274.31C245.957 274.474 245.844 274.679 245.792 274.903C245.549 276.141 245.349 277.372 245.201 278.617C244.871 280.126 244.631 281.664 244.425 283.19C244.011 286.276 243.821 289.387 243.856 292.5C243.807 295.568 244.018 298.634 244.487 301.666C244.998 304.342 245.964 307.042 248.344 308.55C248.828 308.82 249.634 308.906 250.024 308.311Z" fill="#94AE94"/>
<path d="M364.421 268.505C358.835 267.788 353.771 271.384 349.287 274.227C344.263 277.423 339.431 280.913 334.817 284.677C334.647 284.802 334.525 284.98 334.47 285.183C334.414 285.386 334.43 285.602 334.513 285.796C334.521 285.883 334.55 285.966 334.599 286.039C334.647 286.112 334.713 286.171 334.791 286.211C334.938 286.388 335.13 286.522 335.347 286.598C335.563 286.675 335.797 286.692 336.022 286.648C337.26 286.318 338.457 285.959 339.638 285.587C341.143 285.232 342.636 284.792 344.104 284.334C347.073 283.388 349.969 282.227 352.769 280.86C355.554 279.596 358.225 278.095 360.752 276.374C362.94 274.806 364.98 272.732 365.332 269.947C365.399 269.636 365.341 269.31 365.171 269.04C365 268.77 364.731 268.578 364.421 268.505Z" fill="#94AE94"/>
<path d="M529.085 321.188C523.494 320.48 518.444 324.073 513.946 326.919C508.923 330.117 504.091 333.606 499.475 337.368C499.305 337.492 499.184 337.671 499.131 337.875C499.078 338.078 499.098 338.294 499.186 338.485C499.191 338.571 499.217 338.654 499.264 338.728C499.31 338.801 499.373 338.861 499.449 338.903C499.6 339.079 499.794 339.212 500.013 339.288C500.232 339.364 500.467 339.381 500.695 339.337C501.924 339.001 503.129 338.648 504.302 338.27C505.802 337.923 507.343 337.519 508.777 337.023C511.74 336.076 514.632 334.916 517.428 333.551C520.211 332.285 522.882 330.784 525.411 329.065C527.613 327.495 529.638 325.424 529.997 322.631C530.058 322.319 529.998 321.996 529.829 321.727C529.659 321.459 529.393 321.266 529.085 321.188Z" fill="#94AE94"/>
<path d="M462.036 383.377C461.421 377.778 456.745 373.707 452.925 370.006C448.65 365.871 444.134 361.992 439.402 358.388C439.241 358.254 439.038 358.178 438.828 358.175C438.618 358.171 438.413 358.24 438.248 358.369C438.165 358.395 438.091 358.442 438.032 358.505C437.972 358.567 437.93 358.644 437.908 358.728C437.771 358.912 437.686 359.13 437.661 359.359C437.637 359.588 437.674 359.819 437.769 360.029C438.357 361.134 438.98 362.227 439.64 363.286C440.329 364.677 441.112 366.025 441.904 367.343C443.515 370.008 445.318 372.551 447.3 374.953C449.183 377.362 451.268 379.608 453.533 381.664C455.567 383.438 458.05 384.923 460.868 384.591C461.18 384.575 461.475 384.441 461.692 384.215C461.91 383.99 462.033 383.69 462.036 383.377Z" fill="#94AE94"/>
<path d="M124.048 77.979C122.226 76.3732 119.843 76.8399 117.698 77.4568C115.154 78.1778 112.679 79.1208 110.3 80.2748C105.569 82.6068 101.292 85.7633 97.6687 89.5961C97.4739 89.8296 97.358 90.1188 97.3377 90.4223C97.3174 90.7257 97.3936 91.0278 97.5555 91.2852C97.7174 91.5426 97.9566 91.7422 98.2389 91.8553C98.5212 91.9684 98.8321 91.9892 99.1269 91.9148C99.48 91.79 99.8207 91.6313 100.203 91.4663C104.636 90.8734 108.957 89.6312 113.027 87.7797C117.34 85.9648 121.144 83.1225 124.106 79.5006C124.286 79.2844 124.379 79.0095 124.369 78.7287C124.358 78.4479 124.244 78.1809 124.048 77.979Z" fill="#94AE94"/>
<path d="M157.471 203.387C158.713 201.619 159.868 199.8 160.954 197.941C162.211 195.799 163.346 193.604 164.386 191.352C164.888 190.268 165.365 189.166 165.813 188.055C166.042 187.609 166.209 187.134 166.308 186.643C166.382 185.952 165.918 185.486 165.54 184.971C165.427 184.786 165.273 184.63 165.09 184.514C164.907 184.398 164.699 184.326 164.484 184.302C164.268 184.279 164.051 184.305 163.847 184.379C163.643 184.453 163.459 184.572 163.308 184.728L163.071 185.05C159.975 187.153 157.29 189.805 155.148 192.874C152.687 196.159 150.795 199.833 149.551 203.745C149.166 205.076 149.127 206.762 150.217 207.778C150.756 208.219 151.436 208.453 152.133 208.436C152.83 208.419 153.497 208.152 154.014 207.684C155.368 206.426 156.533 204.979 157.471 203.387Z" fill="#94AE94"/>
<path d="M262.033 227.036C262.801 225.018 260.806 223.645 259.17 223.184C254.209 221.945 249.106 221.364 243.992 221.455C238.215 221.413 232.451 222.007 226.804 223.226C225.586 223.495 225.61 225.551 226.847 225.743L227.342 225.798C236.158 230.153 246.633 231.183 256.283 229.641C258.178 229.312 261.221 229.146 262.033 227.036Z" fill="#94AE94"/>
<path d="M393.138 306.793C393.16 305.869 392.828 304.971 392.21 304.284C391.592 303.596 390.734 303.172 389.813 303.097C387.544 302.802 385.183 304.217 383.17 305.093C380.715 306.164 378.298 307.351 375.948 308.65C370.574 311.66 365.522 315.211 360.871 319.248C359.889 320.09 361.025 321.649 362.141 321.316C363.073 321.047 364.002 320.764 364.94 320.486C373.714 320.271 382.178 317.201 389.051 311.743C390.613 310.535 392.927 308.998 393.138 306.793Z" fill="#94AE94"/>
<path d="M538.269 340.826C538.378 340.389 538.395 339.934 538.32 339.489C538.245 339.045 538.08 338.621 537.833 338.243C537.587 337.866 537.266 337.543 536.889 337.295C536.513 337.047 536.09 336.88 535.645 336.803C533.62 336.499 531.556 336.573 529.557 337.021C527.536 337.304 525.542 337.753 523.595 338.363C519.286 339.772 515.281 341.983 511.792 344.878C511.63 345.002 511.506 345.169 511.436 345.361C511.116 345.659 511.018 346.196 511.524 346.42C511.591 346.45 511.659 346.476 511.729 346.497C511.988 346.806 512.356 347.006 512.757 347.056C512.967 347.075 513.173 347.065 513.383 347.084C520.014 349.23 527.569 348.068 533.697 344.934C535.489 344.106 537.788 342.944 538.269 340.826Z" fill="#94AE94"/>
</svg>
