<svg width="229" height="345" viewBox="0 0 229 345" fill="none" xmlns="http://www.w3.org/2000/svg">
<path d="M228.073 45.2523C228.682 43.8134 228.998 42.2383 229 40.6425C229.002 39.0467 228.688 37.4708 228.083 36.0302C227.477 34.5896 226.595 33.3209 225.501 32.3171C224.406 31.3133 223.128 30.5999 221.758 30.2292C221.603 30.207 221.446 30.207 221.291 30.2292C222.224 28.3362 222.857 26.2725 223.161 24.1316C223.645 21.2271 223.186 18.2222 221.867 15.6719C220.549 13.1217 218.461 11.1984 215.989 10.2574C215.812 10.19 215.621 10.19 215.444 10.2574C215.932 8.74582 216.023 7.1059 215.705 5.53701C215.386 3.96813 214.673 2.5379 213.65 1.42026C210.298 -1.93784 206.088 1.42026 203.204 3.67372C201.84 4.77836 200.553 6.01555 199.306 7.20856C196.694 2.79001 190.302 2.30397 186.131 3.54116C183.449 4.44953 180.963 5.97883 178.829 8.03233C176.696 10.0858 174.961 12.6189 173.735 15.4713C170.853 21.9869 169.244 29.1306 169.019 36.4152C168.805 40.2337 168.922 44.0668 169.37 47.8593C169.495 50.6781 169.981 53.4613 170.812 56.1219C169.927 55.3534 169.093 54.5116 168.317 53.6034C166.853 51.7076 165.621 49.5972 164.653 47.329C162.682 42.8761 161.858 37.8839 162.275 32.9245C162.756 28.1251 164.342 23.5535 166.875 19.6689C168.176 17.6502 169.695 15.8244 171.397 14.2341C173.034 12.6876 174.905 11.6713 176.542 10.2132C177.049 9.77132 176.542 8.66668 176.035 8.84343C171.535 10.4017 167.642 13.661 165.004 18.0782C162.043 22.4173 160.177 27.5872 159.607 33.0352C159.037 38.4831 159.784 44.0042 161.769 49.0081C162.769 51.6283 164.08 54.0812 165.667 56.2987C167.044 58.611 168.924 60.4827 171.124 61.7335C160.207 78.7482 150.719 96.8845 142.786 115.905V115.242C145.256 102.999 145.771 90.354 144.306 77.9054C143.643 72.8683 142.201 66.7265 137.251 65.2241C135.264 64.8776 133.233 65.3639 131.54 66.5921C129.847 67.8202 128.606 69.706 128.051 71.8962C126.27 77.8958 125.195 84.1356 124.855 90.4541C124.257 96.4974 124.01 102.579 124.114 108.659C124.272 122.286 126.338 135.798 130.234 148.691C130.234 149.177 129.961 149.663 129.805 150.149C129.766 150.253 129.745 150.366 129.745 150.48C129.745 150.594 129.766 150.707 129.805 150.812C128.792 154.081 127.739 157.351 126.804 160.621C119.305 186.688 114.197 213.562 111.563 240.817C108.833 221.554 104.487 202.631 98.5828 184.304C95.4254 174.407 91.8004 164.686 87.7855 155.186C88.8964 152.716 89.7844 150.125 90.4361 147.453C91.3326 144.184 92.1511 140.914 92.8528 137.6C94.2365 131.297 95.2136 124.888 95.7762 118.424C97.0363 105.572 96.3508 92.5717 93.7494 79.9821C92.6189 75.0333 90.2412 69.4218 85.2128 68.759C83.3527 68.7276 81.5366 69.402 80.0534 70.675C78.5703 71.948 77.505 73.7465 77.0271 75.7845C75.571 81.0453 74.8477 86.5313 74.8832 92.0448C74.571 98.3965 74.7275 104.767 75.351 111.089C76.2779 122.059 78.6427 132.811 82.3673 142.991C77.899 133.366 73.0074 124.002 67.7109 114.933C64.1768 108.835 60.4348 102.944 56.4849 97.2587C53.577 92.6813 50.3439 88.381 46.8179 84.4007C48.6553 82.8694 50.2953 81.055 51.6904 79.01C53.6673 76.3884 55.4043 73.5459 56.8746 70.5264C59.8561 64.3506 61.6495 57.5288 62.1369 50.5104C62.5656 44.3244 61.864 36.8129 57.1475 32.8362C55.3444 31.1436 53.064 30.2434 50.7235 30.3001C48.3829 30.3569 46.1387 31.367 44.4012 33.1455C43.038 30.8929 41.2549 29.0074 39.1779 27.6223C36.9366 25.9571 34.3152 25.0701 31.6354 25.0701C28.9556 25.0701 26.3342 25.9571 24.0929 27.6223C22.213 25.5211 19.6774 24.3461 17.0374 24.3525C15.4037 24.3873 13.8474 25.1474 12.7029 26.4695C11.5585 27.7916 10.9175 29.57 10.9177 31.4222C10.9253 33.6636 11.3089 35.8828 12.0481 37.9617C7.56542 37.9617 4.25215 44.0593 4.25215 48.5662C4.13221 51.8127 4.79246 55.0351 6.16223 57.8894C4.17942 59.8949 2.60249 62.3626 1.53947 65.1234C0.47646 67.8841 -0.0475721 70.8728 0.00339085 73.8845C0.41726 76.9155 1.49364 79.7809 3.13444 82.2197C4.77524 84.6584 6.92832 86.593 9.39748 87.8471C20.1558 94.1215 33.7207 92.2657 44.8299 88.1564C47.0128 91.6913 49.5075 95.0494 51.7683 98.4075C55.1205 103.533 58.4339 108.659 61.5912 113.917C67.9939 124.596 73.8629 135.675 79.1709 147.1C81.3148 151.518 83.3418 156.423 85.2907 161.195L84.9789 160.797C81.1067 156.192 76.807 152.073 72.1546 148.514C63.1447 141.67 53.1037 136.758 42.5301 134.021C38.3593 132.961 32.1616 130.751 28.2247 133.668C24.2877 136.584 25.2622 143.123 27.9518 146.923C31.5907 151.536 35.7906 155.538 40.4252 158.809C44.8275 162.209 49.4839 165.166 54.3409 167.646C65.8402 173.504 78.3375 176.416 90.9428 176.174C95.9369 189.837 100.168 203.841 103.611 218.106C104.001 219.653 104.352 221.243 104.703 222.834C100.283 214.862 94.2921 208.162 87.2007 203.26C83.927 200.445 80.103 198.565 76.0526 197.781C75.194 197.797 74.3498 198.034 73.5833 198.473C72.8168 198.912 72.1479 199.542 71.6267 200.315C71.1055 201.089 70.7454 201.986 70.5736 202.94C70.4017 203.894 70.4225 204.879 70.6344 205.822C72.0056 210.649 74.3247 215.06 77.4169 218.725C80.3579 223.039 83.5481 227.128 86.9668 230.964C93.6229 238.396 101.074 244.853 109.146 250.185C109.341 250.627 109.575 251.024 109.77 251.422C109.979 251.843 110.309 252.17 110.705 252.35C110.121 260.524 109.731 268.743 109.614 276.961C109.419 288.008 109.614 299.054 110.316 310.145C110.666 315.668 111.056 321.191 111.641 326.67C111.953 329.365 112.265 332.061 112.654 334.712C113.044 337.363 113.98 340.5 114.681 343.549C114.763 344.003 114.995 344.405 115.33 344.671C115.665 344.938 116.077 345.048 116.482 344.98C116.887 344.912 117.253 344.671 117.505 344.306C117.758 343.941 117.877 343.48 117.839 343.019C117.644 338.114 117.566 333.342 117.098 328.393C116.63 323.444 116.241 318.717 115.929 313.9C115.266 304.666 114.954 295.387 114.915 286.108V285.754C130.649 273.576 142.522 255.998 148.789 235.604C149.607 233.129 150.27 230.611 150.893 228.048C151.741 225.575 152.062 222.911 151.829 220.271C150.776 214.881 145.592 216.294 142.669 218.592C134.34 225.469 127.644 234.577 123.179 245.103C120.378 251.493 118.069 258.146 116.28 264.987C115.812 266.666 115.383 268.345 114.954 270.024C115.42 255.323 116.591 240.661 118.462 226.104C119.554 217.753 120.879 209.49 122.36 201.227C126.622 197.721 130.684 193.913 134.522 189.827C139.005 185.409 143.253 180.327 147.346 175.334C155.547 165.324 163.041 154.598 169.76 143.256C172.02 139.367 175.49 132.43 170.461 129.116C165.433 125.803 160.56 132.033 157.247 134.905C148.667 142.403 141.148 151.343 134.951 161.416C132.519 165.632 130.319 170.015 128.363 174.539C133.482 153.896 139.998 133.732 147.853 114.226C154.979 96.8034 163.063 79.906 172.059 63.6335C172.839 68.052 177.75 70.6148 181.181 72.1613C189.009 75.7282 197.687 76.1055 205.734 73.2288C213.781 70.3521 220.698 64.3997 225.305 56.387C225.869 55.8448 226.367 55.2209 226.787 54.5313C227.158 53.8072 227.484 53.0542 227.761 52.2778C228.311 50.7036 228.678 49.0549 228.853 47.3732C228.952 46.9718 228.929 46.5443 228.787 46.1595C228.646 45.7748 228.394 45.4552 228.073 45.2523ZM8.57895 43.7942C9.6475 41.909 11.2379 40.4792 13.1006 39.7291C13.5683 40.9663 14.0751 42.1593 14.5428 43.264C16.3708 47.7173 18.4812 52.0146 20.8575 56.1219C26.1864 65.2515 32.6451 73.4656 40.0355 80.5124C38.7283 80.4451 37.4263 80.2827 36.1375 80.0263C33.4412 79.4076 30.8227 78.4132 28.3416 77.0659C23.6221 74.3359 19.3817 70.6523 15.8291 66.1962C11.925 62.2116 9.03164 57.1164 7.4485 51.4383C6.94916 48.8305 7.32443 46.1054 8.50103 43.7942H8.57895ZM13.3735 85.0635C11.0018 84.2891 8.84707 82.8323 7.119 80.8347C5.39092 78.8371 4.14826 76.3667 3.51165 73.6636C2.6541 68.5822 5.30471 64.1637 7.40961 59.8335C8.58987 61.9605 9.89199 63.9974 11.3076 65.9311C15.2467 71.356 20.0128 75.9355 25.3791 79.4519C28.2668 81.2989 31.3611 82.696 34.5783 83.6053C36.6866 84.2814 38.8591 84.6671 41.0489 84.7542C32.0907 88.3864 22.3149 88.4953 13.2954 85.0635H13.3735ZM15.1665 37.7849C13.9581 34.7361 11.7363 27.799 16.4918 27.0479C20.1559 26.4734 23.5081 31.0246 25.7299 33.7199C30.7454 39.9142 34.7097 47.1042 37.4238 54.9289C39.7197 62.0215 41.0346 69.4737 41.3218 77.0217C30.1449 66.2817 21.1888 52.8863 15.0885 37.7849H15.1665ZM40.5422 54.3103C37.6301 45.2364 33.0304 36.9784 27.0552 30.0967L26.8214 29.8757C28.8244 28.7126 31.0875 28.2511 33.3226 28.5501C35.5576 28.8491 37.6636 29.895 39.3728 31.5548C43.3696 35.7338 45.9255 41.3875 46.584 47.5058C48.7142 57.2262 47.9184 67.4748 44.3232 76.624C44.2267 68.9841 42.9196 61.426 40.4642 54.3103H40.5422ZM44.8689 81.7495L44.6741 81.4844C52.47 71.8962 51.6904 55.4592 49.0398 43.7058C48.4592 41.0472 47.6225 38.469 46.545 36.0175C46.7187 35.9142 46.8766 35.7799 47.0128 35.6199C50.2481 31.7757 55.6273 34.9129 57.4983 38.757C59.4726 43.866 59.8574 49.5837 58.5897 54.9731C57.7175 60.4123 56.0019 65.6333 53.5224 70.3939C52.2466 72.8667 50.7581 75.1904 49.0787 77.331C47.8703 78.9659 46.2721 80.4682 45.1807 82.1914C45.0865 82.0356 44.9823 81.8879 44.8689 81.7495ZM79.7557 117.937C77.928 106.985 77.5731 95.7826 78.7032 84.71C79.093 80.91 79.4438 75.0333 82.6011 72.6915C82.9626 72.4526 83.3586 72.288 83.7706 72.2055C83.7706 84.71 84.4332 97.2145 84.823 109.719C85.0179 116.126 85.1739 122.489 85.3688 128.895C85.3688 132.077 85.3687 135.258 85.6415 138.484V139.854C82.9517 132.76 80.914 125.372 79.5607 117.805L79.7557 117.937ZM40.971 137.114C50.3239 139.483 59.2756 143.557 67.477 149.177C72.0848 152.364 76.4292 156.017 80.4573 160.09C82.3905 161.943 84.1773 163.983 85.7975 166.188C77.0271 160.974 68.1008 156.025 59.0575 151.474C49.2886 146.221 39.1916 141.79 28.8484 138.219C30.2906 133.712 37.9695 136.407 40.971 137.114ZM62.4488 166.718C53.4351 163.296 44.9899 158.188 37.4628 151.607C34.5004 149.044 29.0432 145.112 28.6144 140.34C38.2423 145.465 48.1043 149.795 57.8102 154.921C67.5161 160.046 76.7932 165.569 86.0704 171.402C78.0156 171.111 70.0372 169.534 62.3707 166.718H62.4488ZM87.0058 110.161C86.4211 97.4354 85.9923 84.71 85.1348 71.9845C86.4084 72.2682 87.5536 73.0502 88.3702 74.1938C89.9152 76.7082 90.8678 79.6285 91.1377 82.6774C93.0779 93.907 93.6029 105.392 92.6968 116.789C92.1786 123.236 91.3065 129.641 90.0853 135.965C89.6565 138.174 89.1498 140.384 88.643 142.549C88.643 141.444 88.643 140.34 88.4092 139.279L87.7465 129.735L87.0058 110.161ZM77.144 212.362C75.8562 210.661 74.7325 208.81 73.7918 206.839C73.469 206.004 73.3093 205.099 73.324 204.188C85.5223 214.826 96.1532 227.593 104.82 242.01C94.1812 233.942 84.8019 223.922 77.0661 212.362H77.144ZM74.1815 202.464C74.0414 202.419 73.8929 202.419 73.7528 202.464C74.0939 201.894 74.602 201.48 75.1871 201.294C75.7721 201.108 76.3963 201.162 76.9492 201.448C80.4524 202.765 83.7728 204.64 86.811 207.015C92.7321 211.364 97.8113 217.031 101.74 223.673C104.72 228.704 107.044 234.195 108.639 239.978C108.834 240.95 108.99 241.922 109.185 242.938C100.183 226.755 88.2196 212.952 74.1036 202.464H74.1815ZM145.397 235.736C142.315 245.033 138.075 253.782 132.807 261.717C128.67 267.822 124.022 273.459 118.93 278.552C123.335 270.598 127.545 262.468 131.832 254.471C137.445 244.043 143.175 233.659 148.711 223.187C148.38 225.017 147.937 226.818 147.385 228.578C146.8 231.008 146.216 233.394 145.319 235.736H145.397ZM123.413 254.073C126.767 244.25 131.756 235.25 138.108 227.562C139.711 225.687 141.43 223.944 143.253 222.348C144.229 221.456 145.303 220.713 146.45 220.139C140.681 231.052 135.185 242.231 129.494 253.057C125.362 261.099 121.074 269.052 117.059 277.182C117.566 274.884 118.073 272.764 118.657 270.378C119.969 264.845 121.557 259.402 123.413 254.073ZM169.604 133.093C169.952 133.807 170.05 134.643 169.876 135.435C168.966 138.44 167.549 141.216 165.706 143.609C159.577 153.719 152.816 163.318 145.475 172.33C141.382 177.323 137.095 182.095 132.729 186.734C131.482 188.104 130.156 189.385 128.831 190.667C134.522 182.154 140.317 173.714 146.216 165.349C150.114 159.958 154.012 154.611 157.91 149.353L163.757 141.621C165.943 139.206 167.902 136.541 169.604 133.668C169.642 133.578 169.661 133.48 169.661 133.38C169.661 133.281 169.642 133.183 169.604 133.093ZM134.522 169.546C139.539 159.907 145.792 151.165 153.076 143.609C156.565 139.872 160.334 136.487 164.341 133.491C165.42 132.423 166.807 131.841 168.239 131.856C168.329 131.832 168.422 131.832 168.512 131.856C168.321 131.791 168.118 131.791 167.927 131.856C165.712 134.066 163.713 136.54 161.964 139.235L156.078 148.028C152.18 153.374 148.282 158.677 144.384 164.067C137.874 173.214 131.715 182.581 125.674 192.081C126.414 189.695 127.116 187.265 127.973 184.923C129.817 179.62 132.006 174.48 134.522 169.546ZM130.624 124.786C130.624 127.747 130.429 130.84 130.351 133.933C127.032 117.25 126.569 100 128.987 83.1193C129.649 78.7007 130.039 70.1729 134.444 68.4497H135.068C133.172 80.844 131.935 93.3564 131.365 105.919C130.936 112.149 130.624 118.468 130.624 124.786ZM139.745 113.607C138.202 121.43 136.263 129.146 133.937 136.716C133.937 132.695 133.586 128.675 133.586 124.742C133.586 118.379 133.586 112.017 133.898 105.698C134.327 93.1494 135.458 80.6891 136.393 68.2288C140.291 68.8474 141.149 77.3752 141.499 80.7775C142.412 91.7619 141.794 102.841 139.667 113.607H139.745ZM214.313 13.5713L214.664 12.7317C214.724 12.874 214.811 12.9994 214.919 13.0987C215.027 13.1981 215.153 13.269 215.288 13.3062C221.057 15.4713 221.602 22.8944 219.186 28.3734C216.151 34.0798 212.054 38.9658 207.18 42.6895C198.173 50.3336 187.656 55.3693 176.542 57.3591C184.599 52.8862 191.855 46.7587 197.942 39.2872C204.535 31.7423 210.034 23.0632 214.235 13.5713H214.313ZM198.721 11.1853C200.125 9.72714 201.567 8.3132 203.048 6.76671C204.744 4.94425 206.693 3.45135 208.817 2.34816C209.402 2.10183 210.034 2.03283 210.649 2.14797C211.265 2.2631 211.844 2.5584 212.328 3.00466C212.812 3.45092 213.185 4.0327 213.41 4.69249C213.636 5.35228 213.705 6.06725 213.612 6.76671C213.34 9.3281 212.538 11.7806 211.273 13.9248C207.365 21.9581 202.557 29.3841 196.967 36.0175C190.582 43.1496 183.598 49.5574 176.113 55.1499C179.567 38.269 187.352 22.9251 198.487 11.0527L198.721 11.1853ZM172.917 48.2127C172.404 44.8859 172.144 41.5156 172.137 38.1384C172.08 31.9002 173.072 25.7069 175.061 19.8898C175.914 17.1194 177.251 14.5724 178.992 12.4011C180.734 10.2298 182.844 8.47877 185.195 7.25275C187.319 6.21942 189.638 5.80914 191.939 6.05974C194.044 6.48571 196.065 7.33891 197.903 8.57832C192.825 13.5802 188.332 19.2969 184.533 25.5897C179.641 33.6971 175.942 42.6506 173.579 52.1011C173.151 50.8197 172.878 49.4499 172.683 48.2127H172.917ZM223.084 52.8522C222.733 53.6917 222.421 54.5754 222.07 55.4592C218.134 61.7334 212.604 66.4985 206.218 69.1194C199.832 71.7403 192.893 72.0924 186.326 70.1287C183.86 69.4184 181.469 68.4112 179.193 67.1241C177.205 66.0195 174.047 63.8986 173.969 61.0265C176.025 62.7406 178.355 63.9861 180.83 64.6939C184.054 65.7791 187.406 66.3006 190.769 66.2404C198.153 65.8939 205.384 63.7542 211.974 59.9661C215.931 58.0608 219.673 55.6282 223.123 52.7197L223.084 52.8522ZM221.914 49.3174C217.241 53.5375 211.969 56.8247 206.322 59.0382C200.9 61.6395 195.059 62.9336 189.171 62.8381C186.303 62.7295 183.459 62.1947 180.713 61.2475C179.382 60.667 178.081 60.0032 176.815 59.2591C190.031 57.5974 202.494 51.4353 212.559 41.5849C215.487 38.8864 218.105 35.7842 220.355 32.3501C220.432 32.6939 220.593 33.0056 220.821 33.2483C221.049 33.491 221.334 33.6547 221.641 33.7199C223.012 34.0568 224.23 34.9449 225.068 36.2201C225.906 37.4952 226.309 39.0713 226.202 40.657C226.009 42.3739 225.509 44.028 224.731 45.5174C223.954 47.0068 222.915 48.3 221.68 49.3174H221.914Z" fill="#94AE94"/>
</svg>
