<svg width="161" height="448" viewBox="0 0 161 448" fill="none" xmlns="http://www.w3.org/2000/svg">
<path d="M103.913 1.69629C98.3499 4.35018 93.8044 8.39715 90.8508 13.326C84.0765 23.4978 81.3657 35.3763 83.1512 47.0646C85.1616 59.2688 91.8294 70.506 102.057 78.9253C102.118 79.0105 102.2 79.0828 102.297 79.1373L102.297 79.2887C102.461 79.4177 102.664 79.5019 102.881 79.531L102.881 79.8641C95.2974 92.3526 89.5233 105.631 85.6948 119.387C85.3468 116.931 84.8419 114.494 84.1824 112.088C82.8013 106.944 80.7602 101.955 78.0983 97.218C73.2861 88.6168 66.2051 79.1978 55.7213 75.5029C47.4373 72.4744 36.1285 74.6549 32.1412 82.3173C27.3633 91.403 37.091 100.489 45.5812 104.608C50.7536 107.065 56.5082 108.419 62.3825 108.561C68.2567 108.703 74.0869 107.629 79.4045 105.425C80.3296 107.618 81.1213 109.852 81.7763 112.119C82.8678 116.353 83.6713 120.641 84.1824 124.96C79.0533 146.912 75.9497 169.195 74.9016 191.589C74.6267 195.556 74.4203 199.524 74.1797 203.491C73.8168 203.031 73.4147 202.595 72.9767 202.189C71.4405 200.928 69.6741 199.904 67.7519 199.16C67.7519 198.706 67.3738 198.252 67.2019 197.767C72.444 184.544 71.7928 170.061 65.3802 157.244C62.4774 151.849 58.3201 147.051 53.1777 143.162C47.7846 138.86 40.882 136.316 33.6192 135.954C18.22 135.954 11.8265 152.459 13.7515 163.726C15.9513 176.537 26.9508 186.501 39.3939 192.588C43.3369 194.479 47.4395 196.099 51.6652 197.434C55.6525 198.706 59.7773 199.614 63.7646 200.886C65.7441 201.333 67.5856 202.163 69.1554 203.316C70.7251 204.468 71.9836 205.914 72.8392 207.549C73.2684 208.525 73.5683 209.542 73.733 210.578C72.5413 231.657 71.808 252.746 71.533 273.845C71.3726 286.686 71.3726 299.528 71.533 312.369C70.1581 308.22 68.68 304.071 67.3051 299.952L63.2146 287.837C61.9084 283.87 60.843 279.751 59.2274 275.905C58.4778 274.073 57.08 272.501 55.2401 271.422C55.5395 271.33 55.8024 271.164 55.9975 270.944C56.1925 270.724 56.3114 270.459 56.34 270.181C59.0898 254.432 60.9461 237.23 51.6996 222.813C48.0173 216.676 42.281 211.685 35.2691 208.519C31.7236 206.815 27.7085 206.017 23.6761 206.215C19.6436 206.413 15.754 207.599 12.4453 209.639C6.2306 214.689 2.08548 221.408 0.655224 228.75C-1.01151 235.836 0.530348 243.215 4.95189 249.314C14.4733 262.7 32.4506 267.485 48.4685 272.058C50.8566 272.452 53.0716 273.428 54.8619 274.875C56.2083 276.724 57.1524 278.778 57.6462 280.932L63.0772 295.469C64.7959 300.345 66.5145 305.221 68.2675 310.097C69.4706 313.368 70.605 316.669 71.8768 319.94C72.0372 329.006 72.3006 338.092 72.6673 347.198L71.0861 343.806C69.1436 339.621 66.8456 335.571 64.2115 331.691C59.5023 324.725 53.6588 316.76 44.2062 314.61C42.3143 314.101 40.3232 313.944 38.3588 314.148C36.3945 314.352 34.4995 314.913 32.7938 315.796C31.0881 316.678 29.6086 317.863 28.4491 319.275C27.2895 320.687 26.475 322.295 26.0571 323.999C25.3191 327.281 25.8781 330.688 27.6415 333.652C29.4049 336.616 32.2663 338.959 35.7504 340.292C44.8593 344.23 55.3776 341.171 62.5272 335.447L63.1803 335.992C63.2635 336.076 63.3741 336.136 63.497 336.163C63.62 336.19 63.7493 336.183 63.8677 336.143C65.5211 338.693 67.013 341.322 68.3363 344.018C69.2988 346.037 70.1925 348.056 71.0174 350.075C71.6362 351.589 72.1174 353.103 72.8392 354.678L72.8392 355.344C74.1454 382.602 75.9671 410.101 79.3357 437.328C79.7482 440.751 80.1951 444.143 80.7107 447.535C80.7107 448.262 82.0169 448.08 81.9825 447.383C81.2263 433.785 80.0577 420.126 79.1983 406.649L78.7857 399.683C79.2822 393.155 80.2467 386.661 81.6732 380.239C86.9509 381.127 92.3868 380.964 97.5843 379.764C102.782 378.564 107.61 376.357 111.715 373.304C115.557 370.352 118.436 366.55 120.055 362.292C121.674 358.033 121.976 353.471 120.927 349.075C120.485 346.98 119.463 345.014 117.952 343.35C116.441 341.686 114.488 340.376 112.265 339.535C111.16 339.186 110.001 338.982 108.828 338.93C108.711 338.876 108.581 338.849 108.45 338.849C108.318 338.849 108.189 338.876 108.072 338.93C104.356 338.945 100.743 340.006 97.7599 341.958C93.4332 344.879 90.0935 348.785 88.101 353.255C85.7297 358.276 83.7992 363.45 82.3263 368.731C80.363 375.466 78.9614 382.319 78.1328 389.234C77.7203 381.511 77.3421 373.758 76.9984 366.035C76.5171 353.558 76.1047 341.08 75.8641 328.602C82.1573 322.275 87.5376 315.287 91.8821 307.796C96.2493 299.938 98.3396 291.25 97.9661 282.507C97.9661 280.972 97.863 279.428 97.6568 277.873C102.059 279.671 106.837 280.645 111.689 280.734C116.54 280.823 121.36 280.024 125.843 278.388C130.919 276.687 135.847 274.663 140.589 272.331C144.837 270.522 148.791 268.22 152.345 265.486C159.873 259.278 161.729 250.767 160.766 242.045C160.056 233.109 157.172 224.412 152.31 216.544C150.072 212.886 146.891 209.742 143.022 207.365C139.154 204.987 134.706 203.442 130.036 202.855C120.652 202.098 112.85 206.974 107.247 213.273C101.232 220.663 96.9758 229.049 94.735 237.926C92.235 247.526 91.665 257.439 93.0508 267.213C93.9727 273.057 94.5349 278.941 94.735 284.839C94.7429 290.248 93.7324 295.621 91.7445 300.739C87.7737 309.753 82.4314 318.25 75.8641 325.997C75.6235 312.126 75.5204 298.225 75.6579 284.354C75.9099 257.319 76.8609 230.294 78.5108 203.279L78.5108 202.825C81.4928 197.823 83.8552 192.553 85.5573 187.106C87.6847 180.122 89.4056 173.046 90.7133 165.906L93.1882 153.277C93.2689 153.327 93.3649 153.353 93.4632 153.353C93.5615 153.353 93.6575 153.327 93.7382 153.277C105.459 164.513 125.98 157.759 136.258 148.129C142.014 142.656 145.687 135.737 146.766 128.337C147.844 120.937 146.274 113.425 142.273 106.849C138.389 100.792 131.239 94.7345 122.543 96.3093C114.534 97.7025 109 104.971 105.116 110.756C96.2474 123.839 92.6726 138.952 89.8884 153.822C87.1041 168.693 84.6636 183.533 78.8546 197.616C79.8081 176.129 82.3687 154.721 86.5197 133.531C91.2289 111.816 99.2036 90.2522 113.365 71.7778C115.153 69.4458 117.009 67.1744 118.968 64.9635C119.187 64.7369 119.331 64.462 119.386 64.1685C119.44 63.875 119.403 63.5739 119.278 63.2977C122.173 59.5703 124.431 55.4887 125.98 51.1834C128.019 45.7357 129.312 40.0927 129.83 34.3747C130.483 28.427 130.38 22.4335 129.521 16.5061C129.296 13.7896 128.449 11.1412 127.032 8.72086C125.614 6.30048 123.654 4.15811 121.271 2.4231C118.703 0.974393 115.748 0.144825 112.702 0.0172757C109.656 -0.110274 106.625 0.468716 103.913 1.69629ZM54.8963 77.411C64.4865 80.7121 71.0862 89.3133 75.5203 97.0362C76.2078 98.2174 76.7921 99.4288 77.4108 100.64C76.8608 99.9437 76.2765 99.2774 75.7266 98.6414C74.4388 97.1939 73.0375 95.8277 71.533 94.5528C68.3727 91.8335 64.8118 89.5007 60.9461 87.6173C53.1319 83.6795 44.1872 81.8276 35.2004 82.287C38.7752 76.6538 48.3654 75.2607 54.8963 77.411ZM33.963 87.163C33.9439 86.4003 34.0246 85.6381 34.2036 84.8916C43.0906 84.0436 52.0694 85.4075 60.121 88.8287C63.9116 90.5782 67.3868 92.8134 70.433 95.4613C71.898 96.7728 73.2753 98.1582 74.5579 99.6105C74.8672 99.9436 75.1422 100.307 75.4172 100.671L73.7673 100.065C71.8415 99.409 69.8508 98.9121 67.8207 98.5808C63.3522 97.8236 58.8493 97.7025 54.3463 97.3088C45.9593 96.6122 37.744 94.1894 33.963 87.2842L33.963 87.163ZM51.459 103.851C44.5679 101.804 38.7776 97.5872 35.2004 92.0088C39.0846 95.4837 44.1338 97.7664 49.6028 98.5202C54.4838 99.3379 59.5023 99.4288 64.4177 100.035C66.6797 100.31 68.9107 100.756 71.0861 101.367C72.1558 101.667 73.2009 102.032 74.2141 102.457C74.7985 102.73 75.3484 103.063 75.9328 103.336C68.14 106.187 59.429 106.414 51.459 103.972L51.459 103.851ZM30.4912 139.134C33.3624 138.698 36.3032 138.771 39.142 139.349C41.9808 139.926 44.6605 140.995 47.0248 142.495C52.4502 145.566 56.9827 149.716 60.2586 154.61C64.3046 160.563 66.794 167.236 67.5457 174.144C68.108 180.457 67.8775 186.805 66.8583 193.073L66.8583 192.376C66.5146 189.802 65.9646 187.228 65.3459 184.684C64.1099 179.706 62.4554 174.817 60.3961 170.055C56.4088 160.97 51.0809 151.036 42.4532 144.585C39.0204 141.973 34.9132 140.143 30.4912 139.255L30.4912 139.134ZM25.9883 141.011C40.5283 141.375 49.1216 153.883 54.8276 164.18C57.9979 169.869 60.5084 175.825 62.321 181.958C63.1803 184.986 63.8678 187.803 64.4521 190.771L64.4521 191.286C63.0084 188.53 61.3928 185.834 59.7773 183.23C56.6508 178.14 53.2082 173.206 49.4653 168.45C41.9239 159.092 33.078 150.606 23.1354 143.192C24.0046 142.386 24.96 141.656 25.9883 141.011ZM18.5637 150.097C19.2491 148.43 20.1855 146.851 21.3479 145.403C31.0925 152.719 39.8468 161.002 47.4373 170.086C51.3734 174.742 54.945 179.63 58.1274 184.714C59.9492 187.591 61.5647 190.559 63.1115 193.527C62.2178 192.618 61.2554 191.77 60.3617 190.922C58.2649 189.014 56.0306 187.197 53.762 185.41C49.2591 181.776 44.5843 178.293 40.0126 174.659C31.3849 167.723 23.0322 159.97 18.6668 150.248L18.5637 150.097ZM21.1417 173.417C18.5898 169.171 17.1676 164.469 16.9826 159.667C18.0047 161.828 19.152 163.94 20.4199 165.997C22.8118 169.835 25.5596 173.492 28.6351 176.93C34.8703 183.694 42.4823 189.374 51.0808 193.679L54.1745 195.193C41.1127 191.013 28.0507 184.441 21.1417 173.296L21.1417 173.417ZM53.6932 193.103C49.4895 191.083 45.5478 188.666 41.9376 185.895C34.5623 180.442 28.4171 173.815 23.8228 166.361C22.2131 163.411 20.8125 160.377 19.6293 157.275C24.4911 163.936 30.3924 169.961 37.1597 175.174C41.8001 178.929 46.6468 182.442 51.3903 186.107C53.762 187.954 56.0994 189.832 58.265 191.77C60.4305 193.709 62.5616 195.859 64.9677 197.555C61.2897 196.041 57.3712 194.769 53.6932 192.982L53.6932 193.103ZM45.9592 220.603C54.7244 231.506 55.6526 244.831 54.3808 257.763C54.3808 256.279 54.0714 254.735 53.8308 253.281C51.9385 242.025 47.5967 231.196 41.0439 221.39C39.4627 219.058 37.6065 216.756 35.9222 214.545C34.8223 213.243 33.688 212.001 32.4849 210.76C37.911 212.839 42.5755 216.205 45.9592 220.481L45.9592 220.603ZM27.6039 209.457C27.9133 209.457 28.2226 209.609 28.4976 209.669C32.773 213.648 36.447 218.096 39.4283 222.904C42.5102 227.572 45.0991 232.478 47.1623 237.563C49.2607 242.753 50.7915 248.107 51.7339 253.554C52.2152 256.279 52.559 259.005 52.7652 261.731L52.7652 264.093C51.734 260.459 50.2903 256.885 48.9154 253.493C46.6446 247.902 43.9339 242.458 40.8032 237.199C34.9208 227.329 27.6194 218.168 19.0793 209.942C21.8225 209.132 24.7488 208.924 27.6039 209.336L27.6039 209.457ZM15.917 211.275C16.2656 211.083 16.6339 210.921 17.0169 210.79C25.7515 218.979 33.2286 228.143 39.2565 238.047C42.2942 243.137 44.9468 248.398 47.1967 253.796C48.3311 256.491 49.3278 259.217 50.2559 261.973C51.0121 264.184 51.6652 266.455 52.4214 268.666C51.3215 267.061 50.0153 265.638 48.9841 263.972L43.6563 257.006C40.219 252.251 36.5753 247.466 33.0693 242.681C26.1946 233.111 19.5147 223.379 13.0296 213.485C13.8937 212.619 14.8619 211.837 15.917 211.153L15.917 211.275ZM17.3607 256.703C11.2727 252.808 6.75643 247.301 4.47067 240.985C3.4256 237.504 3.28458 233.86 4.05815 230.324C4.60812 231.596 5.26121 232.868 5.87993 234.08C6.94551 236.139 8.1142 238.138 9.31727 240.137C11.8666 244.031 14.7997 247.72 18.0825 251.161C23.035 256.489 28.8218 261.169 35.2691 265.062C28.8374 263.029 22.7977 260.138 17.3607 256.491L17.3607 256.703ZM40.2533 266.577C32.5181 262.031 25.5713 256.523 19.6293 250.222C16.4589 246.769 13.6517 243.069 11.2422 239.168C10.0392 237.29 8.9392 235.322 7.80488 233.353C6.67056 231.384 6.0518 229.083 4.91748 227.114L5.46747 225.448C12.5041 240.954 24.2546 254.451 39.4283 264.457C41.3189 265.698 43.2781 266.879 45.2717 268C43.5874 267.334 41.9032 266.849 40.2533 266.365L40.2533 266.577ZM46.1311 266.879C43.6521 265.482 41.2544 263.976 38.9471 262.367C24.164 252.222 12.9874 238.56 6.73927 222.995L6.73927 222.813C7.32245 221.564 7.97639 220.341 8.69857 219.149C9.48598 217.834 10.3941 216.578 11.414 215.393C18.0137 224.843 24.6478 234.292 31.4537 243.62C34.891 248.526 38.6033 253.372 42.2813 258.218L47.6092 265.153C48.6748 266.546 49.7747 268.182 51.0465 269.393C49.2248 268.212 47.6091 267.546 46.1311 266.667L46.1311 266.879ZM31.2818 320.334C31.8625 319.669 32.5451 319.078 33.3099 318.577C34.9956 317.643 36.9085 317.074 38.892 316.916C40.8755 316.758 42.8733 317.016 44.7219 317.669C51.7684 319.849 56.7181 325.816 60.671 331.297C56.7124 327.849 52.0467 325.095 46.9217 323.181C43.4842 321.866 39.8678 320.95 36.1629 320.455C34.5616 320.143 32.9185 320.031 31.2818 320.122L31.2818 320.334ZM28.5664 325.785C28.7062 325.01 28.9366 324.248 29.2538 323.514C30.3276 323.013 31.4897 322.675 32.6911 322.515C34.2804 322.448 35.8729 322.55 37.4347 322.817C40.8211 323.34 44.1224 324.225 47.2655 325.452C49.918 326.497 52.4311 327.797 54.7588 329.329C54.5573 329.264 54.3505 329.214 54.1401 329.177C50.444 328.146 46.5634 327.725 42.6937 327.936C39.0193 327.83 35.4269 328.906 32.588 330.964C31.725 331.817 31.153 332.867 30.9381 333.993C28.9212 331.571 28.069 328.546 28.5664 325.573L28.5664 325.785ZM39.7377 339.293C37.1654 338.644 34.8077 337.46 32.863 335.84C32.6326 335.388 32.5134 334.898 32.5134 334.402C32.5134 333.906 32.6326 333.416 32.863 332.963C33.2249 332.375 33.7147 331.856 34.3045 331.435C34.8944 331.014 35.5725 330.7 36.3004 330.51C39.3342 329.685 42.5235 329.396 45.6843 329.662C48.7447 329.84 51.7573 330.421 54.6213 331.388C56.049 331.848 57.4291 332.416 58.7461 333.084C59.3015 333.352 59.8407 333.646 60.3617 333.963C57.7171 336.317 54.4377 338.041 50.8305 338.973C47.2232 339.905 43.4064 340.015 39.7377 339.293ZM112.884 342.745C112.884 344.563 113.468 346.471 113.537 348.318C113.57 350.352 113.351 352.383 112.884 354.375C111.909 358.437 109.873 362.243 106.938 365.49C101.597 371.155 93.9683 374.771 85.6604 375.575C90.3008 370.245 96.2131 365.854 101.3 360.856C104.426 357.933 106.909 354.524 108.622 350.802C110.001 347.862 110.532 344.668 110.169 341.504C111.186 341.788 112.148 342.207 113.022 342.745L112.884 342.745ZM106.491 341.383C106.766 341.383 107.041 341.383 107.281 341.383C107.488 342.892 107.488 344.417 107.281 345.926C106.948 347.911 106.276 349.841 105.288 351.65C103.2 355.335 100.436 358.692 97.1068 361.583C93.4632 364.945 89.4416 368.186 86.1761 371.85C88.5676 366.874 91.2759 362.021 94.2881 357.313C96.3162 354.284 98.4817 351.256 100.819 348.227C101.953 346.774 103.122 345.35 104.256 343.927C105.158 343.164 105.954 342.31 106.628 341.383L106.491 341.383ZM86.8635 362.583C88.3176 358.065 90.4199 353.73 93.1195 349.681C95.343 346.349 98.7145 343.729 102.744 342.2L102.331 342.685C101.163 344.108 99.9941 345.562 98.8942 347.016C96.6255 350.044 94.5288 353.073 92.5695 356.283C88.6275 362.499 85.4803 369.081 83.1856 375.909C82.8419 375.909 82.7388 376.211 82.8419 376.454C82.6841 376.676 82.5462 376.909 82.4294 377.15C83.6591 372.197 85.1851 367.304 87.001 362.492L86.8635 362.583ZM83.9417 377.726L84.7668 376.757C89.2942 376.75 93.7648 375.867 97.8629 374.172C101.961 372.476 105.587 370.009 108.484 366.944C111.588 363.613 113.776 359.695 114.878 355.496C115.467 353.323 115.767 351.097 115.771 348.863C115.806 347.487 115.726 346.11 115.531 344.744C116.033 345.311 116.471 345.919 116.837 346.562C120.893 353.951 117.8 363.249 111.956 369.185C108.412 372.455 104.035 374.935 99.1877 376.42C94.3404 377.905 89.1616 378.353 84.0793 377.726L83.9417 377.726ZM141.723 210.669C142.067 212.668 142.617 214.697 142.789 216.726C142.99 219.32 142.932 221.924 142.617 224.51C141.947 229.712 140.261 234.774 137.633 239.471C134.914 244.346 131.156 248.716 126.565 252.342C122.029 255.714 117.29 258.869 112.369 261.791C107.936 264.381 103.874 267.432 100.269 270.877C104.042 262.898 108.645 255.243 114.018 248.011C117.415 243.62 121.123 239.422 125.121 235.443C129.311 231.615 132.99 227.378 136.086 222.813C138.778 218.644 139.908 213.832 139.317 209.064C140.159 209.551 140.963 210.088 141.723 210.669ZM136.258 207.64C139.077 218.543 129.383 227.235 121.959 234.898C114.393 242.534 108.023 251.029 103.019 260.156C101.305 263.371 99.8238 266.679 98.5848 270.059C98.8873 261.254 100.482 252.519 103.328 244.074C106.613 234.687 111.643 225.844 118.212 217.907C119.999 215.757 121.89 213.667 123.884 211.668C125.877 209.669 127.94 208.125 129.796 206.247C132.034 206.489 134.215 207.04 136.258 207.883L136.258 207.64ZM95.9381 253.887C96.2874 244.835 98.5124 235.915 102.503 227.568C105.941 220.421 110.65 212.759 118.315 208.549C120.653 207.248 123.299 206.439 126.049 206.187C125.018 207.125 124.021 208.095 123.093 209.003C121.099 210.941 119.243 212.91 117.456 215.06C114.056 219.056 111.032 223.29 108.416 227.72C103.186 236.599 99.6991 246.193 98.1036 256.098C97.1822 261.674 97.0321 267.328 97.6568 272.937L97.6568 273.361C96.5765 266.993 96.0022 260.567 95.9381 254.129L95.9381 253.887ZM98.7567 273.997C107.075 265.395 118.831 260.792 128.318 253.372C134.009 248.838 138.499 243.256 141.469 237.023C144.44 230.789 145.817 224.056 145.504 217.301C145.504 216.06 145.504 214.727 145.195 213.425C146.385 214.591 147.455 215.847 148.392 217.18L148.392 217.665C148.632 219.209 148.839 220.693 148.942 222.268C149.437 230.937 147.188 239.556 142.445 247.163C136.58 256.4 127.317 263.6 116.184 267.576C110.409 269.605 103.981 270.605 99.1692 274.239C99.0661 274.269 98.8942 274.269 98.7567 274.269L98.7567 273.997ZM100.441 274.814C105.762 272.489 111.321 270.613 117.043 269.211C125.751 266.23 133.436 261.318 139.356 254.951C145.276 248.583 149.229 240.977 150.832 232.868C151.444 229.637 151.698 226.361 151.589 223.086L151.589 222.813C152.47 224.792 153.216 226.814 153.823 228.871C153.823 229.991 153.823 231.082 153.823 232.172C153.62 234.579 153.206 236.968 152.585 239.319C150.737 246.364 147.123 252.956 142.008 258.61C136.893 264.265 130.407 268.839 123.024 271.998C117.991 274.119 112.681 275.685 107.213 276.662C104.874 276.442 102.589 275.9 100.441 275.057L100.441 274.814ZM153.995 241.924C154.693 239.737 155.221 237.511 155.576 235.261C157.26 242.318 158.257 250.04 154.751 256.673C150.42 264.82 139.248 268.999 130.483 272.513C125.085 274.824 119.268 276.28 113.297 276.813C122.928 274.68 131.755 270.358 138.897 264.278C146.039 258.198 151.245 250.574 153.995 242.166L153.995 241.924ZM130.311 100.156C130.294 100.266 130.294 100.378 130.311 100.489C131.841 106.448 131.658 112.649 129.779 118.53C127.9 124.411 124.385 129.785 119.553 134.167C115.075 137.838 110 140.9 104.497 143.252C102.061 144.393 99.7584 145.742 97.6224 147.281C98.9081 143.628 100.722 140.137 103.019 136.893C106.113 132.622 109.894 128.685 113.331 124.778C119.862 117.479 126.496 109.06 127.08 99.4894C128.202 99.6505 129.291 99.9566 130.311 100.398L130.311 100.156ZM94.0475 149.703C95.6908 141.256 98.1871 132.955 101.507 124.899C104.247 118.387 108.057 112.265 112.815 106.728C114.928 103.945 117.8 101.675 121.168 100.125C122.31 99.6959 123.536 99.4695 124.777 99.4591C123.918 109.393 117.009 117.631 110.203 125.323C106.599 129.147 103.313 133.196 100.372 137.438C97.7589 141.063 96.0267 145.126 95.285 149.37L94.8725 149.764C94.6075 149.684 94.3239 149.663 94.0475 149.703ZM96.9693 150.158C102.675 145.463 110.512 143.404 116.803 139.224C123.27 134.96 128.222 129.159 131.077 122.501C133.933 115.844 134.573 108.607 132.924 101.64C133.336 101.912 133.68 102.215 134.058 102.518C134.608 104.456 135.536 106.364 136.052 108.303C136.674 110.775 137.076 113.286 137.255 115.813C137.636 120.855 136.913 125.914 135.124 130.714C133.57 135.112 130.876 139.131 127.255 142.454C123.633 145.776 119.184 148.31 114.259 149.855C108.657 151.478 102.627 151.563 96.9693 150.097L96.9693 150.158ZM126.771 145.887C131.046 142.427 134.443 138.21 136.742 133.513C139.04 128.816 140.187 123.744 140.108 118.63C140.107 115.479 139.762 112.335 139.077 109.241L138.802 107.939C140.986 111.575 142.374 115.541 142.892 119.63C143.829 126.423 142.301 133.304 138.527 139.285C134.563 145.51 128.411 150.431 120.996 153.307C113.365 156.336 103.638 156.639 97.2443 151.49C102.294 152.899 107.673 153.124 112.852 152.141C118.03 151.158 122.827 149.003 126.771 145.887ZM90.5759 20.2918C92.782 15.3363 96.1831 10.8619 100.544 7.17801C102.38 5.76203 104.487 4.64433 106.766 3.87686C100.972 11.9654 97.1661 21.0341 95.5943 30.4981C93.5774 40.8298 93.6939 51.3974 95.9381 61.6926C96.7516 65.3369 97.8425 68.9288 99.2035 72.444C92.4568 65.2929 88.0813 56.6398 86.559 47.4379C85.0367 38.2359 86.4267 28.8423 90.5759 20.2918ZM101.747 18.1112C103.861 13.0442 106.305 8.0892 109.069 3.27109C109.149 3.28103 109.229 3.28103 109.309 3.27109C111.539 9.23226 112.484 15.5086 112.094 21.7758C111.568 28.1209 110.418 34.4136 108.656 40.5833C106.869 47.125 104.841 53.6365 103.535 60.2691C102.605 64.8138 102.271 69.4375 102.538 74.0493C94.8977 56.0586 94.5698 36.291 101.61 18.1112L101.747 18.1112ZM117.112 3.72544C122.612 5.78488 125.121 11.1152 126.015 15.8398C126.913 21.2235 127.109 26.6802 126.599 32.1033C126.213 37.9254 125.059 43.688 123.162 49.2753C121.543 53.5948 119.495 57.7804 117.043 61.7835C116.797 61.8157 116.56 61.8913 116.348 62.0057C116.135 62.1202 115.951 62.2712 115.806 62.4497C114.19 64.2972 112.643 66.1749 111.131 68.1132C119.401 52.7266 122.865 35.6757 121.168 18.7169C120.507 13.5534 119.181 8.47295 117.215 3.57395L117.112 3.72544ZM114.19 3.05918C119.096 15.294 120.351 28.4343 117.834 41.2193C115.172 53.4136 110.699 65.2461 104.531 76.4116C104.05 56.3926 115.393 37.5851 115.187 17.5358C115.273 12.554 114.342 7.59902 112.437 2.90769C113.024 2.92811 113.61 2.97874 114.19 3.05918Z" fill="#94AE94"/>
</svg>
