<svg width="822" height="983" viewBox="0 0 822 983" fill="none" xmlns="http://www.w3.org/2000/svg">
<path d="M701.785 500.216C699.433 499.369 697.013 498.721 694.552 498.281C691.754 497.687 688.932 497.192 686.086 496.793C675.971 495.385 665.725 495.173 655.56 496.162C662.919 494.06 670.195 491.712 677.388 489.117C681.217 487.729 684.947 486.152 688.651 484.462C690.04 483.853 689.109 481.46 687.64 481.96C675.883 485.955 664.233 490.015 652.345 493.433C663.467 485.652 672.713 475.487 679.408 463.679C681.328 460.333 682.956 456.023 680.443 452.468C678.26 449.426 674.366 449.829 671.414 451.432C667.828 453.379 664.707 456.576 661.904 459.495C658.88 462.648 656.144 466.064 653.728 469.702C651.097 473.707 648.829 477.938 646.952 482.346C646.008 484.532 645.174 486.764 644.455 489.034C643.632 491.237 643.103 493.538 642.884 495.879C641.982 496.108 641.104 496.364 640.193 496.59C630.673 498.891 621.045 500.739 611.361 502.233C622.189 496.345 631.454 487.956 638.386 477.764C640.324 474.959 643.161 471.336 642.266 467.706C641.296 463.78 636.684 463.042 633.408 464.343C631.507 465.201 629.713 466.276 628.06 467.547C626.37 468.743 624.716 470.023 623.12 471.353C612.797 479.929 604.971 491.122 600.46 503.762C597.076 504.179 593.688 504.574 590.284 504.89C583.721 505.496 577.143 505.918 570.549 506.157C574.372 504.56 578.02 502.569 581.432 500.218C587.762 495.917 593.227 490.464 597.54 484.143C599.608 481.095 602.213 477.441 602.635 473.694C603.007 470.402 601.045 466.896 597.449 466.889C593.853 466.882 590.352 470.116 587.678 472.363C576.846 481.351 568.455 492.925 563.282 506.015C563.23 506.124 563.194 506.24 563.173 506.359C548.478 506.601 533.783 505.92 519.173 504.321C524.146 502.397 528.857 499.855 533.194 496.753C539.813 492.126 545.55 486.352 550.136 479.705C552.405 476.385 555.099 472.487 554.087 468.264C553.154 464.422 549.452 463.029 545.89 463.841C541.871 464.739 538.246 467.44 535.05 469.847C524.103 478.229 516.034 489.808 511.961 502.98C511.887 502.951 511.81 502.927 511.733 502.907C508.962 502.39 506.147 502.148 503.328 502.185C499.015 501.517 494.71 500.758 490.413 499.906C481.064 498.07 471.811 495.868 462.651 493.301C469.193 491.72 475.48 489.223 481.324 485.886C488.911 481.708 495.821 476.403 501.815 470.151C504.509 467.343 508.589 463.14 505.067 459.327C501.984 456.011 497.058 457.324 493.256 458.364C484.835 460.721 477.012 464.838 470.302 470.445C463.592 476.051 458.149 483.018 454.333 490.885C439.719 486.485 425.34 481.278 411.19 475.514C428.849 472.424 447.168 467.152 460.04 454.206C462.243 451.987 465.836 448.363 464.42 444.852C462.729 440.655 456.231 442.855 453.048 443.566C439.749 446.572 427.517 453.134 417.658 462.552C415.856 464.268 414.153 466.067 412.527 467.954C410.901 469.841 408.995 471.618 408.112 473.972C408.076 474.051 408.05 474.134 408.034 474.22C399.817 470.819 391.673 467.245 383.601 463.498C373.134 458.659 362.777 453.573 352.481 448.391C363.283 449.558 374.509 448.395 385.029 446.117C397.119 443.561 408.757 439.2 419.55 433.181C423.774 430.806 430.646 426.04 426.931 420.383C424.031 415.96 417.11 416.484 412.558 416.646C401.004 417.131 389.632 419.704 378.995 424.242C372.99 426.769 367.25 429.887 361.863 433.551C356.607 437.208 351.696 441.336 347.191 445.885C329.867 437.028 312.716 427.827 295.536 418.679C303.302 419.746 311.175 419.772 318.947 418.755C328.404 417.682 337.677 415.365 346.527 411.865C348.706 411.039 350.84 410.097 352.918 409.044C354.697 408.097 356.556 406.735 357.072 404.675C357.263 403.784 357.208 402.859 356.911 401.997C356.615 401.136 356.089 400.372 355.39 399.788C353.684 398.251 351.368 397.947 349.163 397.92C338.878 397.678 328.604 398.766 318.597 401.157C308.333 403.661 298.803 408.547 290.779 415.42C290.624 415.548 290.501 415.71 290.419 415.893C287.464 414.327 284.512 412.752 281.544 411.193C271.405 405.881 261.228 400.558 250.983 395.381C254.442 395.355 257.906 395.152 261.343 394.898C266.478 394.519 271.599 393.991 276.709 393.317C281.818 392.642 286.829 391.835 291.743 390.895C296.111 390.213 300.418 389.178 304.619 387.801C308.799 386.261 312.656 383.791 314.686 379.703C314.76 379.534 314.795 379.349 314.788 379.164C314.781 378.978 314.732 378.797 314.644 378.634C314.556 378.471 314.432 378.329 314.282 378.221C314.131 378.113 313.958 378.04 313.775 378.009C295.929 375.461 277.727 378.168 261.394 385.799C256.815 387.964 252.411 390.482 248.223 393.332C248.047 393.446 247.9 393.601 247.797 393.784C242.749 391.262 237.688 388.783 232.613 386.35C237.501 385.591 242.414 383.162 246.57 380.839C251.659 377.953 256.236 374.246 260.117 369.869C261.507 368.295 263.132 365.883 261.581 363.86C260.029 361.837 257.008 362.6 254.973 363.193C249.592 364.793 244.578 367.435 240.215 370.968C237.738 372.955 235.484 375.206 233.493 377.681C231.805 379.884 230.271 382.202 228.903 384.618C212.347 376.78 195.537 369.481 178.324 363.219C173.934 361.625 169.525 360.091 165.096 358.617C164.372 358.388 164.097 359.486 164.794 359.738C180.489 365.426 195.867 371.883 211.046 378.802C210.872 379.068 210.811 379.392 210.876 379.702C210.573 382.888 210.691 386.1 211.226 389.255C211.707 393.007 212.458 396.72 213.475 400.363C215.474 407.781 218.616 414.843 222.787 421.294C224.703 424.22 227.672 426.933 231.422 425.793C232.939 425.246 234.267 424.277 235.25 422.999C236.233 421.721 236.83 420.188 236.969 418.582C237.4 414.774 236.005 410.933 234.681 407.366C233.346 403.883 231.73 400.515 229.847 397.296C226.34 391.315 221.902 385.932 216.7 381.349C220.633 383.172 224.548 385.053 228.46 386.943C228.685 387.15 228.969 387.284 229.272 387.326C236 390.591 242.693 393.922 249.351 397.319C248.628 402.912 249.375 408.929 250.237 414.384C250.795 417.594 251.54 420.769 252.469 423.892C253.278 426.635 254.043 429.752 255.578 432.221C256.845 434.217 259.482 435.661 261.746 434.343C264.009 433.025 264.396 429.886 264.699 427.538C265.348 422.189 264.712 416.762 262.845 411.708C261.43 407.859 259.342 404.292 256.679 401.173C261.263 403.548 265.843 405.944 270.42 408.36L272.805 409.64C270.706 418.017 271.665 426.808 273.232 435.203C274.053 439.597 275.073 443.959 276.134 448.292C277.076 452.104 278.39 456.234 281.625 458.738C284.43 460.907 288.352 461.741 291.476 459.762C294.599 457.783 295.629 453.641 295.795 450.137C296.06 442.688 294.536 435.284 291.35 428.546C288.788 423.04 285.205 418.071 280.791 413.902C294.365 421.183 307.903 428.546 321.503 435.815C321.488 435.862 321.479 435.891 321.464 435.938C320.536 444.162 322.325 452.817 324.467 460.724C325.585 464.875 326.945 468.957 328.381 473C329.688 476.687 331.139 480.483 333.989 483.274C336.296 485.526 339.838 486.995 343.079 486.301C346.32 485.608 348.632 482.617 349.289 479.353C350.102 475.362 348.664 471.392 347.168 467.771C345.616 464.059 343.84 460.445 341.849 456.948C338.057 450.455 333.399 444.507 328.003 439.27C342.373 446.887 356.719 454.318 371.344 461.396C371.277 461.51 371.236 461.637 371.226 461.768C371.249 471.626 373.372 481.708 376.197 491.1C377.551 495.763 379.228 500.326 381.216 504.755C383.082 508.797 385.415 512.789 388.933 515.592C392.075 518.057 396.244 519.567 400.212 518.432C404.47 517.212 406.311 513.022 406.313 508.911C406.31 504.452 404.534 500.06 402.839 496.008C401.123 491.871 399.063 487.885 396.681 484.091C393.989 479.861 390.916 475.885 387.501 472.213C385.746 470.335 383.907 468.525 381.981 466.824L381.167 466.083C388.969 469.731 396.836 473.231 404.767 476.583C404.826 476.608 404.886 476.627 404.948 476.641C416.055 481.314 427.277 485.626 438.635 489.509C439.574 493.593 441.122 497.514 443.226 501.139C445.26 504.903 447.642 508.468 450.342 511.786C453.064 515.137 456.074 518.243 459.338 521.068C462.716 524.157 466.595 526.649 470.808 528.437C474.74 529.966 479.341 530.606 483.274 528.821C486.731 527.283 489.219 524.033 488.509 520.115C487.799 516.198 484.608 512.994 481.851 510.306C478.606 507.202 475.032 504.462 471.192 502.134C467.315 499.775 463.281 497.683 459.119 495.874C465.849 497.808 472.545 499.552 479.336 501.096C484.854 502.355 490.392 503.47 495.952 504.442C498.243 508.859 501.061 512.982 504.344 516.721C507.788 520.791 511.64 524.497 515.84 527.78C524.755 534.848 535.339 539.502 546.573 541.296C551.109 541.978 556.486 542.654 560.753 540.545C561.684 540.124 562.511 539.504 563.177 538.729C563.843 537.955 564.331 537.043 564.608 536.06C564.82 534.985 564.802 533.877 564.554 532.809C564.306 531.742 563.835 530.739 563.172 529.866C561.697 527.89 559.978 526.108 558.055 524.563C555.983 522.759 553.834 521.054 551.609 519.447C547.171 516.247 542.461 513.442 537.534 511.063C535.996 510.324 534.43 509.638 532.854 508.982C543.454 509.729 554.093 509.954 564.723 509.745C572.083 516.147 580.93 520.934 589.898 524.678C594.426 526.567 599.065 528.178 603.79 529.5C608.535 530.976 613.408 532.001 618.346 532.56C622.238 532.892 626.909 531.823 628.566 527.816C630.001 524.348 627.881 521.074 625.178 518.98C621.809 516.37 617.492 514.666 613.534 513.087C609.049 511.302 604.433 509.864 599.728 508.785C598.135 508.417 596.533 508.108 594.923 507.829C597.092 507.604 599.258 507.388 601.44 507.125C601.513 507.125 601.587 507.117 601.658 507.099C609.692 506.11 617.7 504.84 625.662 503.283C636.13 509.443 648.092 513.339 659.92 515.87C665.986 517.179 672.133 518.076 678.319 518.554C683.822 518.965 689.517 519.301 694.97 518.281C699.719 517.395 705.813 515.245 707.755 510.343C709.697 505.44 705.918 501.872 701.785 500.216ZM238.883 374.742C242.422 371.32 246.541 368.555 251.048 366.575C253.201 365.642 255.711 364.507 258.049 364.346C259.73 364.239 260.909 365.252 260.073 366.896C259.462 367.95 258.695 368.906 257.8 369.732C254.324 373.434 250.333 376.618 245.951 379.184C243.533 380.608 241.002 381.83 238.383 382.839C235.984 383.789 233.454 384.424 231.013 385.308C232.964 381.332 235.632 377.75 238.883 374.742ZM262.599 423.274C262.678 425.633 262.418 427.992 261.827 430.278C261.486 431.355 260.921 432.708 259.549 432.503C258.176 432.299 257.319 430.8 256.805 429.609C254.67 424.491 253.122 419.148 252.191 413.681C251.641 410.734 251.257 407.758 251.04 404.767C250.895 402.875 250.829 400.966 250.75 399.063C254.388 401.975 257.337 405.656 259.386 409.842C261.434 414.027 262.532 418.614 262.599 423.274ZM314.484 404.669C323.301 401.84 332.582 400.722 341.808 400.31C344.061 400.216 346.334 400.128 348.598 400.133C350.863 400.137 353.773 400.356 354.681 402.721C355.589 405.086 352.685 406.568 351.008 407.358C349.048 408.279 347.033 409.109 345.015 409.886C337.003 412.974 328.653 415.1 320.14 416.217C315.356 416.808 310.542 417.111 305.722 417.124C301.438 417.172 297.157 416.875 292.878 416.641C298.827 410.942 306.734 407.112 314.496 404.631L314.484 404.669ZM337.469 453.788C339.589 456.823 341.536 459.975 343.299 463.23C345.13 466.439 346.558 469.861 347.549 473.42C348.412 476.956 348.018 481.541 344.506 483.554C341.618 485.219 337.944 484.003 335.591 481.893C332.763 479.329 331.451 475.494 330.2 471.992C328.95 468.491 327.809 464.94 326.761 461.461C325.579 457.332 324.65 453.135 323.978 448.893C323.417 445.088 323.059 441.256 322.906 437.413C328.423 442.233 333.319 447.721 337.481 453.75L337.469 453.788ZM413.006 470.613C414.213 469.051 415.514 467.565 416.902 466.162C419.734 463.221 422.81 460.525 426.097 458.103C432.573 453.324 439.79 449.64 447.459 447.197C451.355 445.823 455.406 444.936 459.52 444.558C462.191 444.407 463.128 446.016 462.153 448.298C461.245 450.039 460.022 451.597 458.547 452.893C452.368 459.149 444.575 463.582 436.457 466.821C428.041 470.206 419.139 472.148 410.301 474.183C411.296 473.03 412.09 471.781 413.018 470.575L413.006 470.613ZM464.876 501.276C471.937 505.013 479.191 509.862 484.025 516.355C486.326 519.424 487.345 523.491 483.592 525.9C480.274 527.996 475.874 527.546 472.335 526.235C468.376 524.607 464.724 522.315 461.538 519.457C458.525 516.928 455.731 514.147 453.188 511.146C450.375 507.818 447.85 504.256 445.642 500.499C443.644 497.107 442.091 493.531 440.316 490.031C440.668 490.143 441.031 490.257 441.393 490.372C441.346 490.499 441.325 490.635 441.331 490.77C441.338 490.906 441.372 491.038 441.431 491.16C441.491 491.282 441.574 491.391 441.677 491.479C441.78 491.568 441.9 491.634 442.029 491.675C449.8 494.495 457.579 497.358 464.888 501.238L464.876 501.276ZM541.402 467.874C544.254 466.092 550.01 463.52 551.866 467.958C553.521 471.84 550.144 476.204 548.016 479.211C543.867 485.109 538.778 490.287 532.953 494.537C527.511 498.34 521.598 501.42 515.362 503.701L514.186 503.475C518.686 488.723 528.347 476.085 541.402 467.874ZM565.873 505.85C568.632 498.967 572.311 492.489 576.811 486.595C581.378 480.429 586.894 475.024 593.152 470.584C594.492 469.665 596.301 468.623 598.014 468.977C599.978 469.4 600.707 471.603 600.493 473.403C600.125 475.229 599.413 476.969 598.396 478.529C597.518 480.108 596.573 481.633 595.546 483.123C591.589 488.822 586.684 493.8 581.042 497.839C577.903 500.089 574.562 502.043 571.062 503.677C569.364 504.502 567.625 505.189 565.873 505.85ZM618.646 518.074C621.37 519.409 625.453 521.155 626.353 524.408C626.545 525.304 626.433 526.238 626.033 527.062C625.633 527.885 624.969 528.552 624.146 528.954C622.272 529.86 620.157 530.142 618.111 529.759C609.232 528.562 600.55 526.195 592.291 522.72C583.656 519.249 575.687 514.604 567.825 509.721C571.831 509.592 575.837 509.41 579.841 509.176C580.707 509.125 581.585 509.036 582.46 508.956C595.012 509.464 607.323 512.566 618.617 518.065L618.646 518.074ZM645.421 495.288C645.865 493.887 646.096 492.429 646.467 490.994C646.966 489.054 647.579 487.087 648.307 485.188C649.597 481.625 651.185 478.177 653.052 474.88C656.931 467.971 661.935 461.757 667.859 456.494C670.156 454.474 674.098 450.709 677.459 452.351C681.779 454.475 678.885 460.397 677.235 463.221C673.41 469.736 668.809 475.764 663.532 481.17C658.535 486.222 653.07 490.787 647.21 494.806L645.421 495.288Z" fill="#94AE94"/>
<path d="M366.037 372.448C358.847 370.043 351.226 373.471 344.556 376.046C337.082 378.952 329.787 382.297 322.709 386.064C322.451 386.183 322.242 386.387 322.117 386.642C321.992 386.897 321.96 387.187 322.024 387.463C322.013 387.579 322.029 387.695 322.072 387.803C322.114 387.911 322.181 388.008 322.268 388.086C322.419 388.356 322.64 388.582 322.907 388.738C323.175 388.895 323.479 388.977 323.789 388.977C325.477 388.882 327.157 388.733 328.83 388.529C330.945 388.475 332.992 388.274 335.057 388.047C339.219 387.575 343.341 386.802 347.391 385.736C351.397 384.793 355.314 383.507 359.099 381.893C362.404 380.402 365.639 378.206 366.831 374.608C367.104 373.845 366.984 372.769 366.037 372.448Z" fill="#94AE94"/>
<path d="M433.255 527.372C434.591 521.9 431.581 516.467 429.268 511.685C426.671 506.336 423.763 501.145 420.558 496.137C420.451 495.955 420.286 495.814 420.089 495.738C419.892 495.662 419.675 495.656 419.473 495.72C419.386 495.717 419.299 495.737 419.221 495.776C419.142 495.815 419.075 495.873 419.024 495.945C418.833 496.071 418.679 496.247 418.58 496.454C418.481 496.661 418.441 496.892 418.463 497.12C418.634 498.37 418.842 499.6 419.103 500.827C419.278 502.361 419.547 503.894 419.845 505.405C420.45 508.459 421.274 511.465 422.313 514.4C423.257 517.319 424.447 520.153 425.87 522.871C427.218 525.239 429.003 527.483 431.742 528.141C432.288 528.241 433.079 528.061 433.255 527.372Z" fill="#94AE94"/>
<path d="M528.673 452.762C523.155 453.888 519.523 458.926 516.198 463.065C512.474 467.712 509.028 472.574 505.876 477.627C505.756 477.8 505.698 478.008 505.711 478.218C505.725 478.428 505.809 478.627 505.95 478.783C505.986 478.863 506.041 478.933 506.11 478.986C506.179 479.039 506.261 479.074 506.347 479.087C506.543 479.207 506.768 479.272 506.998 479.274C507.228 479.277 507.454 479.218 507.654 479.103C508.718 478.391 509.735 477.664 510.733 476.932C512.043 476.109 513.314 475.211 514.556 474.304C517.06 472.449 519.426 470.415 521.635 468.218C523.862 466.122 525.905 463.839 527.742 461.394C529.306 459.204 530.567 456.583 530.002 453.833C529.964 453.517 529.804 453.227 529.556 453.027C529.307 452.826 528.991 452.731 528.673 452.762Z" fill="#94AE94"/>
<path d="M701.528 449.456C696.007 450.592 692.388 455.623 689.05 459.769C685.329 464.418 681.883 469.28 678.728 474.331C678.608 474.503 678.55 474.712 678.566 474.921C678.582 475.131 678.67 475.329 678.815 475.481C678.847 475.561 678.9 475.631 678.967 475.686C679.034 475.74 679.114 475.776 679.199 475.791C679.399 475.909 679.626 475.972 679.857 475.974C680.089 475.975 680.317 475.916 680.518 475.8C681.573 475.086 682.6 474.362 683.588 473.626C684.895 472.813 686.223 471.933 687.42 471.001C689.919 469.148 692.281 467.116 694.487 464.922C696.713 462.825 698.756 460.542 700.594 458.098C702.171 455.902 703.419 453.287 702.857 450.528C702.814 450.213 702.653 449.927 702.406 449.727C702.159 449.528 701.845 449.431 701.528 449.456Z" fill="#94AE94"/>
<path d="M658.15 529.964C655.759 524.863 650.019 522.519 645.21 520.251C639.828 517.718 634.302 515.504 628.659 513.621C628.463 513.546 628.247 513.54 628.048 513.605C627.848 513.669 627.676 513.8 627.561 513.976C627.492 514.027 627.436 514.095 627.4 514.174C627.365 514.252 627.349 514.339 627.356 514.425C627.286 514.644 627.275 514.878 627.326 515.102C627.376 515.327 627.486 515.533 627.644 515.701C628.558 516.557 629.5 517.391 630.467 518.18C631.568 519.274 632.744 520.297 633.919 521.288C636.304 523.29 638.832 525.115 641.483 526.748C644.044 528.421 646.742 529.873 649.549 531.088C652.047 532.11 654.877 532.713 657.436 531.489C657.727 531.373 657.963 531.151 658.095 530.868C658.228 530.584 658.248 530.261 658.15 529.964Z" fill="#94AE94"/>
<path d="M239.658 350.052C237.414 349.121 235.31 350.332 233.479 351.608C231.304 353.112 229.266 354.804 227.387 356.664C223.663 360.398 220.634 364.767 218.442 369.564C218.333 369.848 218.317 370.159 218.395 370.453C218.474 370.747 218.644 371.008 218.88 371.199C219.116 371.391 219.407 371.502 219.711 371.518C220.015 371.534 220.316 371.454 220.571 371.288C220.864 371.056 221.136 370.796 221.445 370.516C225.448 368.524 229.136 365.953 232.391 362.886C235.887 359.776 238.569 355.858 240.204 351.473C240.304 351.211 240.304 350.92 240.203 350.658C240.102 350.396 239.908 350.18 239.658 350.052Z" fill="#94AE94"/>
<path d="M311.781 457.952C312.386 455.878 312.893 453.783 313.32 451.673C313.818 449.24 314.184 446.796 314.441 444.329C314.566 443.141 314.662 441.944 314.726 440.748C314.8 440.252 314.804 439.748 314.739 439.252C314.587 438.574 313.997 438.282 313.473 437.917C313.306 437.779 313.11 437.68 312.899 437.63C312.688 437.579 312.469 437.578 312.257 437.625C312.046 437.673 311.848 437.768 311.679 437.903C311.51 438.039 311.374 438.212 311.282 438.408L311.161 438.789C308.91 441.779 307.225 445.156 306.189 448.753C304.92 452.656 304.316 456.744 304.402 460.848C304.467 462.232 304.974 463.841 306.334 464.45C306.987 464.694 307.706 464.695 308.36 464.454C309.014 464.213 309.56 463.745 309.898 463.135C310.773 461.508 311.408 459.762 311.781 457.952Z" fill="#94AE94"/>
<path d="M418.379 446.573C418.455 444.415 416.124 443.76 414.427 443.852C409.331 444.282 404.313 445.379 399.503 447.116C394.022 448.942 388.758 451.365 383.807 454.342C382.741 454.99 383.428 456.928 384.661 456.711L385.147 456.602C394.897 457.878 405.143 455.47 413.779 450.895C415.467 449.972 418.293 448.833 418.379 446.573Z" fill="#94AE94"/>
<path d="M568.214 479.727C567.937 478.845 567.333 478.103 566.526 477.652C565.719 477.201 564.77 477.076 563.874 477.303C561.632 477.757 559.854 479.858 558.232 481.337C556.254 483.143 554.349 485.047 552.545 487.035C548.431 491.619 544.796 496.611 541.697 501.934C541.04 503.047 542.619 504.156 543.567 503.481C544.362 502.925 545.15 502.357 545.949 501.792C554.183 498.755 561.202 493.117 565.944 485.732C567.033 484.084 568.727 481.883 568.214 479.727Z" fill="#94AE94"/>
<path d="M716.561 465.078C716.523 464.629 716.393 464.192 716.178 463.796C715.964 463.399 715.67 463.051 715.315 462.774C714.96 462.496 714.552 462.294 714.115 462.181C713.679 462.068 713.224 462.046 712.779 462.117C710.764 462.484 708.834 463.22 707.087 464.289C705.266 465.209 703.524 466.278 701.878 467.485C698.254 470.209 695.178 473.594 692.81 477.461C692.697 477.631 692.634 477.829 692.629 478.033C692.423 478.419 692.504 478.959 693.055 479.007C693.127 479.014 693.2 479.016 693.273 479.014C693.619 479.223 694.031 479.294 694.427 479.212C694.632 479.161 694.824 479.085 695.029 479.035C701.998 478.925 708.773 475.387 713.561 470.442C714.989 469.08 716.789 467.238 716.561 465.078Z" fill="#94AE94"/>
</svg>
