<svg width="300" height="184" viewBox="0 0 300 184" fill="none" xmlns="http://www.w3.org/2000/svg">
<path d="M215.794 167.191C217.651 167.609 219.721 166.344 220.754 164.829C222.184 162.742 222.357 159.934 221.765 157.455C220.419 151.892 215.714 147.981 210.741 145.841C208.304 144.82 205.777 144.062 203.202 143.58C201.268 141.906 199.298 140.266 197.249 138.735C194.08 136.353 190.753 134.209 187.292 132.317C185.381 131.27 183.414 130.339 181.401 129.53C185.798 128.857 190.185 128.139 194.552 127.324C197.967 126.69 201.372 126.013 204.768 125.294C206.487 124.923 208.203 124.546 209.924 124.152C211.592 123.865 213.217 123.385 214.767 122.72C214.8 132.939 221.919 143.021 231.727 145.87C234.212 146.612 237.133 146.587 239.155 144.808C240.984 143.193 241.288 140.746 240.439 138.43L240.308 138.105C240.421 138.076 240.526 138.024 240.617 137.953C240.708 137.882 240.784 137.792 240.84 137.689C241.38 136.476 241.736 135.18 241.896 133.845C242.118 132.536 242.182 131.197 242.085 129.86C241.922 127.23 240.789 124.728 238.914 122.859C236.959 121.009 234.27 120.437 231.751 120.073C228.957 119.67 226.143 119.5 223.338 119.564C221.762 119.605 220.194 119.712 218.629 119.897C217.213 120.012 215.826 120.326 214.506 120.83C212.998 120.899 211.508 121.145 210.066 121.563C208.511 121.93 206.947 122.281 205.383 122.632C202.36 123.3 199.328 123.931 196.289 124.526C191.751 125.421 187.191 126.213 182.622 126.951C186.84 125.188 190.924 123.128 194.847 120.784C194.957 120.843 195.08 120.873 195.203 120.87C195.326 120.867 195.445 120.832 195.549 120.767C195.653 120.703 195.737 120.611 195.795 120.502C195.852 120.393 195.881 120.269 195.877 120.143C200.35 117.394 204.364 113.952 207.781 109.932C209.443 107.926 211.143 105.553 211.283 102.77C211.413 100.145 210.208 97.5346 207.71 96.4817C204.69 95.2115 201.889 96.2809 199.574 98.1932C199.572 98.1434 199.56 98.0943 199.539 98.0487C199.518 98.0032 199.488 97.9623 199.451 97.9285C199.414 97.8947 199.371 97.8687 199.325 97.8523C199.278 97.8358 199.23 97.8291 199.181 97.8327C199.127 97.8422 199.074 97.8547 199.022 97.8701C196.226 95.135 191.623 96.0511 189.137 98.5193C185.98 101.653 185.685 106.7 186.789 110.946C187.126 112.196 187.553 113.422 188.065 114.614L188.082 114.77C188.262 115.71 188.45 117.042 189.077 117.828C189.142 117.903 189.225 117.96 189.318 117.993C189.41 118.026 189.508 118.033 189.602 118.015C189.908 118.632 190.217 119.241 190.533 119.853C190.631 120.046 190.792 120.2 190.987 120.287C191.182 120.374 191.398 120.388 191.597 120.326L191.617 120.575C191.63 120.656 191.655 120.734 191.691 120.808C187.522 123.289 183.206 125.425 178.883 127.586C178.524 127.64 178.167 127.707 177.804 127.763C177.299 127.84 176.794 127.902 176.291 127.97L176.236 127.957C176.185 127.945 176.133 127.945 176.083 127.956C176.033 127.968 175.986 127.99 175.947 128.023C164.196 129.731 152.329 131.026 140.448 131.695C133.616 132.081 126.769 132.454 119.922 132.625C132.162 125.193 144.136 117.317 155.885 109.111C169.943 99.2913 183.673 89.0037 197.201 78.4518C198.982 78.2555 200.756 78.0201 202.546 77.8908C204.997 77.7187 207.46 77.6892 209.923 77.8025C212.281 77.9066 214.636 78.1312 216.98 78.4755C218.691 78.7291 220.414 79.1924 222.133 79.499C222.138 79.5829 222.129 79.6672 222.142 79.7537C222.194 80.1286 222.32 80.4913 222.513 80.8192C222.706 81.1472 222.961 81.4334 223.263 81.6601C223.604 81.887 223.994 82.0224 224.394 82.0535C224.811 82.0923 225.227 82.0306 225.61 81.8734C225.958 81.7288 226.273 81.5129 226.534 81.2387C226.795 80.9644 226.998 80.6374 227.13 80.2769C227.282 79.8487 227.319 79.3836 227.24 78.9275C227.161 78.4715 226.967 78.0403 226.678 77.6767C226.33 77.2431 225.856 76.9343 225.329 76.7983C224.883 76.6965 224.422 76.7388 224.011 76.9192C223.863 76.9758 223.724 77.0526 223.597 77.1475C223.341 77.2242 223.104 77.3547 222.902 77.531C222.668 77.7465 222.479 78.0079 222.344 78.3006C220.668 77.8746 218.97 77.5584 217.261 77.3539C216.447 77.2331 215.632 77.1488 214.818 77.0645C215.146 76.883 215.5 76.7458 215.835 76.5753C216.897 76.0543 217.953 75.5221 218.984 74.9458C220.433 74.1466 221.808 73.2652 223.174 72.3531C223.428 72.6778 223.766 72.9245 224.147 73.064C224.748 73.2757 225.396 73.2594 225.97 73.0179C226.557 72.7647 227.017 72.2834 227.25 71.6765C227.379 71.3393 227.433 70.9746 227.408 70.6082C227.373 70.2454 227.251 69.8941 227.052 69.5857C226.884 69.3154 226.661 69.085 226.397 68.9118C226.134 68.7386 225.838 68.627 225.531 68.5853C225.189 68.535 224.843 68.59 224.539 68.7433C224.446 68.7963 224.361 68.8604 224.284 68.9342C224.257 68.9321 224.229 68.9327 224.202 68.9362C223.88 68.9823 223.579 69.1135 223.327 69.3168C223.076 69.5202 222.882 69.7889 222.766 70.0964C222.601 70.5614 222.59 71.0737 222.734 71.5567C221.22 72.392 219.684 73.1774 218.124 73.9129C217.101 74.405 216.069 74.8665 215.018 75.3088C214.457 75.5463 213.887 75.7671 213.32 75.9935C213.109 76.043 212.914 76.1448 212.753 76.2902C212.592 76.4356 212.47 76.6201 212.396 76.8278C211.569 76.7718 210.742 76.7018 209.914 76.6822C207.46 76.6181 205.009 76.694 202.572 76.9097C201.19 77.0377 199.795 77.1941 198.415 77.4285C199.958 76.2237 201.501 75.0049 203.058 73.8138C204.297 72.8319 205.534 71.8491 206.767 70.8655C209.29 70.0941 211.729 69.0585 214.181 68.1094C217.148 66.9633 220.134 65.8783 223.133 64.8155C226.131 63.7526 229.043 62.7955 232.023 61.8507C233.51 61.384 234.981 60.9401 236.51 60.4864C237.261 60.2669 238.006 60.0503 238.76 59.8363C238.792 59.8187 238.824 59.8012 238.856 59.7836C240.154 61.6353 242.147 63.14 243.922 64.4258C245.857 65.8269 247.891 67.0759 250.004 68.1614C252.114 69.2537 254.302 70.1696 256.547 70.9C258.76 71.6123 261.126 72.1248 263.4 71.6423C267.451 70.7701 270.25 66.622 268.054 62.5168C267.516 61.5212 266.815 60.6237 265.982 59.8654C267.604 54.9021 265.929 48.0279 260.93 45.6925C258.325 44.4824 255.407 44.801 252.783 45.5132C249.832 46.3321 247.054 47.6576 244.565 49.4341C241.698 51.453 239.254 54.0258 237.363 57.0148C237.206 57.2539 237.141 57.5459 237.18 57.8372C236.709 57.9744 236.232 58.1146 235.764 58.2573C234.271 58.7111 232.781 59.1798 231.294 59.6633C228.277 60.65 225.28 61.7044 222.305 62.8265C219.332 63.9476 216.394 65.1575 213.481 66.4256C212.56 66.8257 211.636 67.2342 210.703 67.6625C223.598 57.4171 236.4 46.9917 248.864 36.2411C250.055 35.2015 251.276 34.1892 252.484 33.1688L252.786 33.1392C252.849 33.2296 252.936 33.299 253.037 33.3377C253.138 33.3765 253.247 33.3827 253.349 33.3556C253.745 33.2454 254.125 33.0935 254.514 32.9582C257.739 32.6747 260.99 32.6416 264.238 32.8591C264.426 33.763 264.775 34.6294 265.267 35.4148C265.774 36.3328 266.344 37.2158 266.915 38.1127C268.009 39.8367 269.168 41.518 270.39 43.1568C272.822 46.42 275.481 49.5031 278.345 52.3808C280.988 55.1551 283.884 57.665 286.991 59.8739C289.441 61.5302 292.589 62.8955 295.368 61.5213C298.465 59.9854 299.377 56.1567 298.713 52.8584C298.507 51.9012 298.219 50.9612 297.855 50.0493C297.973 49.992 298.069 49.8963 298.127 49.7767C298.797 48.2943 299.236 46.7068 299.427 45.0703C299.712 43.4455 299.764 41.7789 299.583 40.1221C299.173 36.8709 297.692 33.648 295.031 31.6465C292.598 29.8217 289.584 29.0752 286.671 28.7493C283.285 28.3602 279.881 28.3996 276.534 28.8666C273.498 29.3387 270.544 30.1935 267.737 31.4118C264.784 31.0825 261.817 31.0292 258.874 31.2523C260.083 30.6717 261.283 30.0746 262.475 29.5252C265.325 28.2054 268.209 26.9239 270.948 25.377C275.698 22.6981 280.106 18.8452 281.346 13.1905C281.89 10.7264 281.65 7.72055 279.686 5.85379C277.985 4.23852 275.606 4.26696 273.587 4.94799C273.364 5.02052 273.157 5.13468 272.938 5.22673C272.977 5.20713 273.012 5.17943 273.039 5.14533C273.067 5.11123 273.088 5.07144 273.1 5.0284C273.111 4.98537 273.115 4.93999 273.109 4.89506C273.103 4.85012 273.088 4.80657 273.065 4.76708C271.667 1.9316 268.415 0.378342 265.459 0.162756C261.763 -0.113722 258.301 1.5148 255.665 3.98659C250.909 8.45005 248.678 15.1564 249.055 21.8232C249.276 25.477 250.342 29.0552 252.165 32.2632L251.978 32.3012C251.861 32.3244 251.757 32.388 251.683 32.4815C251.608 32.5749 251.568 32.6927 251.569 32.8152C237.963 43.6266 224.414 54.5067 210.724 65.2052C221.886 53.8747 232.786 41.7072 238.166 26.2585C240.491 19.5724 243.256 9.89511 237.319 4.00173C234.874 1.5637 231.228 0.487625 228.186 2.08658C224.611 3.97275 223.248 8.10076 222.99 12.0233C222.909 13.2074 222.908 14.384 222.884 15.5948C221.624 13.8998 219.88 12.6425 217.908 12.0066C215.075 11.1886 211.717 12.0751 210.259 14.7262C208.693 17.5452 209.73 21.1064 211.149 23.8657C212.917 27.1855 215.303 30.1338 218.169 32.5376C219.826 33.9506 221.579 35.2405 223.412 36.3968C224.277 36.944 225.146 37.4697 226.02 37.9738C226.974 38.5919 227.977 39.125 229.016 39.5667C229.143 39.6097 229.276 39.6247 229.407 39.6107L229.514 39.8042C228.3 41.794 227.016 43.7435 225.668 45.6272C220.148 53.3472 213.711 60.3327 207.4 67.3207C207.341 67.389 207.309 67.4773 207.309 67.5698C207.31 67.6622 207.342 67.7527 207.401 67.8249C196.887 75.9997 186.315 84.0973 175.605 92.0049C177.266 87.4141 178.913 82.819 180.546 78.2195L181.024 76.9028C181.127 76.9398 181.236 76.9509 181.342 76.9352C181.447 76.9195 181.547 76.8774 181.632 76.8127C184.211 74.7469 186.937 72.8763 189.79 71.2151C189.989 71.3483 190.211 71.4394 190.443 71.4826C190.72 71.5256 191.001 71.492 191.256 71.3854C191.511 71.2789 191.732 71.1032 191.894 70.8767C192.068 70.6391 192.183 70.36 192.227 70.0628C192.272 69.7657 192.245 69.4595 192.15 69.1701C192.065 68.9249 191.928 68.7007 191.747 68.5151C191.567 68.3294 191.348 68.1872 191.109 68.0995C190.64 67.9158 190.126 67.925 189.677 68.1251C189.417 68.2391 189.197 68.4257 189.04 68.6641C188.992 68.7408 188.961 68.8228 188.922 68.9022C188.883 68.9902 188.853 69.0818 188.831 69.1761C188.787 69.3624 188.772 69.5555 188.787 69.7486C188.795 69.8935 188.827 70.0368 188.882 70.1722C188.934 70.2975 189.014 70.4091 189.117 70.4972L189.163 70.5801C186.533 71.7974 184.037 73.281 181.71 75.0095C183.141 71.0676 184.596 67.1335 185.932 63.1574L186.165 63.1658C186.611 63.148 187.03 62.9693 187.349 62.6612C187.668 62.3532 187.866 61.9357 187.908 61.4828C187.922 61.2001 187.876 60.9155 187.773 60.6484C187.701 60.4357 187.591 60.237 187.45 60.0622C187.129 59.6664 186.682 59.3998 186.192 59.3132C185.898 59.268 185.601 59.2979 185.326 59.4003C185.052 59.5027 184.809 59.6743 184.619 59.8997C184.444 60.0952 184.314 60.3297 184.24 60.5864C184.167 60.843 184.15 61.1152 184.192 61.3833C184.227 61.5755 184.29 61.762 184.38 61.9364L184.425 62.0193C184.528 62.2867 184.695 62.525 184.911 62.711C185.066 62.8459 185.245 62.9483 185.437 63.0122C183.414 67.8871 181.586 72.8414 179.644 77.7507C177.559 83.0277 175.47 88.2991 173.435 93.5916C169.362 96.5793 165.264 99.5406 161.138 102.475C145.392 113.623 129.279 124.259 112.671 134.071C106.011 138.006 99.2644 141.796 92.4308 145.441C93.7418 144.054 95.0406 142.645 96.2854 141.2C99.0414 138.025 101.662 134.74 104.149 131.343C107.161 127.204 109.956 122.9 112.523 118.449C113.988 117.957 115.422 117.383 116.819 116.727C119.014 116.618 121.19 116.325 123.325 115.85C126.489 115.185 129.573 114.209 132.533 112.934C135.327 111.725 138.296 110.296 140.649 108.326C142.836 106.507 143.798 103.898 142.901 101.017C141.956 97.9749 138.827 95.2645 135.789 94.625C135.719 94.6165 135.65 94.6163 135.581 94.6244C135.155 93.1743 134.239 91.9105 133 91.0634C129.493 88.6702 125.153 90.7397 122.978 93.7581C122.134 94.9764 121.442 96.3004 120.918 97.7009C117.823 104.64 114.304 111.362 110.381 117.827C110.766 112.918 109.649 107.72 107.967 103.079C108.604 100.883 108.854 98.5771 108.706 96.265C108.596 93.2072 107.948 90.1753 106.792 87.3151C105.625 84.4124 103.94 81.7418 101.826 79.4433C99.6765 77.1523 96.8056 74.6459 93.5366 75.0429C92.6853 75.1087 91.8772 75.4169 91.2033 75.9328C90.5294 76.4486 90.0163 77.1517 89.7217 77.9628C89.5213 78.5998 89.473 79.2816 89.5806 79.9524C87.5669 78.8992 85.1477 78.3151 83.3806 79.7661C81.3834 81.4019 81.8213 84.1902 82.9543 86.3064C84.3932 88.9896 86.6729 91.3027 88.7587 93.4775C94.0557 99.0068 100.139 103.683 106.787 107.337C106.958 107.433 107.153 107.47 107.343 107.441C107.626 108.482 107.88 109.533 108.088 110.587C108.598 113.618 108.951 116.669 109.145 119.728C105.059 126.265 100.506 132.476 95.5215 138.311C94.0212 140.057 92.4834 141.769 90.908 143.446C90.0928 144.314 89.2609 145.177 88.4282 146.026C87.5317 146.802 86.7455 147.702 86.0907 148.701L86.0704 148.777C77.9868 152.941 69.835 156.869 61.5428 160.542C59.1156 161.612 56.679 162.661 54.2329 163.688C54.3192 163.568 54.4023 163.443 54.4855 163.318C55.1997 162.246 55.9136 161.169 56.6272 160.087C58.0069 157.984 59.3439 155.854 60.681 153.724C60.7697 153.752 60.863 153.758 60.9528 153.74C61.4923 153.533 62.0055 153.264 62.4832 152.939C62.989 152.66 63.493 152.382 63.9953 152.105L66.9394 150.567C68.6662 149.658 70.3845 148.746 72.093 147.803C72.2295 147.861 72.3703 147.906 72.5139 147.939C72.5403 147.944 72.567 147.946 72.5936 147.945C72.7272 148.015 72.867 148.071 73.0108 148.112C73.2503 148.163 73.4967 148.144 73.7219 148.059C73.79 148.032 73.8542 147.997 73.9129 147.953C74.0868 147.878 74.2426 147.767 74.371 147.627C74.4994 147.486 74.5977 147.32 74.6599 147.137C74.7055 146.998 74.7321 146.852 74.7392 146.704C74.752 146.477 74.7241 146.248 74.6569 146.028C74.5566 145.721 74.3661 145.45 74.112 145.254C73.8026 145.024 73.4254 144.917 73.0523 144.951C72.7035 144.988 72.3788 145.137 72.1247 145.377C71.8705 145.617 71.6999 145.935 71.6372 146.287C71.6372 146.287 71.6647 146.337 71.645 146.377C71.6254 146.416 71.5602 146.424 71.523 146.444C71.4319 146.515 71.3609 146.61 71.3168 146.719C71.2728 146.828 71.257 146.947 71.2711 147.066C71.2971 147.138 71.3342 147.205 71.381 147.265C69.7344 148.044 68.103 148.85 66.4747 149.662C65.4475 150.171 64.4234 150.686 63.3909 151.198C62.9293 151.452 62.4402 151.657 61.9581 151.887C61.905 151.917 61.852 151.946 61.7936 151.978C63.9001 148.546 65.9298 145.062 67.8828 141.527L67.898 141.555C68.1986 141.628 68.5087 141.634 68.8074 141.574C69.1061 141.514 69.3863 141.388 69.6293 141.205C69.8895 140.998 70.0972 140.731 70.236 140.423C70.3717 140.11 70.4309 139.766 70.4086 139.419C70.3866 139.069 70.2665 138.73 70.0628 138.441C69.9019 138.215 69.6855 138.035 69.4367 137.921C69.155 137.655 68.8031 137.482 68.4288 137.424C68.1607 137.387 67.8899 137.405 67.6322 137.476C67.3746 137.548 67.1354 137.672 66.9285 137.841C66.66 138.072 66.4649 138.38 66.3661 138.728C66.1742 139.234 66.1831 139.802 66.3909 140.316C66.6014 140.788 66.9745 141.169 67.4368 141.384C64.9043 145.248 62.3518 149.097 59.7793 152.931C58.3421 155.08 56.8729 157.196 55.4068 159.318C54.6345 160.427 53.8602 161.532 53.0839 162.634C52.5124 163.338 51.9817 164.077 51.4943 164.846C37.3167 170.716 22.7942 175.742 7.99765 179.899C5.73805 180.532 3.48003 181.194 1.22507 181.861C0.119214 182.19 0.621056 184.178 1.77268 183.932C11.0759 181.916 20.1931 179.035 29.1739 175.97C38.1547 172.905 47.0525 169.489 55.7736 165.803C62.594 162.92 69.3314 159.862 75.9859 156.628C78.1439 157.428 80.3826 158.061 82.5336 158.786C84.3776 159.407 86.2261 160.01 88.0723 160.621C88.1324 160.716 88.2228 160.786 88.3271 160.82C88.5197 160.877 88.7188 160.904 88.9172 160.898L91.5361 161.769C94.5417 162.751 97.5443 163.728 100.543 164.735L104.878 166.181C105.363 166.346 105.866 166.53 106.369 166.715C106.349 166.791 106.312 166.862 106.295 166.943C106.246 167.279 106.283 167.626 106.402 167.949C106.521 168.272 106.718 168.562 106.974 168.79C107.231 169.017 107.55 169.156 107.883 169.183C108.161 169.419 108.479 169.597 108.819 169.709C109.16 169.821 109.517 169.863 109.869 169.834C110.456 169.767 110.994 169.486 111.384 169.042C111.774 168.598 111.99 168.02 111.994 167.413C111.994 167.063 111.909 166.716 111.747 166.402C111.609 166.01 111.381 165.654 111.083 165.365C110.786 165.076 110.427 164.862 110.037 164.741C109.647 164.62 109.238 164.595 108.844 164.67C108.45 164.744 108.082 164.915 107.772 165.169C107.717 165.219 107.667 165.273 107.62 165.332C107.404 165.433 107.204 165.565 107.027 165.724C106.323 165.514 105.617 165.326 104.945 165.112L100.595 163.725C97.588 162.766 94.5793 161.778 91.5767 160.802L90.741 160.541C91.2592 160.414 91.7719 160.29 92.287 160.157C93.732 159.778 95.1641 159.363 96.5892 158.923C98.816 158.243 101.011 157.479 103.187 156.683C103.218 156.738 103.248 156.793 103.282 156.854C103.541 157.17 103.865 157.424 104.23 157.598C104.594 157.772 104.989 157.861 105.386 157.857C105.765 157.863 106.138 157.779 106.474 157.611C106.81 157.443 107.1 157.196 107.322 156.89C107.586 156.509 107.7 156.038 107.644 155.566C107.576 155.091 107.335 154.654 106.969 154.343C106.778 154.196 106.557 154.095 106.323 154.05C106.123 153.782 105.861 153.567 105.561 153.428C105.262 153.289 104.935 153.23 104.612 153.256C104.387 153.286 104.17 153.357 103.972 153.465C103.678 153.576 103.427 153.777 103.253 154.042C103.222 154.101 103.196 154.161 103.173 154.223C103.094 154.343 103.028 154.471 102.976 154.606C102.76 155.094 102.719 155.65 102.86 156.178C100.658 156.777 98.4482 157.342 96.2311 157.873C94.8755 158.188 93.5213 158.481 92.1702 158.779C91.4404 158.936 90.7052 159.097 89.9815 159.265C89.3802 159.308 88.7995 159.484 88.2788 159.779C86.3498 159.155 84.4177 158.526 82.4925 157.922C80.5674 157.317 78.8494 156.7 77.0086 156.136C87.1933 151.18 97.2084 145.876 107.054 140.222C111.024 137.95 114.967 135.631 118.883 133.263C118.915 133.383 118.985 133.49 119.082 133.567C119.178 133.644 119.296 133.688 119.416 133.69C125.778 133.83 132.103 133.904 138.455 133.639C144.807 133.373 150.989 133 157.236 132.482C164.461 131.879 171.655 131.019 178.823 129.949C180.819 130.832 182.818 131.734 184.757 132.764C187.62 134.29 190.395 135.992 193.064 137.862C195.581 139.626 198.007 141.526 200.343 143.527C200.343 143.527 200.311 143.545 200.295 143.553C197.654 149.571 197.493 156.498 199.849 162.815C201.73 167.78 206.979 173.844 212.575 170.727C213.976 169.911 215.096 168.681 215.794 167.191ZM239.071 142.084C238.122 144.541 235.143 144.886 232.882 144.388C228.498 143.43 224.506 140.396 221.704 136.849C218.566 132.902 216.794 128.029 216.681 123.028C216.796 123.022 216.907 123.011 217.027 123.003C218.182 123.253 219.325 123.567 220.452 123.941C222.624 124.676 224.731 125.615 226.746 126.745C230.904 129.063 234.544 132.271 237.406 136.143C238.606 137.817 239.858 140.085 239.08 142.101L239.071 142.084ZM239.819 134.948C239.682 135.414 239.541 135.874 239.412 136.342C238.435 134.818 237.298 133.406 236.022 132.13C234.174 130.196 232.125 128.473 229.915 126.995C227.478 125.364 224.864 124.04 222.133 123.05L221.862 122.961C222.206 122.981 222.57 122.989 222.896 123.04C225.084 123.312 227.229 123.93 229.255 124.87C231.445 125.89 233.452 127.297 235.18 129.024C236.082 129.92 236.905 130.895 237.639 131.938C237.969 132.398 238.275 132.864 238.568 133.345C238.817 133.906 239.163 134.419 239.59 134.858C239.66 134.913 239.742 134.95 239.828 134.965L239.819 134.948ZM218.764 121.172C220.378 121.003 222.001 120.913 223.633 120.902C226.894 120.849 230.162 121.163 233.381 121.836C234.925 122.104 236.391 122.764 237.644 123.755C238.852 124.853 239.72 126.287 240.136 127.87C240.548 129.448 240.628 131.086 240.371 132.674C240.329 132.936 240.249 133.181 240.195 133.435C239.749 132.632 239.226 131.874 238.636 131.172C236.25 128.044 233.159 125.546 229.643 123.905C226.165 122.251 222.343 121.588 218.592 121.988C217.657 121.762 216.711 121.597 215.759 121.495C216.783 121.457 217.767 121.296 218.774 121.188L218.764 121.172ZM209.496 102.855C209.218 105.475 207.398 107.619 205.781 109.506C202.881 112.771 199.581 115.639 195.957 118.043C196.238 114.326 197.318 110.747 199.123 107.561C201.265 103.873 204.287 100.817 207.919 98.6675C208.518 99.1755 208.981 99.8321 209.259 100.571C209.538 101.309 209.622 102.103 209.505 102.871L209.496 102.855ZM188.267 103.025C188.563 101.908 189.101 100.882 189.841 100.019C190.581 99.1567 191.505 98.4799 192.547 98.0378C194.167 97.3946 195.989 97.4226 197.635 98.1159C194.009 99.1713 190.926 102.15 189.305 105.496C188.719 106.735 188.304 108.056 188.073 109.422C187.593 107.288 187.659 105.082 188.264 103.019L188.267 103.025ZM189.063 112.735C189.043 112.422 189.014 112.106 189.002 111.796C188.935 109.746 189.337 107.726 190.174 105.895C191.012 104.064 192.262 102.473 193.827 101.249C195.291 100.122 196.95 99.2803 198.725 98.7624C198.725 98.7624 198.713 98.8411 198.694 98.8808C198.687 98.9064 198.688 98.9334 198.695 98.9592C197.271 100.374 196.039 101.977 195.03 103.73C192.561 107.956 191.315 112.842 191.431 117.842C190.54 116.186 189.749 114.479 189.06 112.73L189.063 112.735ZM195.451 106.751C196.417 104.676 197.678 102.765 199.194 101.079C200.861 99.2216 203.152 97.4527 205.816 97.8153C206.357 97.8844 206.883 98.0623 207.364 98.3389C199.867 102.086 194.884 110.527 194.463 119.084C194.085 119.328 193.708 119.573 193.322 119.814C192.857 115.297 193.595 110.779 195.458 106.74L195.451 106.751ZM262.897 69.5895C260.933 69.9947 258.839 69.4981 256.953 68.8509C254.945 68.1723 252.982 67.3511 251.077 66.3935C248.932 65.3251 246.864 64.093 244.892 62.7079C243.609 61.7999 242.372 60.7507 241.088 59.8147C241.173 59.8183 241.254 59.8023 241.339 59.8059C245.076 62.3009 249.139 64.2224 253.391 65.5065C255.607 66.194 257.86 66.732 260.135 67.117C262.054 67.4793 263.99 67.7076 265.931 67.8003C265.153 68.7247 264.089 69.3497 262.904 69.5782L262.897 69.5895ZM264.883 61.7993C266.117 63.0082 267.099 64.775 266.601 66.5069C264.534 66.3347 262.477 66.3078 260.409 65.9843C258.133 65.6293 255.878 65.1166 253.659 64.4496C249.811 63.2352 246.081 61.6237 242.528 59.6404C243.038 59.5246 243.552 59.364 244.075 59.2339C245.227 58.9376 246.386 58.6804 247.553 58.4622C249.67 58.0468 251.832 57.8575 254.003 57.8974C257.75 58.0157 262.056 59.0089 264.89 61.7879L264.883 61.7993ZM264.822 57.3745C264.791 57.8823 264.751 58.3875 264.706 58.8816C262.291 57.3103 259.577 56.3085 256.77 55.9519C254.126 55.5914 251.458 55.6066 248.843 55.9972C247.358 56.2033 245.884 56.5044 244.429 56.8527C243.267 57.0369 242.133 57.3551 241.049 57.8014C241.004 57.6852 240.927 57.584 240.828 57.5106C240.728 57.4372 240.61 57.3948 240.49 57.3888C240.418 57.3845 240.346 57.3759 240.275 57.3631C240.242 57.2734 240.196 57.1894 240.137 57.1142C247.434 52.9154 256.795 52.5336 264.297 57.2385C264.372 57.2994 264.459 57.3423 264.551 57.3639C264.644 57.3855 264.739 57.3852 264.83 57.3631L264.822 57.3745ZM241.215 55.6683C243.893 52.4038 247.335 49.8877 251.242 48.34C253.514 47.4401 256.06 46.6989 258.54 47.1051C259.746 47.3358 260.882 47.8838 261.836 48.6943C262.789 49.5049 263.527 50.5497 263.975 51.7245C264.544 53.1307 264.847 54.6261 264.869 56.1295L264.865 56.2473C257.684 51.9999 248.258 51.5736 241.223 55.657L241.215 55.6683ZM288.561 58.5676C285.73 56.586 283.091 54.3248 280.685 51.8182C277.729 48.9108 274.989 45.7821 272.49 42.4598C271.224 40.7922 270.023 39.067 268.891 37.3038C268.174 36.1918 267.536 34.9856 266.778 33.8886C276.215 37.5519 284.497 43.9168 290.606 52.2019C291.515 53.4466 292.373 54.7261 293.167 56.0407C293.82 57.1234 294.362 58.3684 295.053 59.4585C293.134 60.7843 290.533 59.8459 288.569 58.5562L288.561 58.5676ZM284.467 30.2247C287.22 30.4088 290.044 30.7984 292.579 32.0689C293.941 32.7692 295.131 33.7865 296.051 35.036C296.97 36.2855 297.592 37.731 297.864 39.2524C298.079 40.4011 298.16 41.5673 298.106 42.726C296.907 40.994 295.468 39.4465 293.835 38.135C292.162 36.6982 290.347 35.4451 288.424 34.3974C284.578 32.3064 280.361 31.0851 276.068 30.8191C275.401 30.7761 274.749 30.7747 274.088 30.7932C277.502 30.1986 280.984 30.0079 284.467 30.2247ZM284.697 34.2029C287.148 35.2185 289.468 36.5587 291.595 38.1881C292.609 38.9704 293.572 39.8198 294.479 40.7306C295.466 41.7297 296.27 42.8732 297.22 43.8928C297.318 44.0123 297.449 44.0979 297.595 44.1368C297.741 44.1757 297.894 44.1659 298.031 44.1089L298.005 44.4261C297.827 45.7582 297.414 47.0174 297.119 48.3131C296.234 46.5802 295.135 44.9648 293.851 43.5077C289.11 38.0874 282.473 34.8384 275.775 32.9719C274.232 32.5463 272.681 32.2189 271.119 31.9338C275.72 31.6354 280.364 32.4133 284.7 34.2085L284.697 34.2029ZM271.536 33.8821C277.891 35.1516 284.272 37.5607 289.41 41.8174C291.979 43.8871 294.083 46.5031 295.565 49.4733C296.838 52.1324 297.805 55.6029 296.177 58.1964C295.75 57.3353 295.211 56.5077 294.745 55.7259C294.029 54.529 293.267 53.362 292.46 52.2251C290.827 49.9521 289.019 47.8129 287.056 45.8289C283.079 41.7851 278.511 38.4027 273.529 35.8126C271.602 34.8195 269.611 33.9698 267.572 33.2702C268.889 33.4239 270.219 33.6136 271.536 33.8821ZM270.401 3.48842C271.109 3.97107 271.764 4.53155 272.354 5.15934C272.418 5.22236 272.498 5.26548 272.584 5.28335C272.67 5.30122 272.759 5.29307 272.839 5.2599C270.825 6.19311 268.954 7.40711 267.279 8.8684C262.466 12.8018 258.536 17.7405 255.738 23.3735C256.574 19.5902 257.713 15.8934 259.141 12.3196C260.263 9.6232 261.61 6.75899 263.89 4.90916C264.776 4.17191 265.822 3.65841 266.949 3.40825C268.075 3.15809 269.252 3.17795 270.389 3.4663L270.401 3.48842ZM251.536 14.6908C252.997 8.83474 257.415 2.61719 263.681 1.80735C265.038 1.63559 266.427 1.768 267.75 2.19545C267.105 2.22541 266.468 2.33457 265.853 2.5206C263.745 3.28693 261.951 4.72136 260.724 6.62034C257.818 10.7625 256.148 15.9764 254.794 20.8718C254.026 23.6326 253.42 26.4484 252.803 29.2561C250.771 24.6257 250.319 19.4803 251.523 14.6686L251.536 14.6908ZM255.36 29.4251C258.325 20.627 264.015 13.1374 271.589 8.06296C273.114 7.06309 275.171 6.00016 277.076 6.47884C277.394 6.55727 277.7 6.68817 277.981 6.86634C276.627 9.21526 275.571 11.7168 274.064 13.9909C272.551 16.288 270.826 18.4279 268.912 20.3827C265.053 24.301 260.442 27.3673 255.348 29.403L255.36 29.4251ZM261.376 28.1114C264.418 26.232 267.22 23.986 269.726 21.4195C271.774 19.3304 273.6 17.0248 275.176 14.5388C276.54 12.3437 277.948 9.97951 278.633 7.44479C279.7 8.65208 279.869 10.6511 279.626 12.206C278.803 17.4362 274.578 21.1307 270.343 23.604C267.541 25.2365 264.55 26.5625 261.64 27.9874L261.376 28.1114ZM227.41 5.22019C227.94 4.60385 228.603 4.12229 229.35 3.81117C230.097 3.50005 230.909 3.36734 231.726 3.42289C230.973 5.90882 230.864 8.69602 230.56 11.2805L229.547 19.8181C229.219 22.6105 228.832 25.3847 228.474 28.1722C228.325 29.3075 228.182 30.4445 228.044 31.5833C226.155 26.5126 225.101 21.1837 224.924 15.8181C224.831 12.2121 224.937 8.02705 227.41 5.22019ZM221.44 32.7093C218.813 30.816 216.484 28.5165 214.54 25.8975C212.902 23.6196 211.244 20.7259 211.274 17.8453C211.269 17.1903 211.406 16.5472 211.674 15.9619C211.941 15.3765 212.334 14.8631 212.824 14.458C213.05 16.5218 213.593 18.5474 214.433 20.4597C215.34 22.7215 216.464 24.8928 217.787 26.941C219.133 29.0235 220.672 30.9725 222.382 32.7598C223.045 33.4472 223.733 34.106 224.446 34.7447C223.425 34.1106 222.427 33.4563 221.452 32.7314L221.44 32.7093ZM226.073 34.157C225.216 33.4686 224.38 32.732 223.589 31.9636C221.871 30.2975 220.328 28.4517 218.988 26.4587C217.668 24.4881 216.542 22.3926 215.627 20.2044C214.789 18.2073 214.298 16.0759 213.481 14.0811C214.357 13.5948 215.359 13.3796 216.371 13.4606C219.486 13.6892 221.363 16.0875 223.041 18.5017C223.502 24.1798 224.91 29.7691 227.203 35.0266C226.82 34.7331 226.447 34.4703 226.085 34.1791L226.073 34.157ZM229.369 34.8631C229.431 34.1725 229.482 33.4738 229.55 32.7942C229.689 31.3902 229.825 29.9947 229.954 28.5965C230.215 25.7329 230.451 22.8754 230.753 20.0108L231.599 11.6089C231.741 10.2104 231.883 8.81191 232.011 7.41376C232.177 6.10661 232.239 4.78418 232.196 3.45937C233.462 3.66607 234.654 4.24436 235.626 5.12325C238.286 7.43573 238.967 11.0782 238.771 14.411C238.457 18.2431 237.627 21.9945 236.307 25.5603C234.825 29.7864 232.959 33.8492 230.732 37.6967C230.247 36.7669 229.805 35.8277 229.382 34.8853L229.369 34.8631ZM95.3612 77.1959C97.8103 77.8717 99.9147 80.1806 101.474 82.141C104.612 86.1428 106.505 90.9917 106.895 96.0307C107.01 97.4807 107.001 98.9339 106.869 100.373L106.64 99.8719C106.7 99.8001 106.74 99.7134 106.757 99.6198C106.925 98.5681 106.341 97.3969 105.996 96.433C105.651 95.4691 105.204 94.3451 104.757 93.322C103.808 91.1742 102.724 89.0877 101.511 87.0762C100.313 85.0599 98.982 83.1258 97.5288 81.2877C96.7976 80.3638 96.0459 79.4656 95.2602 78.5934C94.8085 78.0535 94.3252 77.542 93.813 77.0617C94.3296 77.014 94.8536 77.0594 95.3612 77.1959ZM91.8376 78.0723C92.1464 77.6512 92.5827 77.3473 93.0824 77.2051C93.5595 77.8554 94.0719 78.4783 94.617 79.0709C95.3283 79.9337 96.0134 80.8157 96.6722 81.7171C98.04 83.5939 99.299 85.5491 100.443 87.5722C101.548 89.5463 102.536 91.584 103.401 93.6736L103.544 94.0343C101.909 91.3879 100.006 88.9188 97.8683 86.6696C96.0818 84.7866 94.1328 83.0724 92.0467 81.5495C92.0839 81.3988 92.064 81.2373 91.9908 81.097C91.497 80.1142 91.1797 79.0124 91.8376 78.0723ZM83.9785 82.192C84.883 79.5288 88.7061 81.6036 90.1678 82.6222C92.4163 84.1815 94.5089 85.9691 96.4121 87.9564C100.213 91.9515 103.26 96.6233 105.391 101.722C105.56 102.127 105.701 102.547 105.853 102.961C101.653 96.5261 96.2823 90.9563 90.0479 86.5695C88.1142 85.1275 86.0425 83.8957 83.8681 82.895C83.8715 82.6553 83.9087 82.4185 83.9785 82.192ZM92.7511 94.7303C90.5263 92.6334 88.4376 90.3899 86.4993 88.0152C85.6204 86.9491 84.3022 85.3751 83.9609 83.8032C85.8391 85.0249 87.8104 86.1015 89.6365 87.4168C91.8001 88.9801 93.8581 90.694 95.7952 92.5458C99.2617 95.9083 102.303 99.7006 104.844 103.828C100.517 101.244 96.4637 98.1917 92.7564 94.7274L92.7511 94.7303ZM117.168 109.732C117.432 109.183 117.688 108.63 117.943 108.078C119.008 106.98 119.836 105.664 120.377 104.21C121.21 102.308 121.759 100.267 122.518 98.3185C123.654 95.3612 125.996 91.7535 129.472 91.769C129.469 92.6795 129.612 93.6034 129.598 94.5058C129.558 95.6321 129.397 96.7462 129.12 97.8285C128.519 100.163 127.491 102.345 126.088 104.262C123.236 108.238 119.188 111.049 115.129 113.664C115.845 112.352 116.515 111.059 117.168 109.732ZM116.072 115.386L114.782 115.557C119.407 112.45 124.131 109.158 127.247 104.395C128.539 102.452 129.483 100.284 130.037 97.986C130.448 96.2225 130.833 93.7089 130.178 91.8195C130.288 91.8268 130.398 91.8411 130.506 91.8621C132.385 92.2686 133.613 93.9427 134.042 95.7619C134.411 97.6746 134.084 99.6346 133.122 101.269C132.008 103.145 130.623 104.832 129.013 106.277C127.381 107.858 125.65 109.329 123.83 110.681C121.393 112.474 118.807 114.052 116.1 115.4L116.072 115.386ZM130.283 107.438C131.95 105.921 133.385 104.157 134.543 102.202C135.457 100.537 135.904 98.6351 135.838 96.6969C136.861 97.1496 137.837 97.7116 138.75 98.3731C139.72 99.1286 140.476 100.138 140.932 101.288C141.937 103.937 140.603 105.985 138.563 107.443C133.874 110.685 128.606 112.987 123.028 114.232C122.206 114.416 121.374 114.58 120.53 114.723C121.788 114.029 122.994 113.256 124.173 112.432C126.347 110.94 128.399 109.275 130.311 107.451L130.283 107.438ZM217.589 152.508C219.476 154.836 220.774 157.828 220.445 160.845C220.375 161.528 220.208 162.193 219.95 162.82L219.949 162.229C219.923 161.183 219.772 160.14 219.501 159.122C218.918 156.986 217.909 154.982 216.539 153.239C214.178 150.214 211.092 148.057 207.818 146.213C211.491 147.577 214.987 149.334 217.589 152.508ZM215.547 153.498C216.79 155.098 217.725 156.92 218.299 158.862C218.577 159.83 218.732 160.826 218.758 161.826C218.773 162.77 218.45 163.778 218.52 164.706C217.919 165.131 217.219 165.393 216.483 165.469C216.658 164.867 216.78 164.249 216.849 163.622C217.226 160.067 215.657 156.633 213.548 153.814C211.271 150.778 208.368 148.189 205.586 145.655L205.35 145.453C209.039 147.674 212.852 150.043 215.526 153.51L215.547 153.498ZM202.428 163.701C199.625 157.831 199.684 150.787 202.066 144.957C202.371 145.221 202.669 145.497 202.971 145.77C205.092 149.751 207.235 153.799 208.082 158.244C208.478 160.268 208.559 162.333 208.321 164.36C208.203 165.379 207.977 166.379 207.648 167.342C207.447 167.852 207.217 168.35 206.961 168.832C204.91 167.786 203.388 165.754 202.407 163.713L202.428 163.701ZM208.098 169.287C208.307 168.825 208.478 168.356 208.62 167.924C208.952 166.961 209.19 165.962 209.328 164.944C209.61 162.784 209.537 160.579 209.113 158.419C208.343 154.515 206.693 150.859 204.757 147.375C205.819 148.347 206.868 149.334 207.894 150.34C212.113 154.462 217.536 160.978 213.702 166.924C212.433 168.865 210.312 169.912 208.077 169.299L208.098 169.287Z" fill="#62616F"/>
</svg>
