<svg width="107" height="205" viewBox="0 0 107 205" fill="none" xmlns="http://www.w3.org/2000/svg">
<path d="M106.151 88.7009C106.296 88.2214 106.32 87.7107 106.222 87.219C106.123 86.7272 105.904 86.2712 105.588 85.8957C104.859 85.0909 103.909 84.5471 102.87 84.3404C98.7163 83.2401 94.349 83.3937 90.2681 84.7838C88.0844 85.5545 86.0466 86.7258 84.2488 88.2434C83.3762 88.9809 82.5708 89.8027 81.8435 90.6981C81.0445 91.5952 80.4113 92.641 79.9763 93.7819C79.957 93.8469 79.9518 93.9157 79.9613 93.983C79.9708 94.0503 79.9947 94.1145 80.0311 94.1706C80.0033 94.2419 79.9754 94.3132 79.9112 94.3688C79.8891 94.4069 79.8647 94.4434 79.8381 94.4782C79.8299 94.5024 79.8206 94.5262 79.8102 94.5495C79.7973 94.5737 79.7872 94.5994 79.7802 94.6262C79.8381 94.5871 79.817 94.61 79.716 94.6818C79.6936 94.7095 79.6692 94.7355 79.6431 94.7593C78.9748 95.0543 78.3035 95.3415 77.6465 95.6541C76.6431 96.1378 75.6572 96.6546 74.6713 97.1714C74.8619 96.6834 75.0972 96.2211 75.2931 95.7353C75.5929 94.9677 75.8928 94.2001 76.1614 93.419C76.6647 92.1305 77.1108 90.8174 77.5851 89.51C83.4975 85.8569 87.1307 78.8899 87.6491 71.7592C87.7197 70.8278 87.7297 69.8925 87.679 68.9599C87.6821 68.0826 87.5645 67.2098 87.3298 66.3687C86.5653 64.2648 84.251 65.4903 83.0164 66.3484C79.8444 68.556 77.8479 72.1733 76.8297 75.9625C76.2053 78.3451 75.8189 80.7893 75.6766 83.2552C75.5543 85.1243 75.5721 87.1947 76.6086 88.8201C76.1444 90.1639 75.6751 91.5055 75.2161 92.8515C74.9386 93.6864 74.6412 94.5256 74.3836 95.3562C74.126 96.1869 73.9604 96.8907 73.7506 97.6458C72.3056 98.4196 70.8809 99.2299 69.4764 100.077C64.1244 103.317 59.0904 107.109 54.4488 111.396C53.4788 112.324 52.5002 113.273 51.5174 114.233C53.6272 109.693 55.6625 105.11 57.6234 100.484C59.1484 96.8707 60.6196 93.2341 62.0371 89.5743L62.3208 89.4083C62.6506 89.2173 62.9615 89.0438 63.2969 88.8232C63.9872 88.4096 64.6931 88.0028 65.4031 87.6169C65.9743 87.3057 66.5518 87.0101 67.1322 86.7221C67.6165 87.2833 68.238 87.6934 68.9292 87.9077C69.6204 88.1219 70.3546 88.1322 71.0519 87.9372C72.1865 87.5998 73.7933 86.3961 73.4331 84.9533C73.1601 83.8939 72.3027 83.7551 71.4143 83.8975C71.1336 83.8828 70.8547 83.9539 70.6111 84.1023C70.4581 84.1517 70.3228 84.2023 70.1876 84.2529C69.965 84.2846 69.7523 84.3707 69.5667 84.5042C68.1501 85.0787 66.7699 85.7485 65.4345 86.5094C64.6466 86.9706 63.8501 87.4537 63.1136 88.0011C62.8874 88.1599 62.6696 88.3286 62.4495 88.5029C65.4934 80.5708 68.2823 72.5288 70.7431 64.3776C70.9674 63.6478 71.1761 62.9114 71.3878 62.1827C73.5839 60.4193 75.7066 58.5795 77.9862 56.9291C79.3886 55.9063 80.8311 54.9521 82.3053 54.0564C82.2997 54.091 82.3006 54.1265 82.3081 54.1607C82.3155 54.1949 82.3292 54.2273 82.3486 54.2558C82.3679 54.2844 82.3924 54.3087 82.4207 54.3272C82.449 54.3458 82.4805 54.3582 82.5134 54.3639C84.5062 54.708 86.5241 54.8682 88.5442 54.8424C90.5492 54.8718 92.5524 54.69 94.524 54.2997C97.9167 53.5965 101.264 52.0284 103.731 49.4015C104.857 48.1829 106.156 46.43 105.352 44.6613C104.68 43.1741 102.953 42.6025 101.539 42.3008C98.0129 41.6028 94.3647 42.1008 91.1191 43.7231C87.2702 45.5941 84.1415 48.8581 81.8732 52.5954C81.8388 52.6489 81.8152 52.7093 81.804 52.7728C81.7928 52.8364 81.7942 52.9016 81.8081 52.9645C79.1454 54.6086 76.6081 56.4688 74.2194 58.528C73.4061 59.2409 72.6019 59.977 71.833 60.7474C72.9012 57.0481 73.893 53.3266 74.8084 49.5829C76.1061 48.1434 77.2787 46.5732 78.5494 45.1094C79.4572 44.0614 80.4016 43.0441 81.3826 42.0575C81.4722 42.1368 81.5831 42.1846 81.6999 42.1943C83.6449 42.4431 85.7456 42.5733 87.6064 41.7929C89.1682 41.1399 91.2483 39.1601 90.3403 37.2057C90.1021 36.7567 89.7361 36.3979 89.2937 36.1797C88.8513 35.9615 88.3548 35.8949 87.8739 35.9891C86.739 36.1406 85.7644 37.0018 84.8813 37.691C84.8641 37.7348 84.8054 37.7608 84.7622 37.7934C84.6077 37.8934 84.4532 37.9934 84.3017 38.101C83.994 38.3184 83.7175 38.5811 83.4804 38.881C82.0147 40.1928 80.6285 41.6002 79.3303 43.0949C78.3787 44.1774 77.457 45.292 76.554 46.4211C76.0804 47.0113 75.5994 47.6048 75.137 48.2127C75.7517 45.6589 76.3403 43.094 76.8779 40.5198C78.7135 38.4346 80.5999 36.3905 82.5638 34.4438C83.3453 33.6723 84.1516 32.9308 84.9588 32.2024C85.0185 32.2404 85.0834 32.2684 85.1513 32.2854C89.0265 32.6012 92.9231 32.0418 96.5804 30.6446C100.245 29.2451 104.13 27.0179 105.859 23.1509C106.663 21.3577 107.041 19.1761 106.325 17.2915C106.035 16.4965 105.511 15.8212 104.828 15.3654C103.928 14.8877 102.903 14.7386 101.912 14.9416C98.2498 15.4585 94.7978 17.0528 91.9529 19.5411C90.167 21.0998 88.601 22.9186 87.3025 24.9423C85.9042 26.9598 84.7881 29.1777 83.9884 31.528C83.2409 32.2437 82.5016 32.9692 81.7884 33.706C80.1326 35.3937 78.5703 37.1801 77.1092 39.0564C77.851 35.4044 78.5056 31.7319 79.073 28.0389C79.1241 28.157 79.2685 28.2384 79.368 28.1083C80.8072 26.2402 82.0709 24.2296 83.1414 22.105C84.2544 20.0156 85.1092 17.7856 85.6849 15.4691C86.5992 11.8527 86.2977 8.01768 84.8317 4.6148C84.4618 3.81817 84.0059 3.06927 83.4729 2.38293C82.8621 1.5816 82.0959 0.758118 81.0873 0.586114C79.4257 0.312062 78.337 1.96327 77.7232 3.33228C75.9152 7.33839 74.4129 11.7132 74.3763 16.1945C74.3459 20.2556 75.6447 24.4923 78.5494 27.2943C77.6985 31.8688 76.7607 36.4165 75.7362 40.9374C75.7126 40.9978 75.6674 41.0359 75.6282 41.0895C75.5976 41.1307 75.5825 41.1823 75.5857 41.2345C75.5888 41.2866 75.6101 41.3357 75.6453 41.3723C75.1352 43.591 74.6046 45.8052 74.0535 48.0147C74.0161 47.2235 73.938 46.4276 73.8327 45.6391C75.4688 42.264 75.828 38.3637 74.8375 34.7271C73.8933 31.1575 71.8227 28.0354 68.9662 25.8742C67.7538 24.9482 66.0595 23.7311 64.4762 23.8944C62.575 24.0937 62.173 26.1497 62.1832 27.8196C62.2579 31.4314 63.2573 34.9525 65.0759 38.0115C66.8944 41.0705 69.4647 43.5538 72.5154 45.1995C72.5672 45.232 72.6233 45.2562 72.6819 45.2713C72.8408 46.1955 72.9512 47.1285 73.0125 48.0658C73.0758 49.1949 73.0649 50.3433 73.146 51.4737C72.4512 54.1082 71.7334 56.7392 70.9666 59.3555C69.3735 64.8187 67.6178 70.231 65.7426 75.5918C65.7936 75.0565 65.8521 74.518 65.8854 73.9814C65.9973 72.1079 66.0278 70.2355 65.9767 68.3643C65.8841 64.9293 65.5918 61.4145 64.5491 58.1401C64.0748 56.5433 63.3716 55.0328 62.4638 53.6606C61.5911 52.394 60.3811 51.2128 58.8186 51.0583C58.1212 51.0228 57.43 51.216 56.8402 51.6112C56.2504 52.0064 55.7911 52.5842 55.5255 53.2649C55.2469 53.9399 55.1005 54.6669 55.0953 55.4022C55.09 56.1375 55.226 56.8659 55.4951 57.5438C56.9619 61.475 60.9363 62.8611 64.4762 63.9125C64.519 63.9199 64.5623 63.9235 64.6056 63.9234C64.7911 65.2846 64.9019 66.6968 64.9806 68.0824C65.0745 69.9165 65.0939 71.7548 65.0387 73.5973C65.0066 74.5508 64.958 75.4843 64.8861 76.4463C64.8809 76.5529 64.8684 76.6628 64.858 76.7673C64.206 75.536 63.3705 74.4233 62.3832 73.4715C62.3619 73.3681 62.309 73.275 62.2328 73.2063C62.1565 73.1376 62.0609 73.097 61.9606 73.0908C60.7973 72.0523 59.4739 71.2308 58.0473 70.6613C56.7444 70.1382 54.2862 69.2582 53.5308 71.1299C52.8754 72.8077 54.9155 73.8086 56.06 74.1929C57.9372 74.8034 59.9462 74.8081 61.8287 74.2063L61.9603 74.3206C63.0378 75.34 63.9774 76.51 64.753 77.7982C64.7353 78.0148 64.7154 78.2369 64.7102 78.4524C62.6174 84.2768 60.3876 90.0421 58.0207 95.7484C54.9099 103.261 51.5849 110.668 48.1132 118C47.8583 118.325 47.6139 118.656 47.3672 118.991C47.7682 116.461 48.0976 113.916 48.3553 111.358C48.5733 109.172 48.7475 106.983 48.8777 104.793C48.9037 104.369 48.9172 103.945 48.9367 103.537C50.565 100.679 51.4718 97.4309 51.5708 94.1027C51.7384 90.7073 51.1661 87.3185 49.8978 84.1956C49.6379 83.3551 49.1187 82.6308 48.4225 82.1377C48.1345 81.9813 47.8152 81.8995 47.491 81.899C47.1667 81.8985 46.8468 81.9793 46.5577 82.1348C45.2685 82.7899 44.5942 84.3763 44.0853 85.6944C42.9102 88.8362 42.5704 92.254 43.1027 95.5796C43.635 98.9053 45.0191 102.013 47.106 104.568C47.163 104.64 47.2387 104.693 47.324 104.721C47.4092 104.748 47.5002 104.749 47.5861 104.723L47.5809 104.83C47.4694 106.951 47.3241 109.071 47.1451 111.189C46.8435 114.871 46.4529 118.578 46.047 122.247C45.1456 124.087 44.2359 125.918 43.3188 127.752C43.3188 127.752 43.3069 127.69 43.2873 127.662C42.9555 127.255 42.4864 127 41.9788 126.951L40.4347 126.516L37.1528 125.582C36.7048 125.453 36.2504 125.34 35.7981 125.222C35.7981 125.222 35.7981 125.222 35.7746 125.174C32.6216 122.512 29.1136 120.353 25.3626 118.765C22.0384 117.441 18.2529 116.739 14.7103 117.608C13.1846 117.982 11.7513 118.959 11.6504 120.774C11.5495 122.588 12.6775 124.041 13.8575 125.081C16.5987 127.493 20.5003 128.303 23.9569 128.556C27.926 128.845 31.9089 128.21 35.6232 126.697C35.6973 126.666 35.7646 126.619 35.8212 126.56C35.8778 126.501 35.9224 126.43 35.9524 126.352L36.8729 126.672L40.0296 127.693L41.5606 128.193C42.0052 128.41 42.5054 128.468 42.985 128.358C42.56 129.213 42.1329 130.073 41.6975 130.923C40.2836 133.692 38.848 136.449 37.3905 139.195C37.4177 138.969 37.4449 138.744 37.4752 138.527C37.6185 137.679 37.7014 136.822 37.7233 135.962C37.7148 135.411 37.6673 134.862 37.5812 134.319C37.5902 134.303 37.5967 134.287 37.6005 134.269C37.633 133.944 37.611 133.616 37.5356 133.3C37.5316 132.831 37.4772 132.365 37.3734 131.91C37.1114 130.791 36.5024 129.472 35.4565 128.944C35.1811 128.798 34.8745 128.73 34.5661 128.745C34.2578 128.76 33.9582 128.859 33.6964 129.032C33.2313 129.38 32.8941 129.886 32.7414 130.465C32.4627 131.557 32.5969 132.719 33.1157 133.707C33.498 134.48 34.0786 135.123 34.7915 135.563L34.8175 135.575C34.9756 135.835 35.2198 136.025 35.503 136.107C35.7022 136.251 35.8919 136.403 36.0975 136.53C36.3668 136.721 36.6528 136.885 36.9516 137.02C36.932 137.428 36.8999 137.837 36.8562 138.26C36.7001 139.114 36.6001 139.978 36.5567 140.847C32.5612 148.337 28.4265 155.747 24.2256 163.078C24.6693 160.848 24.9439 158.584 25.0467 156.309C25.155 155.907 25.2612 155.511 25.3735 155.13C25.6797 154.128 25.9943 153.136 26.3266 152.146C26.7029 151.027 27.0948 149.914 27.5128 148.813C27.5878 148.855 27.6718 148.876 27.7567 148.873C29.3828 148.818 31.1582 148.552 32.2148 147.092C33.0893 145.88 33.0014 143.927 31.5992 143.175C30.0609 142.352 28.7057 143.908 28.1225 145.245C27.2946 147.163 26.5911 149.166 25.9348 151.157C25.638 152.041 25.3673 152.937 25.0965 153.832C25.0696 151.351 24.6986 148.888 23.9952 146.522C23.5478 144.995 22.9094 143.537 22.0966 142.187C21.2982 140.901 20.1054 139.785 18.5634 139.78C15.2558 139.784 15.0562 144.496 15.6536 146.918C16.1004 148.683 17.0327 150.269 18.3336 151.476C19.6345 152.682 21.2459 153.457 22.9655 153.702C23.1142 153.721 23.2647 153.684 23.3896 153.596C23.4494 153.608 23.5085 153.622 23.5668 153.64C23.6312 153.66 23.6993 153.662 23.7648 153.647C23.8303 153.631 23.8911 153.599 23.9416 153.552C23.9695 154.352 23.9723 155.154 23.9448 155.956C23.8663 157.768 23.6767 159.574 23.377 161.361C23.1326 162.889 22.8007 164.393 22.5666 165.925C16.1187 177.079 9.48065 188.113 2.83746 199.145C2.00518 200.529 1.1781 201.915 0.377958 203.325C-0.0693843 204.113 1.07049 204.758 1.54355 204.013C5.05716 198.519 8.33637 192.848 11.7328 187.265C13.3841 184.5 15.034 181.728 16.6827 178.95C19.6704 176.778 22.7579 174.662 26.23 173.506C26.7421 174.613 27.5713 175.521 28.6008 176.104C29.6138 176.767 30.7649 177.162 31.9558 177.255C32.5014 177.332 33.0566 177.284 33.5834 177.114C34.1103 176.944 34.5963 176.656 35.0084 176.271C35.367 175.928 35.6081 175.47 35.6942 174.968C35.7802 174.466 35.7064 173.949 35.4842 173.497C34.4406 171.625 31.5456 171.755 29.8023 171.939C27.4331 172.225 25.1339 172.972 23.022 174.142C20.984 175.282 19.0433 176.607 17.2215 178.099C18.7684 175.477 20.3076 172.855 21.8391 170.23C22.9278 168.361 24.003 166.48 25.0899 164.585C25.3019 164.478 25.5118 164.376 25.7269 164.276C26.7257 163.944 27.7144 163.576 28.7031 163.208C28.7031 163.208 28.7343 163.221 28.7499 163.228C31.7359 163.97 34.7699 164.496 37.7673 165.039L39.5308 165.363C39.5854 165.457 39.6711 165.525 39.7713 165.556C39.7689 165.595 39.775 165.635 39.7894 165.671C39.8037 165.707 39.8258 165.739 39.8539 165.765C40.7092 166.378 41.6099 166.918 42.5474 167.38C43.4673 167.873 44.4 168.333 45.355 168.75C47.1272 169.566 48.9765 170.183 50.8723 170.59C52.528 170.934 54.2211 171.039 55.9048 170.901C57.5878 170.797 59.2301 170.309 60.7179 169.471C61.9759 168.694 62.795 167.266 62.0737 165.783C61.4396 164.465 60.0215 163.739 58.7993 163.18C55.7634 161.812 52.459 161.229 49.1618 161.48C45.8646 161.73 42.6702 162.807 39.845 164.621L37.732 164.242C34.9881 163.751 32.2432 163.247 29.476 162.894C33.4703 161.368 37.3412 159.503 41.0504 157.318C44.0688 157.454 47.0801 156.886 49.869 155.655C51.3428 155.039 52.755 154.269 54.0844 153.359C55.4533 152.469 56.6968 151.381 57.778 150.127C58.7633 148.911 59.5521 147.374 59.3339 145.724C59.2231 145.029 58.9496 144.375 58.5378 143.82C58.1261 143.266 57.5893 142.829 56.976 142.549C54.0249 141.11 51.0747 142.843 48.9622 145.046C46.0369 148.175 43.677 151.839 41.9983 155.856C41.6724 156.068 41.3569 156.285 41.0332 156.491C40.8377 156.618 40.636 156.73 40.4448 156.846C40.4448 156.846 40.3934 156.869 40.3796 156.889C37.4521 158.708 34.4124 160.32 31.2811 161.712C30.3096 162.145 29.3236 162.553 28.3368 162.948C28.3066 162.923 28.2706 162.908 28.2328 162.903C27.3777 163.017 26.53 163.186 25.6945 163.41C30.4458 155.106 35.086 146.728 39.5475 138.247C43.2842 135.487 47.2739 133.129 51.4565 131.208C51.5152 131.36 51.6136 131.491 51.7402 131.587C54.8327 133.97 58.7148 135.732 62.6003 134.716C64.2434 134.315 65.7299 133.39 66.8567 132.067C67.8493 130.848 68.6709 129.056 68.076 127.467C67.3042 125.367 64.9865 125.527 63.26 125.917C61.5336 126.307 59.9286 126.775 58.2928 127.306C58.1783 127.285 58.0603 127.31 57.962 127.375L57.8778 127.435L57.8359 127.449C54.6906 128.501 51.6307 129.82 48.6863 131.392C50.8913 129.175 52.8843 126.736 54.6365 124.11C55.4113 122.951 56.754 121.179 55.491 119.853C55.249 119.622 54.9642 119.447 54.6544 119.337C54.3447 119.228 54.0167 119.187 53.6909 119.218C53.3652 119.248 53.0488 119.349 52.7616 119.514C52.4743 119.679 52.2224 119.905 52.0216 120.177C50.771 121.823 51.2941 123.938 51.844 125.751C51.844 125.751 51.844 125.751 51.8752 125.764C51.9064 125.778 51.8752 125.764 51.8645 125.791C51.833 126.028 51.9995 126.317 52.2648 126.214C51.5959 127.117 50.9053 127.998 50.1847 128.847C49.1673 130.036 48.1042 131.186 47.0155 132.292C44.6783 133.64 42.4325 135.158 40.2944 136.833C40.4838 136.473 40.6805 136.109 40.8699 135.749C44.0894 129.581 47.1849 123.348 50.1564 117.048C50.4137 116.794 50.6732 116.534 50.9357 116.282C52.067 115.206 53.19 114.121 54.3377 113.065C56.6149 110.98 58.9774 109.009 61.4252 107.151C62.5417 106.3 63.6913 105.489 64.8471 104.693C64.8933 104.763 64.9533 104.821 65.023 104.865C66.4175 105.651 67.7664 106.508 69.1025 107.398C69.7429 107.827 70.377 108.274 71.012 108.733C71.3149 108.953 71.6197 109.2 71.9539 109.434C71.9798 109.515 72.0278 109.587 72.0919 109.64L72.1696 109.706C71.7752 111.177 71.5142 112.684 71.3901 114.207C71.2209 115.931 71.2057 117.668 71.3447 119.395C71.6224 122.481 72.796 125.824 75.6272 127.243C78.1028 128.483 81.3846 127.565 82.342 124.679C83.3263 121.708 81.6202 118.218 80.0941 115.792C79.1623 114.305 78.061 112.944 76.8148 111.74C76.2122 111.167 75.5801 110.629 74.9215 110.13L74.9527 110.143C78.3651 111.944 81.9654 113.321 85.6813 114.248C87.2759 114.647 89.2959 115.357 90.8564 114.505C92.417 113.653 92.469 111.933 91.6136 110.59C90.7263 109.372 89.5639 108.406 88.2316 107.781C86.9269 107.111 85.5255 106.671 84.084 106.481C82.4737 106.271 80.8402 106.36 79.258 106.745C78.4507 106.949 77.6636 107.234 76.9077 107.597C76.1537 107.897 75.4714 108.369 74.9095 108.978C73.4263 108.185 71.9887 107.322 70.5841 106.39C69.1795 105.458 67.9417 104.457 66.5934 103.536C69.9628 101.292 73.4607 99.2689 77.067 97.4799C78.4868 96.7807 79.9244 96.119 81.3797 95.4949C84.6021 96.9509 88.1376 97.4726 91.6202 97.0061C95.3306 96.6003 98.8946 95.2547 102.008 93.0843C102.775 92.5422 103.508 91.9488 104.203 91.3077C105.059 90.6343 105.731 89.7349 106.151 88.7009ZM90.2998 48.5588C88.804 49.0436 87.3615 49.6954 85.9968 50.5032C85.1737 50.93 84.3628 51.3877 83.555 51.8532C87.2124 46.5045 92.9296 42.62 99.3759 43.0149C100.818 43.1046 102.545 43.3363 103.752 44.2601C104.067 44.4728 104.312 44.7842 104.451 45.1508C104.59 45.5174 104.617 45.9208 104.527 46.3047C104.249 47.1408 103.782 47.8936 103.166 48.4982C100.903 50.9005 98.0144 52.5431 94.8676 53.2179C92.8658 53.6742 90.8239 53.9045 88.7767 53.9049C86.7601 53.9327 84.7531 53.7339 82.7521 53.7685C83.7986 53.1433 84.8543 52.5412 85.9326 51.9745C86.7013 51.5627 87.499 51.1698 88.2955 50.7956C89.1317 50.4457 89.9488 50.0472 90.7432 49.6019C90.8305 49.5165 90.8899 49.4042 90.9129 49.2811C90.9358 49.1581 90.9211 49.0306 90.8709 48.9171C90.8206 48.8035 90.7374 48.7098 90.6333 48.6494C90.5291 48.589 90.4093 48.5649 90.2912 48.5808L90.2998 48.5588ZM87.3154 26.3252C88.3997 24.6126 89.6646 23.0344 91.0858 21.6209C93.5645 19.0938 96.6176 17.2791 99.9514 16.3515C101.444 15.9696 103.801 15.3197 104.888 16.8454C105.911 18.2727 105.65 20.4343 105.065 21.995C103.689 25.6559 100.144 27.8241 96.7909 29.1723C93.4104 30.5416 89.8007 31.1663 86.1852 31.0078C87.3008 30.0344 88.4361 29.0887 89.5735 28.1375C90.0634 27.708 89.4082 26.8491 88.9137 27.2126C87.566 28.2375 86.2679 29.3329 85.0242 30.4946C85.7488 29.1221 86.4519 27.6955 87.3068 26.3471L87.3154 26.3252ZM79.3361 26.4162C79.437 25.691 79.5306 24.969 79.6316 24.2438C79.7329 23.4867 79.8644 22.7299 79.9124 21.969C79.9218 21.9518 79.929 21.9334 79.9338 21.9142C79.9317 21.8575 79.9103 21.8035 79.8735 21.7621C79.8367 21.7207 79.787 21.6946 79.7334 21.6886C79.6798 21.6825 79.6259 21.697 79.5815 21.7292C79.537 21.7615 79.5051 21.8095 79.4914 21.8644C79.2584 23.2075 79.021 24.5466 78.7791 25.8815C76.8655 23.6509 75.7228 20.8048 75.5352 17.8021C75.1972 13.8129 76.2855 9.79773 77.7297 6.14732C78.081 5.24812 78.4365 4.33794 78.871 3.4746C79.1361 2.81923 79.5841 2.26382 80.1555 1.88217C80.9924 1.43568 81.7685 2.10963 82.3141 2.73553C82.8531 3.35899 83.3157 4.05117 83.6912 4.79595C85.2247 7.76295 85.4234 11.3463 84.8259 14.6185C84.3668 16.9538 83.5979 19.2102 82.5419 21.3213C81.6454 23.1963 80.5848 24.9621 79.6237 26.8156C79.594 26.7557 79.5562 26.7005 79.5114 26.6519C79.456 26.5448 79.3982 26.475 79.3361 26.4162ZM73.5695 43.9946C73.3223 42.6527 72.9808 41.3322 72.5479 40.0439C72.3278 39.3939 72.0863 38.7517 71.8236 38.1175C71.6445 37.4765 71.2907 36.9053 70.806 36.4746C70.7434 36.4402 70.6735 36.4232 70.6028 36.4251C70.5321 36.4271 70.463 36.4479 70.4021 36.4857C70.3411 36.5235 70.2902 36.577 70.2542 36.6412C70.2183 36.7054 70.1984 36.7781 70.1965 36.8525C70.1696 37.4816 70.5576 38.0908 70.7957 38.6482C71.0338 39.2056 71.2795 39.8368 71.4932 40.4414C71.8577 41.5173 72.1615 42.615 72.403 43.729C69.9984 42.3264 67.9367 40.3553 66.3796 37.9703C64.8225 35.5854 63.8124 32.8516 63.4287 29.9835C63.3303 29.2091 63.2819 28.4285 63.2839 27.647C63.2878 26.9056 63.3107 25.9289 63.8581 25.3833C64.9107 24.3379 66.9117 25.828 67.8282 26.4536C70.4762 28.285 72.4888 30.9702 73.5658 34.1086C74.6468 37.5044 74.6805 41.1757 73.662 44.5982C73.6283 44.4043 73.6041 44.2017 73.5695 43.9946ZM49.0472 101.497C49.0915 100.465 49.2322 99.2959 48.9179 98.2956C48.8874 98.2006 48.8291 98.1184 48.7513 98.0607C48.6735 98.0029 48.5803 97.9727 48.485 97.9744C48.3897 97.9761 48.2974 98.0096 48.2212 98.07C48.145 98.1305 48.0889 98.2147 48.0611 98.3107C47.6798 99.2867 47.7781 100.482 47.7368 101.521C47.7151 102.153 47.683 102.779 47.6561 103.408C45.9661 101.277 44.7918 98.7449 44.2335 96.0291C43.6751 93.3133 43.7493 90.494 44.4495 87.8116C44.7596 86.4397 45.2996 85.1366 46.044 83.9633C46.1924 83.7002 46.39 83.4713 46.6246 83.2906C46.8592 83.1098 47.126 82.9809 47.409 82.9116C48.2331 82.8248 48.6771 83.804 48.9602 84.4641C50.1382 87.2808 50.7183 90.3356 50.6601 93.4156C50.6364 95.1347 50.4287 96.8459 50.0409 98.5169C49.7766 99.6084 49.4413 100.68 49.0377 101.723C49.0352 101.652 49.0423 101.571 49.0472 101.497ZM25.9707 127.509C22.761 127.541 19.2701 127.049 16.3731 125.519C14.9667 124.778 13.5104 123.683 12.854 122.08C12.6935 121.748 12.6048 121.381 12.5941 121.008C12.5834 120.635 12.651 120.263 12.7921 119.92C12.9998 119.576 13.2718 119.28 13.5916 119.05C13.9113 118.82 14.2721 118.661 14.6519 118.582C17.8306 117.633 21.4451 118.307 24.4875 119.387C28.0044 120.653 31.1098 122.786 34.292 124.753C33.0799 124.448 31.8678 124.144 30.66 123.828C30.5867 123.809 30.5093 123.822 30.4448 123.863C30.3802 123.904 30.3338 123.971 30.3158 124.048C30.2977 124.125 30.3095 124.207 30.3485 124.275C30.3875 124.343 30.4506 124.391 30.5239 124.41C31.8807 124.873 33.2342 125.36 34.5919 125.836C31.8265 126.899 28.912 127.465 25.9707 127.509ZM46.7209 166.187C45.2376 165.706 43.7195 165.352 42.1813 165.128L41.0445 164.926C43.4028 163.566 45.9959 162.718 48.6693 162.434C51.3426 162.15 54.0416 162.435 56.6056 163.272C57.9686 163.659 59.2581 164.289 60.4188 165.134C60.9333 165.498 61.3169 166.033 61.5085 166.654C61.5672 167.064 61.5028 167.484 61.3242 167.855C61.1455 168.226 60.8616 168.529 60.5119 168.723C59.137 169.568 57.5929 170.062 56.0049 170.163C54.4107 170.319 52.8041 170.243 51.2306 169.937C49.2781 169.545 47.3729 168.928 45.5493 168.098C44.5973 167.687 43.6658 167.209 42.7301 166.742C41.9565 166.357 41.1927 165.932 40.3977 165.602L42.1841 165.93C43.6617 166.25 45.1619 166.442 46.6698 166.505C46.862 166.511 46.8739 166.247 46.7157 166.185L46.7209 166.187ZM42.9093 156.185C43.7554 155.653 44.588 155.108 45.4114 154.541C46.2348 153.973 47.1583 153.321 48.0035 152.666C48.8674 152.084 49.6639 151.397 50.3768 150.62C50.424 150.565 50.4513 150.493 50.4538 150.419C50.4563 150.344 50.434 150.271 50.3906 150.212C50.3473 150.153 50.2857 150.112 50.2165 150.096C50.1472 150.08 50.0748 150.089 50.0117 150.124C49.2301 150.592 48.4875 151.129 47.792 151.729C47.0609 152.294 46.3257 152.849 45.5864 153.393C44.9068 153.888 44.2137 154.37 43.5228 154.848C44.7993 152.155 46.3851 149.637 48.2444 147.351C49.9959 145.216 52.4453 142.524 55.412 143.098C56.0076 143.177 56.5743 143.413 57.0594 143.784C57.5444 144.156 57.9321 144.651 58.1863 145.223C58.7228 146.697 57.9579 148.25 57.0623 149.376C55.2404 151.659 52.5782 153.324 50.0198 154.522C47.7023 155.567 45.2539 156.253 42.7511 156.559C42.7952 156.43 42.8548 156.309 42.9041 156.183L42.9093 156.185ZM76.9793 108.845C77.5517 108.541 78.148 108.29 78.7614 108.095C80.014 107.691 81.3194 107.501 82.6281 107.532C85.2421 107.555 87.7701 108.506 89.8024 110.233C90.7058 111.032 91.8573 112.752 90.2774 113.544C89.5181 113.837 88.6907 113.868 87.9145 113.634C87.05 113.467 86.1911 113.269 85.3407 113.05C82.2171 112.249 79.1773 111.124 76.2661 109.69L76.3781 109.668C76.7694 109.6 77.1565 109.543 77.5519 109.495C78.2694 109.41 78.9918 109.381 79.7132 109.408C80.4292 109.425 81.1431 109.496 81.8497 109.618C82.2148 109.679 82.5807 109.753 82.9446 109.833C83.2517 109.939 83.5765 109.976 83.8984 109.943C83.9317 109.933 83.962 109.913 83.9863 109.887C84.0106 109.861 84.028 109.828 84.0369 109.793C84.0459 109.758 84.046 109.72 84.0374 109.685C84.0287 109.65 84.0115 109.617 83.9874 109.591C83.7261 109.379 83.4153 109.245 83.0874 109.203C82.7096 109.091 82.3252 109.004 81.9366 108.944C81.1948 108.82 80.4447 108.758 79.6933 108.759C78.9678 108.766 78.2436 108.826 77.5258 108.939C77.1561 108.997 76.7892 109.074 76.4267 109.17C76.617 109.041 76.7914 108.937 76.9741 108.843L76.9793 108.845ZM74.9297 116.379C74.7839 115.659 74.5913 114.952 74.3534 114.26C74.1046 113.512 73.8506 112.762 73.5966 112.012C73.424 111.489 73.2685 110.923 73.0552 110.395C73.8337 110.909 74.5858 111.467 75.3084 112.064C76.3324 112.963 77.2672 113.969 78.0983 115.067C78.9328 116.169 79.6572 117.359 80.2603 118.618C80.9311 119.876 81.3418 121.269 81.4655 122.706C81.5288 123.362 81.4197 124.025 81.1502 124.622C80.8808 125.218 80.4612 125.726 79.9372 126.09C79.4373 126.401 78.8801 126.596 78.303 126.661C77.726 126.726 77.1427 126.66 76.5926 126.467C73.8768 125.547 72.6554 122.388 72.3514 119.65C72.1123 116.817 72.2063 113.964 72.6311 111.154L72.9399 112.075C73.1887 112.823 73.4375 113.571 73.6683 114.349C73.8814 115.007 74.0601 115.676 74.2039 116.354C74.2723 116.709 74.3209 117.068 74.3493 117.429C74.3756 117.735 74.3796 118.083 74.6082 118.322C74.6432 118.355 74.6886 118.372 74.7352 118.371C74.7819 118.37 74.8264 118.35 74.86 118.316C75.2985 117.909 75.0209 116.892 74.9245 116.377L74.9297 116.379ZM77.97 88.369C78.5709 86.7062 79.151 85.0344 79.7308 83.3945L80.6123 80.9045C80.9567 80.1 81.1674 79.2396 81.2353 78.3607C81.2321 78.2887 81.2095 78.2191 81.1701 78.1602C81.1306 78.1013 81.076 78.0554 81.0127 78.0281C80.9493 78.0008 80.8798 77.9932 80.8123 78.006C80.7449 78.0189 80.6823 78.0517 80.6318 78.1007C80.1395 78.7957 79.7652 79.575 79.5254 80.4041C79.2451 81.1993 78.9649 81.9946 78.6794 82.7876C78.136 84.3343 77.5822 85.8765 77.0388 87.4232C76.6443 86.2909 76.4946 85.0797 76.6005 83.8776C76.689 81.9299 76.9255 79.9925 77.3077 78.0839C78.0328 74.4695 79.4862 70.9512 82.1024 68.408C82.7435 67.7938 85.7578 65.1339 86.3662 66.735C86.5804 67.4937 86.6821 68.283 86.6677 69.075C86.7078 69.8722 86.706 70.6713 86.6626 71.4686C86.4718 74.7686 85.6023 77.9873 84.1142 80.9018C82.5667 83.9491 80.4345 86.6255 77.8534 88.7608C77.8641 88.6245 77.9082 88.4961 77.9596 88.3645L77.97 88.369ZM103.597 90.2458C102.964 90.8432 102.296 91.3985 101.598 91.9084C98.8015 93.9286 95.6055 95.2506 92.2536 95.7736C88.9388 96.2507 85.5681 96.0122 82.347 95.0726C83.7715 94.5672 85.1565 93.9453 86.4893 93.2127C86.8644 92.9836 86.7243 92.2377 86.2368 92.3031C84.7299 92.5974 83.2609 93.0782 81.8604 93.7354C81.5321 93.8758 81.2151 94.0338 80.8867 94.1742C81.4347 93.4559 81.8726 92.6773 82.4228 91.9535C83.0057 91.1928 83.6466 90.4835 84.3392 89.8326C85.7339 88.5296 87.3131 87.4637 89.0194 86.6735C92.5921 85.0671 96.517 84.5402 100.353 85.1518C101.338 85.2741 102.309 85.4892 103.257 85.7945C104.076 86.0772 105.003 86.6753 105.12 87.6674C105.237 88.6595 104.265 89.6241 103.597 90.2458Z" fill="#94AE94"/>
</svg>
