<svg width="78" height="237" viewBox="0 0 78 237" fill="none" xmlns="http://www.w3.org/2000/svg">
<path d="M49.5653 43.4968C44.6696 49.2607 40.2688 55.5317 36.4262 62.2196C32.6017 68.8845 29.342 75.9258 26.6925 83.2459C25.3961 86.838 24.2559 90.4906 23.2719 94.2036C22.8165 88.5119 22.5327 82.8013 22.4205 77.0718C26.728 74.1229 30.3874 70.0808 33.0939 65.2824C33.1696 65.1898 33.2132 65.0701 33.2163 64.9464C33.2195 64.8228 33.1819 64.7039 33.1109 64.6129C33.0399 64.5219 32.9405 64.465 32.8319 64.4535C32.7233 64.4419 32.6132 64.4763 32.5228 64.5501C30.1585 65.6493 27.9581 67.1791 26.0122 69.0765C25.0635 69.9979 24.1828 71.0054 23.3795 72.0883C23.0409 72.5568 22.7116 73.0583 22.3835 73.5646C22.3454 70.07 22.376 66.5693 22.4752 63.0623C25.4551 61.6614 28.1938 59.4817 30.6857 57.1587C32.4101 55.5423 34.0266 53.783 35.5207 51.8963L35.8417 51.5499C35.8944 51.4901 35.937 51.42 35.9671 51.3434C36.497 50.6633 37.0089 49.9694 37.5028 49.2616C37.7901 48.8448 37.3232 48.3173 36.9357 48.5435C31.433 51.7691 26.5257 56.1981 22.5111 61.562C22.5907 59.1374 22.6954 56.7133 22.8253 54.2897C23.001 51.1905 23.2523 48.0928 23.516 45.0059C25.5978 43.4832 27.2879 41.2149 28.661 38.9043C30.1132 36.4553 31.2499 33.7945 32.0354 31.0053C32.8289 28.2314 33.2527 25.3546 33.2927 22.4712C33.3185 19.0543 32.7606 15.716 32.1994 12.3999C31.6562 9.18146 31.1177 5.92969 31.1501 2.62011C31.1684 2.5344 31.1952 2.44535 31.2135 2.35964C31.235 2.23947 31.2172 2.11624 31.1635 2.01305C31.1733 1.61148 31.1873 1.20824 31.2209 0.807749C31.2299 0.66698 31.1912 0.529653 31.1127 0.423613C31.0342 0.317574 30.9218 0.250756 30.7982 0.236696C30.7739 0.205761 30.7425 0.183058 30.7072 0.170976C30.6719 0.158891 30.6341 0.157863 30.5975 0.167996C30.561 0.178128 30.5272 0.199054 30.4996 0.22858C30.4721 0.258109 30.4518 0.295154 30.4408 0.335845L30.3943 0.354202C26.3624 4.48045 23.2307 9.60165 21.2623 15.2874C19.1744 21.3684 18.5096 27.899 19.3338 34.2331C19.8203 37.9141 20.7887 41.4731 22.2078 44.7948C22.2333 44.8601 22.2712 44.9178 22.319 44.964C22.3667 45.0102 22.4232 45.0438 22.4846 45.0623C22.3929 46.1451 22.2783 47.1794 22.1886 48.2352C22.1241 49.0456 22.0765 49.8494 22.0188 50.6675C21.8982 50.5215 21.7847 50.3675 21.6711 50.2134C21.5576 50.0593 21.6039 49.973 21.5696 49.8505C21.6007 49.7671 21.6134 49.6772 21.6066 49.5886C21.5999 49.5001 21.5738 49.4155 21.5309 49.3425C21.4496 49.1862 21.3725 49.0282 21.2968 48.875C20.7116 46.8672 19.9935 44.9169 19.1484 43.0402C17.6752 39.7343 15.8655 36.6438 13.7546 33.8288C13.4671 33.4556 12.8046 33.7903 12.9271 34.3123C14.5046 40.7937 17.3641 46.7376 21.2951 51.7067C21.4612 52.3005 21.6471 52.8813 21.8174 53.4734C21.3666 60.4472 21.1715 67.4231 21.2321 74.401C20.4823 71.0931 19.7283 67.7868 18.97 64.4822C18.2038 61.1215 17.4625 57.7823 16.5015 54.5141C14.806 48.7205 12.3762 43.1223 8.39673 38.9678C6.41999 36.8697 4.05622 35.2845 1.46053 34.316C1.38714 34.2874 1.30757 34.2817 1.23001 34.2994C1.15244 34.3172 1.07967 34.3577 1.01916 34.4169C1.00356 34.4139 0.987474 34.4145 0.971842 34.4186C0.956209 34.4227 0.941342 34.4303 0.928118 34.4409C0.914892 34.4515 0.903574 34.4648 0.894824 34.4802C0.886075 34.4956 0.880073 34.5127 0.87717 34.5305C0.8647 34.6034 0.860692 34.6731 0.852451 34.7443C0.854798 34.759 0.858783 34.7733 0.864313 34.7868C0.803453 35.5437 0.820316 36.3027 0.914568 37.0485C0.985288 37.973 1.08984 38.8842 1.21395 39.7981C1.43761 41.5884 1.69352 43.3766 2.0044 45.143C2.5913 48.6568 3.44337 52.0967 4.55145 55.4255C6.46955 61.0581 9.36461 66.3051 13.3551 70.314C14.4181 71.3954 15.5604 72.3745 16.7707 73.2415C17.3663 73.692 18.0272 74.0906 18.6815 74.4655C19.2101 74.8181 19.7743 75.1009 20.3637 75.3088C20.4144 75.3959 20.4851 75.4655 20.5686 75.5106C20.6521 75.5557 20.7455 75.5748 20.8394 75.5659C20.9722 75.7385 21.1051 75.9111 21.2408 76.0773C21.2427 76.0922 21.2467 76.1065 21.2526 76.1198C21.309 80.2839 21.4605 84.4524 21.7071 88.6252L21.4146 88.1336C21.408 88.11 21.4015 88.0865 21.3949 88.0629C19.5765 83.3001 17.0099 78.9725 13.8147 75.282C12.6057 73.8965 11.3144 72.6055 9.9491 71.4174C9.50779 71.0316 9.04119 71.6972 9.19387 72.1759C11.1961 78.5388 14.2914 84.3538 18.3072 89.2971C18.8831 89.9961 19.4817 90.6756 20.0933 91.3344C20.6245 92.026 21.2707 92.593 21.9977 93.0057C22.082 94.197 22.1663 95.3882 22.2648 96.5634C22.608 100.578 23.0537 104.573 23.574 108.548C20.8382 100.667 15.9206 94.0672 9.53024 89.6994C6.98634 87.8602 4.18042 86.5078 1.22053 85.6942C1.1952 85.6519 1.16043 85.618 1.11953 85.5957C1.07863 85.5735 1.03296 85.5636 0.986874 85.5671C0.940785 85.5706 0.895811 85.5873 0.856221 85.6157C0.816632 85.6441 0.783747 85.6831 0.7607 85.7292C0.723711 85.7473 0.690637 85.7748 0.664087 85.8093C0.637534 85.8439 0.618229 85.8847 0.607694 85.9284C0.59716 85.9721 0.59568 86.0176 0.603378 86.0613C0.611075 86.105 0.627738 86.1457 0.652049 86.1802C0.717516 86.28 0.785893 86.3733 0.85136 86.4731C1.19625 87.9749 1.64396 89.4414 2.09035 90.9032C2.59183 92.5787 3.11445 94.2459 3.67091 95.8997C4.75784 99.2029 6.05522 102.405 7.55318 105.483C10.1203 110.665 13.451 115.338 17.692 118.866C19.8509 120.67 22.2573 122.075 24.8257 123.031C25.3262 123.88 25.8308 124.728 26.3123 125.543C26.3958 125.975 26.4932 126.408 26.5767 126.841C26.6112 128.089 26.7168 129.33 26.8929 130.557C24.2838 126.656 20.4637 124.02 16.1517 123.147C14.5915 122.824 12.9904 122.751 11.3952 122.931C10.9393 122.98 10.809 123.79 11.1899 124.027C16.0391 127.043 20.8748 130.111 25.7041 133.14C26.1675 133.622 26.6238 134.112 27.0944 134.585C27.3902 134.887 27.6888 135.183 27.9917 135.477C28.0509 135.537 28.113 135.591 28.1708 135.647C28.3568 136.144 28.5612 136.623 28.7869 137.094C28.8144 137.143 28.8475 137.188 28.8853 137.228C29.478 139.699 30.096 142.161 30.7605 144.604C32.147 149.73 33.6998 154.795 35.3754 159.796C35.1039 159.631 34.8395 159.458 34.5722 159.291C32.2673 153.921 29.7572 148.438 25.5591 144.694C23.4301 142.897 21.0945 141.425 18.6097 140.315C15.8915 138.991 13.0851 137.822 10.3276 136.576C8.74255 135.862 7.16041 135.141 5.57376 134.438C4.74979 134.078 3.92873 133.711 3.10185 133.357C2.45603 133.052 1.79053 132.799 1.11014 132.599C1.0996 132.562 1.08774 132.519 1.05473 132.485C1.03374 132.444 1.00272 132.41 0.965096 132.387C0.927467 132.365 0.884683 132.355 0.841471 132.358C0.798258 132.362 0.756292 132.379 0.720196 132.407C0.684103 132.436 0.655285 132.474 0.636917 132.519C0.600124 132.531 0.566303 132.553 0.538941 132.583C0.511579 132.614 0.491663 132.652 0.481244 132.693C0.470825 132.735 0.470281 132.778 0.479666 132.819C0.48905 132.86 0.508028 132.897 0.534639 132.926C0.504051 132.968 0.488153 133.021 0.490071 133.075C0.491991 133.128 0.511584 133.178 0.545007 133.215C0.723506 133.417 0.909428 133.594 1.09347 133.799C3.8026 140.077 7.15867 145.953 11.0948 151.308C13.016 153.946 15.0106 156.628 17.4054 158.76C19.6353 160.726 22.3446 161.902 25.2092 162.149C28.4086 162.456 31.7022 161.857 34.8574 161.167C34.898 161.156 34.9377 161.14 34.9758 161.12C35.3234 161.339 35.671 161.558 36.0218 161.754C37.5247 166.143 39.1402 170.475 40.8681 174.75L40.791 174.676C40.4497 174.189 40.0717 173.736 39.6609 173.322C39.1006 172.695 38.5131 172.1 37.8985 171.537C36.7178 170.44 35.4447 169.475 34.0957 168.653C32.7521 167.839 31.3404 167.17 29.8785 166.654C29.1214 166.389 28.3514 166.169 27.5714 165.994C26.8471 165.778 26.0945 165.683 25.3376 165.714C25.3099 165.717 25.2829 165.727 25.2581 165.742C25.2333 165.757 25.2113 165.778 25.1933 165.802C24.8254 165.864 24.5402 166.322 24.8388 166.701C28.9651 171.917 34.7742 175.763 41.0439 176.722C41.1106 176.735 41.1794 176.732 41.2461 176.713C41.3128 176.695 41.3761 176.662 41.4321 176.616L41.7593 176.963C43.6817 181.598 45.7229 186.165 47.8828 190.664C48.0908 191.105 48.2966 191.506 48.4979 191.923C47.2632 190.696 45.9541 189.565 44.5792 188.54C39.3187 184.624 33.2657 182.241 27.1263 180.555C25.3345 180.059 23.5304 179.62 21.7203 179.209C19.9101 178.798 18.072 178.304 16.2384 178.279C16.1946 178.28 16.1518 178.299 16.1174 178.331C16.083 178.363 16.059 178.407 16.0494 178.455C16.0399 178.504 16.0453 178.554 16.0649 178.598C16.0845 178.641 16.117 178.675 16.157 178.693L16.2933 178.744C16.2936 178.804 16.3097 178.861 16.3394 178.909C18.6758 182.226 21.0863 185.472 23.4698 188.738C25.7363 191.805 27.9246 194.945 30.2668 197.93C32.3241 200.551 34.636 202.941 37.5062 204.388C40.1812 205.647 43.0806 206.252 46.0198 206.167C49.1259 206.105 52.2317 205.737 55.3018 205.068L55.478 205.161C60.7159 214.429 66.5052 223.271 72.8081 231.63C73.9727 233.175 75.1772 234.678 76.3902 236.177C76.5012 236.295 76.6491 236.36 76.8046 236.359C76.96 236.358 77.1117 236.291 77.2295 236.172C77.3474 236.052 77.4228 235.888 77.4407 235.713C77.4587 235.538 77.418 235.365 77.3266 235.227C69.8382 225.625 62.9781 215.415 56.797 204.672C56.7677 204.549 56.7062 204.44 56.6204 204.359C56.6072 204.312 56.5729 204.274 56.5512 204.23C56.545 204.112 56.5128 203.999 56.4576 203.901C56.4023 203.804 56.3257 203.724 56.2348 203.669C55.9563 203.177 55.685 202.677 55.4108 202.184C55.0142 201.073 54.5226 200.013 53.9426 199.016C53.4306 198.109 52.8659 197.248 52.2743 196.409C52.0927 196.062 51.9027 195.719 51.7211 195.372C52.3009 194.082 52.7559 192.731 53.0779 191.34C53.5209 189.706 53.8752 188.045 54.1388 186.369C54.5478 183.695 54.7354 180.993 54.6993 178.298L54.7261 178.126C54.7461 178.014 54.7323 177.9 54.6869 177.801C54.6802 177.223 54.6748 176.649 54.6498 176.073C54.6287 175.595 53.9655 175.49 53.7609 175.9C52.3367 178.712 51.3404 181.76 50.8152 184.912C50.351 187.587 50.2479 190.309 50.5095 192.987C47.9448 187.88 45.548 182.668 43.3192 177.352C43.4337 176.485 43.5315 175.609 43.6307 174.738C44.8597 173.718 46.0088 172.578 47.0641 171.332C48.269 169.998 49.4506 168.632 50.5757 167.215C52.8406 164.429 54.7715 161.324 56.3155 157.984C57.8195 154.508 58.9615 150.859 59.7178 147.112C60.5775 143.168 61.2559 139.179 61.8603 135.178C62.4648 131.177 62.9612 127.025 63.3474 122.932C63.4279 122.733 63.5002 122.521 63.5836 122.316C63.6423 122.196 63.663 122.058 63.6424 121.926C63.6217 121.794 63.5609 121.675 63.4702 121.591C63.4816 121.498 63.4888 121.406 63.496 121.314C63.5091 121.216 63.4999 121.116 63.4694 121.025C63.439 120.934 63.3881 120.853 63.3217 120.792C63.3277 120.73 63.3201 120.668 63.2995 120.611C63.279 120.555 63.2461 120.506 63.2039 120.468C63.1617 120.43 63.1115 120.405 63.0577 120.395C63.0039 120.385 62.9483 120.39 62.8957 120.41C61.1649 121.112 59.5142 122.062 57.9855 123.238C53.3168 126.607 49.3284 131.075 46.3068 136.319C42.1803 143.543 40.0917 151.949 40.3285 160.379C40.4557 165.118 41.303 169.766 42.8336 174.121C42.8585 174.186 42.8941 174.245 42.9384 174.295C42.8846 174.891 42.8321 175.493 42.8008 176.086C40.7799 171.211 38.8891 166.264 37.155 161.239C37.1623 161.115 37.1285 160.994 37.0601 160.9C36.5005 159.268 35.9577 157.63 35.4235 155.988C35.8884 155.493 36.2831 154.92 36.5926 154.292C36.9642 153.625 37.3051 152.939 37.6141 152.235C38.2711 150.721 38.8006 149.145 39.1954 147.529C39.6209 145.792 39.96 144.034 40.2111 142.262C40.2313 142.149 40.2416 142.035 40.2562 141.919C40.598 140.257 40.8655 138.58 41.0577 136.893C41.0622 136.804 41.0454 136.716 41.009 136.638C40.9725 136.56 40.9179 136.495 40.8508 136.451C40.7836 136.406 40.7064 136.383 40.6271 136.384C40.5479 136.385 40.4696 136.41 40.4003 136.457C40.3001 136.455 40.2005 136.486 40.114 136.548C40.0275 136.609 39.9579 136.697 39.9141 136.8C39.8596 136.944 39.8194 137.093 39.7943 137.245C36.3775 141.947 34.5758 147.844 34.7363 153.8C34.3611 152.592 33.9787 151.393 33.6175 150.185C32.631 146.859 31.7205 143.503 30.8608 140.127C30.8898 140.016 30.91 139.903 30.9213 139.789L31.1202 139.543C34.2138 138.045 37.0369 135.513 39.4318 132.893C42.0588 130.045 44.3134 126.791 46.1228 123.235C47.9533 119.599 49.2892 115.689 50.0836 111.641C50.8817 107.305 51.3821 102.919 51.5803 98.5221C51.8847 93.4987 52.1236 88.4592 52.8601 83.4694C52.9548 82.8511 52.2687 82.6142 51.8919 82.9461C45.671 88.4414 39.5363 94.2952 34.7386 101.437C30.7414 107.395 27.7199 114.322 26.8725 121.669C26.0753 117.274 25.3846 112.851 24.8002 108.399C24.8409 108.409 24.8837 108.401 24.921 108.378C26.7954 106.986 28.4557 105.249 29.8294 103.244C31.1933 101.206 32.3337 98.9949 33.2243 96.6604C33.3939 96.2429 32.9565 95.955 32.6488 96.0973C30.4829 97.1553 28.5558 98.7793 27.032 100.831C26.2762 101.828 25.6191 102.915 25.073 104.069C24.8266 104.587 24.6038 105.119 24.4055 105.661C24.2899 104.66 24.1553 103.625 24.0429 102.602C23.8275 100.656 23.6375 98.701 23.4628 96.75L23.6484 96.7082C23.6737 96.7275 23.7035 96.7385 23.7345 96.7401C23.7655 96.7417 23.7967 96.7337 23.8246 96.7171L23.9309 96.6438C24.6432 96.5023 25.3481 96.308 26.0411 96.0622C26.9866 95.7153 27.9231 95.3195 28.8383 94.8642C30.6491 93.9843 32.3996 92.9436 34.0727 91.752C37.46 89.3521 40.5073 86.3724 43.0999 82.9252C48.2803 75.9595 51.3586 67.3553 51.8634 58.4302C52.0091 55.9661 51.9653 53.5006 51.7326 51.0614C51.5465 48.6148 51.1033 46.2128 50.4122 43.9056C50.4352 43.4675 49.8953 43.1153 49.5653 43.4968ZM32.2676 20.636C32.531 26.3595 31.2343 32.1042 28.551 37.1005C27.8158 38.4653 26.9943 39.7707 26.0931 41.0061C25.3171 42.0764 24.4583 43.0694 23.6176 44.0762C23.6352 43.8704 23.6596 43.6724 23.6772 43.4666C26.8007 39.5233 28.5586 34.4077 29.474 29.3524C29.9941 26.3278 30.2384 23.2625 30.203 20.2053C30.202 17.3641 29.9499 14.5488 29.9506 11.6966C29.9502 10.152 30.0384 8.60519 30.2145 7.06584C30.2475 6.78071 30.2942 6.5111 30.3343 6.21793C30.7837 11.0486 32.0093 15.7666 32.2676 20.636ZM23.7535 42.7824C24.9462 30.9149 26.8036 19.1162 29.3145 7.45765C29.2355 8.29469 29.2038 9.12706 29.2192 9.95475C29.221 12.7485 29.4387 15.525 29.5317 18.3089C29.7314 24.2114 29.37 30.3406 27.3319 35.9488C26.4351 38.3981 25.229 40.699 23.7522 42.7776L23.7535 42.7824ZM20.0814 25.7066C20.7542 16.9631 24.2467 8.68177 29.8932 2.44108C26.4204 15.8134 24.0004 29.4634 22.6621 43.2288C20.5018 37.7803 19.6138 31.7527 20.0801 25.7019L20.0814 25.7066ZM17.6327 72.4618C16.545 71.7388 15.5099 70.9228 14.5362 70.0206C12.6191 68.2021 10.9272 66.1031 9.50242 63.7755C6.22949 58.5206 4.30436 52.3256 3.06558 46.0325C2.68215 44.0906 2.36873 42.1473 2.09339 40.1889C1.99268 39.4594 1.89619 38.7282 1.79548 37.9987C5.16071 48.7511 9.82045 58.8827 15.6474 68.1169C16.7906 69.9211 17.9707 71.7057 19.2218 73.4255C18.666 73.1006 18.1367 72.7862 17.6327 72.4618ZM16.8794 68.4418C15.3019 65.9245 13.7992 63.3498 12.3712 60.7177C9.56002 55.4894 7.08287 50.0321 4.95772 44.3857C3.92581 41.6532 2.98513 38.827 2.13853 35.9846C3.7819 37.7515 5.28504 39.6774 6.63199 41.7417C8.03738 43.9671 9.28508 46.3177 10.3641 48.7726C12.6768 53.9355 14.6696 59.2979 16.6275 64.6531C17.2075 66.2401 17.7931 67.8301 18.3731 69.417C18.7128 70.3296 19.033 71.3231 19.3917 72.27C18.5388 71 17.6914 69.7332 16.8781 68.4371L16.8794 68.4418ZM17.7392 63.8428C18.0111 65.0333 18.2841 66.2443 18.5507 67.416C18.2666 66.6856 17.9923 65.9565 17.7082 65.2261C16.5957 62.3736 15.4918 59.5176 14.3738 56.662C12.412 51.6119 10.3092 46.6121 7.45277 42.1243C6.01996 39.7816 4.30063 37.685 2.34313 35.8934C6.38471 37.768 9.59985 41.3555 11.8501 45.5226C14.867 51.0879 16.3313 57.5327 17.7379 63.8381L17.7392 63.8428ZM26.3929 160.823C23.6231 160.824 20.9459 159.902 18.6967 158.172C16.2959 156.304 14.3538 153.742 12.4731 151.266C10.4296 148.577 8.51305 145.754 6.7255 142.838C5.21562 140.378 3.7983 137.829 2.45024 135.242C5.99245 138.941 9.74916 142.383 13.5982 145.668C18.1689 149.565 22.9187 153.194 27.8297 156.541C29.6063 157.755 31.4119 158.905 33.2306 160.035C30.9699 160.536 28.6808 160.8 26.3929 160.823ZM8.27933 139.713C6.09552 137.765 3.95192 135.759 1.80699 133.748L2.48855 134.086C3.18119 134.43 3.88389 134.76 4.58236 135.091C5.98105 135.76 7.38134 136.418 8.78322 137.065C11.4776 138.315 14.1685 139.575 16.856 140.845C19.3361 142.022 21.8082 143.255 24.0053 144.999C26.1084 146.722 27.914 148.859 29.3403 151.313C30.6063 153.497 31.7387 155.779 32.73 158.145C24.1573 152.713 15.9797 146.552 8.26533 139.713L8.27933 139.713ZM18.9599 181.025C20.5079 182.346 22.0888 183.616 23.6899 184.858C26.1459 186.772 28.6374 188.662 31.1675 190.421C36.2935 194.018 41.5451 197.376 46.9222 200.494C48.6048 201.473 50.3163 202.404 52.031 203.313C47.6559 203.06 43.3998 201.84 39.5027 199.722C34.1225 196.89 29.5042 192.752 25.2309 188.185C23.9993 186.871 22.7992 185.518 21.6146 184.154C20.7084 183.13 19.8551 182.043 18.9388 181.034L18.9599 181.025ZM38.7723 203.558C35.8795 202.366 33.555 200.133 31.4828 197.644C29.1598 194.845 27.0407 191.835 24.8189 188.928L23.8595 187.664C23.9295 187.746 24.0008 187.833 24.0763 187.918C26.2417 190.401 28.5436 192.727 30.9694 194.884C35.4319 198.801 40.4223 201.986 45.9957 203.528C47.5275 203.956 49.0911 204.247 50.6722 204.399C46.6424 204.984 42.5865 205.141 38.7622 203.573L38.7723 203.558ZM50.6261 196.107C51.8224 198.426 53.0541 200.731 54.3209 203.022C49.6242 200.501 44.9475 197.95 40.3775 195.143C35.1323 191.904 30.002 188.442 24.9867 184.759C22.4749 182.914 20.0146 181.002 17.5171 179.14C18.6006 179.472 19.7222 179.704 20.8065 179.988C22.3296 180.397 23.9041 180.754 25.441 181.179C28.5436 182.004 31.595 183.031 34.5803 184.254C40.1595 186.59 45.4366 189.96 49.5638 194.794C49.9311 195.251 50.2709 195.677 50.616 196.122L50.6261 196.107ZM58.9747 145.161C58.288 148.856 57.2728 152.478 55.9446 155.97C54.5622 159.332 52.7679 162.472 50.6161 165.294C49.4161 166.913 48.1445 168.462 46.8372 169.967C45.8386 171.114 44.7341 172.236 43.794 173.475L43.8438 173.032C45.637 170.222 47.3036 167.315 48.8367 164.321C50.4624 161.205 51.9314 157.992 53.2365 154.699C54.5635 151.418 55.7808 148.08 56.8312 144.683C57.9099 141.185 58.7809 137.634 59.7079 134.081C60.2871 131.853 60.9427 129.658 61.6748 127.496C61.0342 133.416 60.1401 139.337 58.9647 145.175L58.9747 145.161ZM59.1579 132.299C58.2663 135.827 57.4246 139.383 56.4032 142.884C55.3819 146.385 54.2927 149.677 53.0297 152.986C51.7667 156.294 50.2902 159.562 48.7878 162.787C47.3178 165.926 45.6589 168.893 43.987 171.882C44.2342 170.012 44.5265 168.152 44.8639 166.303C45.5704 162.373 46.4824 158.485 47.595 154.66C49.8174 146.993 52.8148 139.611 56.5264 132.662C57.5597 130.732 58.6566 128.844 59.7907 126.989C60.3066 126.147 60.8404 125.319 61.3729 124.486C60.4759 127.038 59.8222 129.687 59.1478 132.313L59.1579 132.299ZM42.4035 149.429C44.6493 139.344 50.2021 130.465 57.9208 124.618C59.192 123.656 60.5318 122.855 61.8569 122.019C60.9745 123.162 60.1719 124.389 59.382 125.612C58.3199 127.271 57.3185 128.98 56.3573 130.714C54.4358 134.18 52.6955 137.764 51.1458 141.447C48.0437 148.857 45.7378 156.631 44.2789 164.597C43.8673 166.853 43.527 169.107 43.2583 171.358L43.2123 171.748C41.0821 164.628 40.7983 156.898 42.3935 149.443L42.4035 149.429ZM13.4156 112.944C9.64079 108.212 7.00451 102.497 4.85984 96.608C4.20491 94.8203 3.59809 93.0032 3.01797 91.1808C2.70997 90.2139 2.42312 89.2386 2.11936 88.27C5.10171 92.6035 8.17343 96.8703 11.1161 101.23C14.5337 106.297 17.8457 111.456 21.0519 116.708C21.9776 118.226 22.8984 119.75 23.8145 121.28C19.805 119.451 16.2492 116.605 13.4141 112.956L13.4156 112.944ZM24.9661 120.998C19.4267 111.703 13.5286 102.669 7.26582 93.9944C5.79899 91.9568 4.32372 89.9224 2.79659 87.9714C4.35821 89.0038 5.84746 90.165 7.25276 91.4459C9.08467 93.1858 10.7838 95.0947 12.3337 97.1543C15.7818 101.675 18.5585 106.802 21.2951 111.902C22.0816 113.371 22.8766 114.836 23.5639 116.371C24.0888 117.572 24.5332 118.818 24.8935 120.1C24.9134 120.406 24.9459 120.708 24.9645 121.009L24.9661 120.998ZM22.6993 112.473C21.249 109.806 19.8001 107.144 18.2604 104.544C15.4491 99.7973 12.3028 95.1465 8.3631 91.5205C6.41464 89.7253 4.28488 87.9702 1.93084 86.8739C1.78694 86.6952 1.65282 86.5179 1.51024 86.3439C3.80877 87.3794 6.03324 88.6 8.16701 89.9966C10.4056 91.5251 12.4836 93.3261 14.3654 95.3687C19.3613 100.75 22.8046 107.717 24.2749 115.42C23.7856 114.41 23.216 113.431 22.6977 112.484L22.6993 112.473ZM49.4319 109.428C47.8794 119.752 42.8147 129.13 35.3298 135.538C34.4472 136.294 33.5293 136.991 32.6034 137.66C34.1034 135.62 35.5074 133.494 36.8094 131.291C38.687 128.156 40.3938 124.899 41.9199 121.54C45.0612 114.553 47.5737 107.249 49.4184 99.7416C49.894 97.8375 50.3371 95.9183 50.7478 93.984C50.4713 99.1743 50.2556 104.33 49.4303 109.439L49.4319 109.428ZM45.7757 109.301C43.5673 116.452 40.6194 123.313 36.9946 129.737C35.1598 132.862 33.1654 135.868 31.0221 138.739C31.0464 138.39 31.0678 138.046 31.0963 137.695C31.1724 136.702 31.2806 135.712 31.421 134.725C31.7005 132.827 32.0806 130.945 32.5593 129.09C33.5383 125.42 34.7563 121.828 36.203 118.343C39.3007 110.815 42.7392 103.459 46.5044 96.3074C47.5512 94.3244 48.6001 92.2988 49.6526 90.303L50.689 88.3503C49.5438 95.4585 47.902 102.474 45.7794 109.331L45.7757 109.301ZM29.9417 113.367C32.6018 105.802 37.2526 99.2938 42.4575 93.6918C45.0999 90.8489 47.9081 88.2127 50.749 85.6264L50.4382 86.1939C49.9566 87.1026 49.475 88.0113 48.9934 88.92C48.034 90.7394 47.0853 92.5634 46.1471 94.3918C44.2727 98.0551 42.4578 101.752 40.7025 105.484C38.9678 109.188 37.2997 112.928 35.7509 116.726C34.2635 120.264 33.0027 123.91 31.9784 127.634C31.4155 129.718 30.9919 131.841 30.7114 133.985C30.5521 135.094 30.4697 136.21 30.414 137.321C30.3968 137.662 30.3839 138.002 30.3795 138.339C29.4099 134.413 28.5294 130.459 27.7381 126.477C27.7205 125.96 27.7261 125.477 27.7405 124.974C27.8679 121.024 28.6144 117.105 29.9454 113.397L29.9417 113.367ZM31.4198 74.3577C34.565 67.3545 38.2923 60.6857 42.5495 54.4446C44.4105 51.7181 46.3703 49.0766 48.429 46.5198C46.04 53.3078 43.6093 60.0809 40.791 66.6773C37.8328 73.7583 34.2523 80.5069 30.1053 86.8182C28.9467 88.5523 27.7231 90.2387 26.4541 91.8803C25.7336 92.8135 24.9788 93.7079 24.2378 94.6179C26.1034 87.6697 28.5081 80.8995 31.4234 74.3877L31.4198 74.3577ZM24.4186 95.6507L24.3087 95.6941C25.1494 94.8345 25.9525 93.929 26.715 92.981C27.8707 91.5725 28.9729 90.1066 30.028 88.607C32.1639 85.5552 34.1334 82.3626 35.9248 79.048C39.7126 72.0899 42.8092 64.7087 45.6288 57.2274C46.8765 53.9144 48.0714 50.5805 49.2509 47.2421C49.8409 50.8293 49.1318 54.5735 48.2745 58.1405C47.3928 61.8618 46.2079 65.4951 44.7353 68.9932C41.7437 76.0508 37.6654 82.4878 32.6974 87.9932C30.1065 90.7798 27.3403 93.3495 24.4223 95.6806L24.4186 95.6507ZM50.8085 56.858C50.7064 61.1073 50.0168 65.338 48.7647 69.3969C47.083 74.6615 44.477 79.523 41.1072 83.6822C37.7375 87.8415 33.6751 91.2105 29.17 93.582C28.2374 94.0757 27.2805 94.5161 26.3143 94.9235C28.4011 93.2487 30.3796 91.4044 32.2332 89.4061C40.0139 81.1267 45.7745 70.737 48.9206 59.3089C49.5536 57.0624 50.0385 54.772 50.3712 52.4568C50.4382 51.9071 50.4925 51.3624 50.5341 50.8227C50.7653 52.8274 50.8583 54.8551 50.8122 56.8879L50.8085 56.858Z" fill="#94AE94"/>
</svg>
