<svg width="327" height="163" viewBox="0 0 327 163" fill="none" xmlns="http://www.w3.org/2000/svg">
<path d="M59.2898 85.7838C67.6779 78.2246 76.737 71.5927 86.3368 65.9836C95.9032 60.4022 105.954 55.8488 116.348 52.3868C121.449 50.6943 126.623 49.2797 131.869 48.1429C123.969 46.5073 116.029 45.1641 108.051 44.1132C103.629 51.0818 97.7308 56.7721 90.8469 60.7097C90.7123 60.8259 90.5423 60.8831 90.3697 60.8699C90.1971 60.8568 90.0342 60.7744 89.9124 60.6386C89.7907 60.5029 89.7187 60.3233 89.7104 60.1348C89.7021 59.9462 89.758 59.7619 89.8675 59.6176C91.5706 55.7147 93.862 52.1584 96.6474 49.095C98.0002 47.6009 99.4682 46.2367 101.036 45.0168C101.713 44.5045 102.436 44.013 103.165 43.5245C98.2973 42.9357 93.4155 42.4642 88.5202 42.1099C86.352 47.0265 83.1158 51.4115 79.6977 55.3506C77.32 58.0751 74.7509 60.5925 72.0131 62.8803L71.507 63.3807C71.4199 63.4624 71.3191 63.5252 71.2101 63.5656C70.2239 64.3753 69.2196 65.152 68.1974 65.8958C67.5956 66.3275 66.8941 65.4454 67.2374 64.8126C72.1313 55.8292 78.6595 48.0502 86.4264 41.947C83.041 41.7208 79.6546 41.538 76.2671 41.3986C71.9345 41.2369 67.5986 41.2055 63.2769 41.197C61.0038 44.5503 57.72 47.1182 54.4001 49.1344C50.8816 51.2659 47.0905 52.823 43.1459 53.7567C39.2222 54.7065 35.1817 55.0049 31.1597 54.642C26.3952 54.1749 21.7825 52.7152 17.2009 51.2534C12.7541 49.837 8.2605 48.4239 3.64508 47.984C3.52429 48.0027 3.39823 48.0353 3.27744 48.054C3.10839 48.0731 2.9379 48.0241 2.79796 47.9161C2.23752 47.8728 1.67445 47.8366 1.11379 47.8344C0.916932 47.8288 0.72831 47.7417 0.586181 47.5908C0.444053 47.4399 0.35905 47.2365 0.34839 47.0217C0.307022 46.9754 0.27765 46.918 0.26336 46.8555C0.249067 46.7929 0.250372 46.7276 0.267137 46.6663C0.283902 46.605 0.315514 46.5499 0.358664 46.5069C0.401813 46.4639 0.45492 46.4345 0.512428 46.4218L0.541378 46.3446C6.58431 40.0263 13.949 35.4054 22.0164 32.8705C30.6435 30.1891 39.7943 30.0232 48.5635 32.3894C53.6592 33.7774 58.5498 35.9763 63.0771 38.9149C63.1663 38.9684 63.2441 39.0423 63.305 39.1314C63.366 39.2205 63.4086 39.3227 63.4301 39.431C64.9459 39.4355 66.3958 39.3932 67.874 39.3968C69.0083 39.4072 70.132 39.4457 71.2766 39.469C71.0818 39.2396 70.8753 39.0212 70.6688 38.8029C70.4622 38.5845 70.3386 38.6512 70.1703 38.5739C70.0518 38.6149 69.9256 38.6232 69.8026 38.5983C69.6796 38.5735 69.5637 38.5161 69.465 38.4312C69.253 38.2679 69.0384 38.1117 68.8302 37.9585C66.074 36.6511 63.4076 35.1238 60.8527 33.389C56.3514 30.3598 52.1745 26.7839 48.4033 22.7309C47.9039 22.1804 48.4183 21.0909 49.1371 21.3798C58.0572 25.064 66.1354 30.8731 72.7773 38.3796C73.593 38.7542 74.3891 39.161 75.2022 39.5426C84.9553 39.8112 94.6928 40.52 104.415 41.669C99.858 39.8838 95.3041 38.0916 90.7528 36.2924C86.1238 34.4711 81.5231 32.6959 77.0372 30.5534C69.0842 26.7692 61.4569 21.7511 55.9538 14.2831C53.1723 10.5684 51.1336 6.26466 49.9714 1.65429C49.9368 1.52375 49.9346 1.38601 49.965 1.25523C49.9953 1.12445 50.0571 1.00533 50.1439 0.910093C50.1409 0.882821 50.1429 0.855229 50.1498 0.828951C50.1566 0.802677 50.1683 0.778235 50.184 0.757069C50.1997 0.735903 50.2191 0.718431 50.2412 0.705686C50.2633 0.692938 50.2875 0.685171 50.3125 0.682841C50.4151 0.672312 50.5124 0.675836 50.6124 0.672334C50.6327 0.678572 50.6523 0.68756 50.6707 0.699092C51.7301 0.707716 52.7868 0.850361 53.8196 1.12417C55.1031 1.38424 56.3656 1.70052 57.6304 2.05085C60.1098 2.70368 62.5837 3.41163 65.0234 4.21092C69.8787 5.74664 74.6117 7.72748 79.1715 10.1321C86.8839 14.2751 93.9882 20.0411 99.2875 27.5061C100.718 29.4968 102 31.6084 103.121 33.8203C103.706 34.9124 104.214 36.109 104.689 37.2908C105.142 38.2529 105.496 39.2659 105.743 40.3109C105.86 40.4113 105.952 40.5433 106.009 40.6937C106.066 40.8441 106.086 41.0076 106.067 41.1678C106.298 41.4221 106.529 41.6765 106.751 41.9348C106.771 41.9404 106.791 41.9494 106.809 41.9616C112.609 42.682 118.408 43.5667 124.207 44.6157L123.543 44.039C123.51 44.0241 123.478 44.0093 123.446 43.9944C116.938 40.1532 111.092 35.0899 106.179 29.0405C104.335 26.7533 102.629 24.3386 101.072 21.812C100.566 20.9951 101.527 20.292 102.184 20.6263C110.908 25.0234 118.789 31.2188 125.389 38.8675C126.322 39.9628 127.226 41.0944 128.1 42.2451C129.025 43.2625 129.769 44.459 130.292 45.7715C131.946 46.0948 133.6 46.4182 135.231 46.7637C140.802 47.9551 146.338 49.32 151.842 50.8102C141.055 44.924 132.21 35.4759 126.584 23.8286C124.205 19.1769 122.523 14.1474 121.603 8.93369C121.545 8.88377 121.501 8.81888 121.473 8.74519C121.445 8.6715 121.434 8.59146 121.442 8.5127C121.451 8.43394 121.477 8.35907 121.52 8.29521C121.562 8.23135 121.619 8.18063 121.685 8.14787C121.713 8.08696 121.753 8.03417 121.803 7.99367C121.853 7.95317 121.912 7.92606 121.973 7.91448C122.035 7.90291 122.099 7.90718 122.159 7.92696C122.219 7.94675 122.275 7.9815 122.321 8.02849C122.456 8.15605 122.581 8.28766 122.715 8.41522C124.783 9.23339 126.795 10.2231 128.8 11.2099C131.1 12.3235 133.386 13.4722 135.651 14.677C140.176 17.0415 144.546 19.7528 148.727 22.7905C155.766 27.9828 162.037 34.4121 166.648 42.2361C169.007 46.2202 170.792 50.5703 171.939 55.1319C173.086 56.12 174.231 57.1151 175.331 58.0653C175.929 58.2737 176.524 58.5061 177.122 58.7145C178.859 58.9607 180.582 59.3283 182.279 59.8148C177.029 54.7422 173.632 47.776 172.727 40.2272C172.389 37.4948 172.404 34.7295 172.77 32.0123C172.871 31.2354 174.01 31.1326 174.312 31.8233C178.166 40.6169 182.093 49.3951 185.965 58.1565C186.603 59.0259 187.253 59.8842 187.879 60.7646C188.279 61.3187 188.669 61.8767 189.057 62.4418C189.137 62.5526 189.207 62.6674 189.281 62.7753C189.96 63.1696 190.613 63.5931 191.253 64.0517C191.32 64.1066 191.38 64.1702 191.433 64.2412C194.835 65.6307 198.221 67.0624 201.579 68.5714C208.623 71.724 215.571 75.1536 222.42 78.785C222.21 78.2931 221.988 77.8124 221.775 77.3276C214.456 72.5585 206.996 67.4194 202.081 59.6369C199.729 55.7052 197.846 51.4669 196.479 47.0262C194.83 42.1517 193.403 37.1488 191.866 32.2186C190.985 29.3849 190.095 26.5553 189.23 23.7205C188.787 22.249 188.336 20.7817 187.902 19.3062C187.524 18.1495 187.219 16.9667 186.99 15.7664C186.938 15.7426 186.88 15.7158 186.835 15.654C186.778 15.6116 186.733 15.5532 186.705 15.4851C186.676 15.417 186.665 15.3419 186.673 15.2681C186.681 15.1943 186.708 15.1246 186.75 15.0668C186.792 15.0089 186.848 14.9652 186.912 14.9403C186.931 14.8787 186.964 14.8238 187.009 14.7813C187.053 14.7388 187.108 14.7103 187.166 14.6985C187.225 14.6868 187.285 14.6924 187.342 14.7146C187.398 14.7369 187.448 14.7751 187.487 14.8252C187.548 14.7789 187.623 14.7595 187.697 14.7708C187.772 14.7821 187.84 14.8233 187.889 14.8863C188.157 15.2236 188.391 15.57 188.663 15.9173C197.218 21.5178 205.165 28.1709 212.345 35.744C215.883 39.444 219.477 43.2769 222.276 47.716C224.854 51.8463 226.298 56.6833 226.435 61.6483C226.632 67.1982 225.559 72.7746 224.369 78.099C224.351 78.1674 224.326 78.2333 224.295 78.2958C224.575 78.9265 224.854 79.5572 225.103 80.1901C231.112 83.4327 237.033 86.8604 242.868 90.4731L242.77 90.3294C242.115 89.6692 241.511 88.9511 240.964 88.1825C240.131 87.1248 239.344 86.025 238.603 84.8833C237.16 82.6881 235.906 80.3533 234.858 77.9095C233.822 75.4764 232.991 72.9477 232.376 70.3553C232.063 69.0133 231.812 67.6557 231.624 66.2877C231.375 65.0092 231.298 63.7004 231.395 62.4029C231.402 62.3558 231.417 62.3107 231.44 62.2703C231.463 62.2299 231.493 62.1951 231.529 62.1678C231.641 61.5441 232.3 61.1221 232.807 61.6926C239.779 69.572 244.72 80.1414 245.603 91.0706C245.616 91.1872 245.607 91.3051 245.576 91.4172C245.546 91.5292 245.495 91.6331 245.427 91.7226L245.887 92.3374C252.208 96.3385 258.427 100.534 264.542 104.923C265.142 105.347 265.685 105.761 266.252 106.17C264.63 103.862 263.15 101.441 261.82 98.9219C256.742 89.2859 253.857 78.516 251.952 67.7021C251.39 64.5452 250.908 61.3759 250.466 58.2004C250.025 55.0249 249.469 51.7889 249.567 48.6307C249.572 48.5555 249.6 48.4847 249.647 48.4303C249.695 48.3759 249.758 48.3412 249.826 48.332C249.895 48.3228 249.964 48.3398 250.023 48.38C250.083 48.4202 250.127 48.4812 250.15 48.5527L250.211 48.7948C250.294 48.8043 250.373 48.8405 250.438 48.8989C254.892 53.4148 259.242 58.0474 263.623 62.6369C267.734 66.9952 271.952 71.2298 275.943 75.706C279.448 79.6376 282.611 83.9726 284.421 89.1268C285.982 93.9172 286.617 98.9957 286.285 104.039C285.974 109.373 285.237 114.661 284.083 119.843L284.199 120.16C296.738 130.558 308.645 141.841 319.84 153.936C321.909 156.17 323.917 158.468 325.919 160.779C326.076 160.987 326.155 161.251 326.143 161.519C326.13 161.786 326.026 162.037 325.851 162.222C325.675 162.407 325.442 162.512 325.197 162.517C324.952 162.521 324.712 162.425 324.527 162.247C311.685 147.927 297.95 134.597 283.422 122.355C283.253 122.287 283.106 122.165 282.999 122.005C282.935 121.975 282.883 121.91 282.824 121.866C282.66 121.838 282.505 121.766 282.373 121.656C282.24 121.546 282.134 121.403 282.065 121.238C281.4 120.685 280.722 120.144 280.054 119.598C278.535 118.75 277.092 117.745 275.745 116.598C274.518 115.582 273.359 114.481 272.232 113.338C271.762 112.974 271.296 112.595 270.826 112.231C268.987 113.035 267.07 113.616 265.109 113.962C262.798 114.479 260.458 114.84 258.103 115.042C254.346 115.346 250.566 115.264 246.813 114.798L246.57 114.818C246.413 114.836 246.255 114.795 246.12 114.702C245.315 114.604 244.516 114.509 243.715 114.38C243.049 114.272 242.951 113.115 243.538 112.825C247.561 110.796 251.881 109.538 256.313 109.107C260.074 108.708 263.876 108.939 267.59 109.79C260.657 104.613 253.566 99.7094 246.317 95.0792C245.1 95.1464 243.872 95.1836 242.651 95.2237C241.14 97.1852 239.468 98.9914 237.655 100.62C235.709 102.493 233.719 104.322 231.662 106.045C227.616 109.524 223.148 112.381 218.381 114.537C213.427 116.604 208.257 118.022 202.981 118.762C197.421 119.651 191.812 120.221 186.192 120.661C180.571 121.102 174.748 121.335 169.015 121.386C168.732 121.495 168.431 121.588 168.139 121.7C167.967 121.783 167.773 121.798 167.591 121.743C167.408 121.688 167.248 121.565 167.137 121.397C167.006 121.402 166.877 121.401 166.749 121.4C166.611 121.407 166.473 121.377 166.348 121.311C166.223 121.244 166.114 121.145 166.033 121.021C165.947 121.023 165.861 121 165.784 120.956C165.706 120.913 165.64 120.849 165.59 120.77C165.541 120.692 165.509 120.602 165.499 120.508C165.489 120.414 165.501 120.319 165.532 120.232C166.635 117.359 168.08 114.662 169.828 112.208C174.863 104.681 181.378 98.4882 188.906 94.0753C199.274 88.0581 211.142 85.7237 222.875 87.3932C229.471 88.3215 235.888 90.475 241.849 93.7601C241.937 93.8128 242.017 93.8827 242.083 93.9663C242.918 93.9631 243.761 93.9629 244.59 93.9979C237.941 89.7914 231.181 85.7979 224.303 82.0625C224.129 82.0564 223.963 81.9801 223.837 81.8484C221.603 80.6414 219.359 79.4624 217.109 78.2975C216.385 79.0233 215.559 79.6165 214.66 80.0549C213.704 80.5943 212.723 81.0781 211.719 81.5041C209.562 82.4077 207.327 83.0828 205.046 83.52C202.594 83.992 200.119 84.312 197.63 84.4786C197.472 84.4965 197.312 84.4972 197.15 84.5051C194.808 84.844 192.451 85.0531 190.086 85.1314C189.961 85.1257 189.84 85.0835 189.734 85.0092C189.628 84.9349 189.542 84.8313 189.485 84.7091C189.427 84.5869 189.401 84.4506 189.408 84.3144C189.415 84.1783 189.456 84.0472 189.525 83.935C189.53 83.7623 189.581 83.5957 189.673 83.456C189.764 83.3164 189.892 83.2099 190.04 83.15C190.243 83.0777 190.454 83.031 190.668 83.0106C197.469 77.8366 205.818 75.6199 214.108 76.7878C212.453 75.9615 210.809 75.1242 209.152 74.322C204.587 72.1268 199.975 70.0581 195.331 68.0736C195.175 68.1069 195.016 68.1248 194.856 68.1271L194.499 68.4324C192.187 73.5301 188.453 78.0077 184.628 81.7354C180.469 85.8282 175.77 89.2196 170.683 91.7999C165.482 94.4047 159.935 96.1173 154.235 96.8779C148.134 97.6017 141.985 97.8058 135.842 97.4886C128.818 97.2602 121.776 96.9166 114.768 97.4364C113.899 97.5069 113.619 96.2911 114.108 95.6926C122.218 85.8135 130.821 76.1363 141.123 68.9521C149.715 62.9676 159.59 58.807 169.892 58.4491C163.823 56.4196 157.708 54.5691 151.546 52.8974C151.555 52.9688 151.542 53.0413 151.507 53.102C149.431 56.118 146.89 58.7142 143.995 60.7772C141.057 62.8184 137.892 64.4492 134.574 65.6318C133.98 65.8612 133.61 65.0656 133.831 64.5576C135.462 60.9898 137.865 57.9179 140.835 55.6036C142.28 54.4528 143.841 53.4849 145.49 52.7183C146.23 52.372 146.987 52.0683 147.758 51.8083C146.371 51.4596 144.937 51.0731 143.519 50.7265C140.823 50.0647 138.111 49.4451 135.405 48.8525L135.333 49.1655C135.358 49.2119 135.371 49.2648 135.371 49.3184C135.371 49.372 135.358 49.4244 135.333 49.47L135.223 49.6419C134.974 50.846 134.652 52.0296 134.26 53.185C133.708 54.7596 133.088 56.3115 132.387 57.8177C131.03 60.8011 129.453 63.6566 127.671 66.3565C124.081 71.8244 119.707 76.6205 114.715 80.5644C104.631 88.4335 92.4156 92.4409 79.9387 91.9731C76.4936 91.8547 73.0602 91.4103 69.6771 90.6448C66.2804 89.9584 62.9644 88.8363 59.7985 87.302C59.186 87.276 58.7343 86.2945 59.2898 85.7838ZM28.6758 52.6037C36.6346 53.9139 44.7356 52.5431 51.8937 48.675C53.8493 47.6147 55.7283 46.3969 57.5154 45.0315C59.0633 43.8567 60.5095 42.5281 61.9737 41.2325C61.6855 41.2319 61.4077 41.2443 61.1196 41.2438C55.3973 46.0268 48.1398 48.285 41.0273 49.1029C36.7738 49.5448 32.4835 49.5061 28.2248 48.9874C24.2647 48.5604 20.3588 47.7053 16.3831 47.2793C14.2302 47.0475 12.0678 46.9676 9.90944 47.0402C9.50964 47.0542 9.13046 47.0941 8.71892 47.1192C15.4197 48.6155 21.9072 51.4303 28.6758 52.6037ZM60.1604 41.2726C43.5326 41.5476 26.9526 42.9764 10.5207 45.5504C11.6931 45.5399 12.8556 45.6099 14.0081 45.7604C17.9021 46.1818 21.7564 46.972 25.6301 47.5488C33.8429 48.7761 42.4123 49.072 50.3766 46.4055C53.8555 45.2294 57.1498 43.499 60.1539 41.2696L60.1604 41.2726ZM36.6247 32.3989C24.3888 32.2473 12.5933 37.0155 3.48642 45.7949C22.3767 41.8227 41.5778 39.7033 60.8615 39.4619C53.4233 34.9298 45.0859 32.4998 36.6182 32.3959L36.6247 32.3989ZM101.972 35.1865C101.043 33.2071 99.9802 31.3043 98.7931 29.4941C96.3969 25.9238 93.5936 22.699 90.4523 19.8995C83.3644 13.4822 74.8686 9.24293 66.1865 6.16965C63.5075 5.21928 60.8214 4.38916 58.1116 3.62228C57.102 3.3398 56.0898 3.06434 55.0803 2.78186C69.8243 10.1809 83.6094 19.714 96.0592 31.1206C98.4914 33.3575 100.894 35.6547 103.2 38.0646C102.788 37.0598 102.388 36.1021 101.972 35.1865ZM96.423 33.2887C93.0283 30.1981 89.5482 27.2274 85.9827 24.3767C78.8984 18.7579 71.4709 13.6794 63.7543 9.17815C60.0201 6.99383 56.1488 4.95244 52.2482 3.07049C54.5922 6.16212 57.1678 9.03631 59.9479 11.6626C62.9482 14.4134 66.1343 16.9118 69.4781 19.1355C76.5072 23.887 83.8375 28.1181 91.1603 32.2882C93.3304 33.5236 95.5043 34.7689 97.6744 36.0044C98.9217 36.7254 100.283 37.4249 101.577 38.1838C99.8689 36.5264 98.1643 34.8789 96.4166 33.2858L96.423 33.2887ZM89.9505 34.0794C91.5902 34.7254 93.2585 35.3762 94.8723 36.0103C93.8748 35.4122 92.8784 34.8311 91.8809 34.233C87.9853 31.8922 84.0843 29.5655 80.1849 27.2147C73.2875 23.0836 66.4706 18.7177 60.4218 13.1318C57.2599 10.3162 54.4619 7.04452 52.1063 3.40881C54.427 10.6422 59.1949 16.7104 64.8406 21.2053C72.3796 27.2286 81.2569 30.7126 89.9441 34.0764L89.9505 34.0794ZM224.502 63.4862C224.703 58.7214 223.611 53.9777 221.363 49.8494C218.933 45.4396 215.502 41.7149 212.187 38.109C208.586 34.1909 204.79 30.4711 200.855 26.9594C197.535 23.9936 194.084 21.1737 190.576 18.4674C195.476 25.1149 200.002 32.0929 204.302 39.2062C209.404 47.6528 214.119 56.3672 218.429 65.3167C219.993 68.5547 221.466 71.8333 222.909 75.131C223.77 71.3169 224.304 67.4185 224.502 63.4862ZM196.387 29.1646C193.829 25.1161 191.188 21.1281 188.54 17.1371L188.962 18.3602C189.392 19.6033 189.801 20.8615 190.212 22.1127C191.043 24.6191 191.859 27.1265 192.66 29.635C194.207 34.4573 195.768 39.2752 197.344 44.0886C198.806 48.5313 200.345 52.9686 202.617 57.0095C204.867 60.8855 207.716 64.3116 211.033 67.1328C213.986 69.6375 217.085 71.9273 220.31 73.9869C213.359 58.4259 205.363 43.4357 196.388 29.1406L196.387 29.1646ZM253.198 53.7238C254.926 56.5843 256.583 59.4943 258.198 62.4345C260.688 66.9462 263.142 71.5152 265.411 76.1312C270.055 85.4881 274.355 95.0252 278.313 104.742C279.556 107.784 280.73 110.867 281.873 113.953C281.836 106.389 280.443 98.8841 277.773 91.8628C274.214 82.1832 268.781 73.6189 262.724 65.5836C260.981 63.2681 259.182 61.001 257.367 58.7591C256.005 57.0468 254.552 55.4161 253.211 53.6887L253.198 53.7238ZM283.173 91.1807C281.721 86.0257 278.776 81.6926 275.456 77.7551C271.723 73.3397 267.681 69.2435 263.79 64.9863L262.097 63.1464C262.206 63.2791 262.322 63.4147 262.436 63.5574C265.74 67.6543 268.816 71.9626 271.647 76.4587C276.784 84.7219 280.863 93.7839 282.609 103.603C283.095 106.302 283.387 109.035 283.485 111.778C284.592 104.933 285.103 97.9793 283.194 91.1656L283.173 91.1807ZM271.93 110.457C275.076 112.863 278.2 115.326 281.301 117.849C278.126 109.391 274.91 100.964 271.328 92.6824C267.191 83.1739 262.738 73.83 257.967 64.6506C255.577 60.0533 253.089 55.5346 250.675 50.9594C251.058 52.8729 251.301 54.8372 251.619 56.7451C252.078 59.4266 252.463 62.1886 252.943 64.8961C253.869 70.3571 255.08 75.7603 256.57 81.0791C259.421 91.0267 263.737 100.609 270.177 108.433C270.787 109.134 271.356 109.782 271.951 110.442L271.93 110.457ZM200.315 117.192C205.515 116.564 210.637 115.36 215.6 113.597C220.386 111.723 224.893 109.106 228.982 105.827C231.326 104.005 233.576 102.049 235.768 100.026C237.44 98.4795 239.083 96.7472 240.879 95.3157L240.257 95.3348C236.211 97.9991 232.038 100.431 227.755 102.62C223.293 104.95 218.709 106.996 214.025 108.749C209.355 110.54 204.615 112.134 199.803 113.433C194.85 114.765 189.837 115.731 184.818 116.794C181.671 117.457 178.564 118.256 175.497 119.192C183.796 118.976 192.113 118.325 200.335 117.177L200.315 117.192ZM182.374 115.581C187.356 114.576 192.373 113.66 197.327 112.427C202.281 111.194 206.948 109.814 211.651 108.136C216.354 106.459 221.015 104.408 225.619 102.306C230.101 100.247 234.357 97.8377 238.644 95.409C236.019 95.5543 233.406 95.7787 230.804 96.0822C225.275 96.7093 219.79 97.6961 214.377 99.0374C203.53 101.713 193.024 105.764 183.071 111.109C180.305 112.597 177.595 114.202 174.927 115.875C173.716 116.636 172.523 117.431 171.323 118.222C174.945 117.061 178.685 116.333 182.395 115.566L182.374 115.581ZM207.462 89.3234C193.242 91.6768 180.466 99.9001 171.758 112.303C170.325 114.346 169.112 116.531 167.849 118.685C169.507 117.339 171.276 116.142 173.037 114.966C175.426 113.387 177.88 111.92 180.368 110.526C185.337 107.739 190.458 105.282 195.705 103.168C206.257 98.9406 217.259 96.1376 228.469 94.8206C231.643 94.4502 234.809 94.2023 237.967 94.077L238.513 94.0562C228.743 89.3258 217.988 87.6801 207.483 89.3082L207.462 89.3234ZM158.704 33.9929C152.38 26.7905 144.605 21.3995 136.552 16.8284C134.107 15.4341 131.618 14.1181 129.12 12.8473C127.795 12.1727 126.456 11.5332 125.128 10.8656C130.953 16.645 136.678 22.5681 142.542 28.2831C149.357 34.9211 156.309 41.3911 163.397 47.6931C165.447 49.5128 167.505 51.3252 169.57 53.1301C167.311 45.9587 163.602 39.4157 158.719 33.9918L158.704 33.9929ZM169.094 55.069C156.538 44.1479 144.374 32.6488 132.735 20.5761C130.001 17.7477 127.272 14.9052 124.663 11.9859C125.989 14.827 127.5 17.5628 129.184 20.1721C131.476 23.584 134.014 26.7929 136.773 29.7675C142.825 36.3762 149.77 41.9206 156.681 47.392C158.672 48.9649 160.657 50.5519 162.746 51.964C164.382 53.0468 166.087 53.998 167.848 54.8097C168.273 54.8897 168.691 54.9908 169.11 55.0679L169.094 55.069ZM157.375 49.893C153.763 46.9988 150.157 44.1076 146.644 41.0696C140.232 35.5226 133.977 29.4138 129.207 22.0934C126.846 18.4727 124.553 14.5461 123.196 10.3323C122.957 10.058 122.72 9.80068 122.487 9.52935C123.764 13.6385 125.305 17.6481 127.097 21.5279C129.066 25.6078 131.426 29.4522 134.137 32.9954C141.276 42.3956 150.739 49.3621 161.369 53.0448C159.996 52.0519 158.673 50.9254 157.391 49.8919L157.375 49.893ZM151.198 95.4254C165.701 94.3005 179.138 86.9916 188.611 75.0747C189.729 73.6696 190.767 72.1947 191.767 70.7021C188.814 72.9771 185.749 75.0742 182.584 76.9841C178.079 79.7449 173.416 82.1935 168.623 84.3157C158.657 88.6737 148.295 91.9025 137.698 93.952C135.009 94.485 132.302 94.96 129.576 95.377C136.831 95.6784 144.033 96.0793 151.214 95.4244L151.198 95.4254ZM151.285 89.1167C161.413 86.3882 171.189 82.344 180.405 77.0701C184.894 74.3816 189.229 71.4008 193.385 68.1435C192.896 68.1329 192.416 68.1182 191.924 68.1147C190.535 68.0969 189.147 68.1349 187.761 68.2286C185.095 68.4252 182.445 68.7974 179.825 69.3431C174.639 70.478 169.543 72.0354 164.581 74.0024C153.863 78.2042 143.363 83.0183 133.122 88.4249C130.282 89.9287 127.383 91.4299 124.525 92.9418L121.728 94.4324C131.719 93.5264 141.616 91.7525 151.327 89.1275L151.285 89.1167ZM158.098 62.486C147.361 65.9297 137.953 72.9561 129.769 81.0714C125.615 85.1915 121.737 89.6277 117.927 94.1278L118.74 93.6779C120.042 92.9855 121.343 92.2931 122.645 91.6007C125.25 90.2226 127.861 88.8635 130.477 87.5234C135.719 84.8472 141.004 82.2786 146.332 79.8177C151.62 77.388 156.954 75.0783 162.36 72.9826C167.399 70.9535 172.572 69.3303 177.837 68.1259C180.782 67.4695 183.772 67.0587 186.781 66.8971C188.339 66.7892 189.9 66.8144 191.452 66.8848C191.929 66.9065 192.404 66.9352 192.874 66.9779C187.472 64.7221 182.024 62.6154 176.53 60.658C175.812 60.5503 175.137 60.4876 174.435 60.437C168.921 60.065 163.404 60.7624 158.139 62.4968L158.098 62.486ZM103.618 59.1884C93.6287 63.5505 84.0638 68.9642 75.0568 75.3536C71.122 78.1468 67.2982 81.1229 63.5856 84.2817C73.2199 81.1882 82.8364 78.0206 92.2346 74.1599C102.318 70.131 111.984 64.9819 121.081 58.7927C123.582 57.0591 126.021 55.2067 128.401 53.2694C129.754 52.1697 131.055 51.0051 132.377 49.8665C122.557 52.0355 112.946 55.1588 103.659 59.1992L103.618 59.1884ZM133.803 50.3322L133.872 50.1495C132.613 51.4671 131.292 52.7132 129.916 53.8829C127.869 55.6603 125.746 57.3369 123.58 58.9275C119.172 62.1451 114.579 65.0551 109.829 67.6406C99.857 73.1151 89.3447 77.337 78.713 81.0676C74.005 82.718 69.2715 84.2744 64.533 85.8037C69.4904 87.3558 74.7605 86.6964 79.7945 85.7556C85.0451 84.796 90.1951 83.3017 95.1775 81.292C105.231 77.2022 114.498 71.15 122.531 63.4278C126.603 59.3878 130.384 55.0138 133.845 50.343L133.803 50.3322ZM77.8235 89.9229C83.7539 90.3834 89.7008 89.8305 95.4488 88.2842C102.909 86.1794 109.873 82.4242 115.914 77.2499C121.955 72.0755 126.945 65.5913 130.576 58.1963C131.332 56.6658 132.015 55.0856 132.653 53.4846C130.167 56.8236 127.453 59.9511 124.534 62.8408C112.431 74.9864 97.5329 83.3408 81.3763 87.042C78.1993 87.7947 74.9717 88.2859 71.7206 88.5118C70.9495 88.5447 70.1863 88.5565 69.4311 88.5472C72.2086 89.2452 75.0282 89.7087 77.865 89.9337L77.8235 89.9229Z" fill="#94AE94"/>
</svg>
