<svg width="162" height="448" viewBox="0 0 162 448" fill="none" xmlns="http://www.w3.org/2000/svg">
<path d="M65.83 3.86622C60.767 7.38119 56.9326 12.1072 54.8111 17.4474C49.763 28.5772 49.0002 40.7372 52.6445 51.9855C56.5938 63.7068 64.984 73.7236 76.4334 80.3863C76.5081 80.4605 76.6008 80.5187 76.705 80.5568L76.7294 80.7063C76.912 80.8071 77.1259 80.8576 77.3451 80.8514L77.3987 81.1801C71.9245 94.7268 68.3638 108.762 66.8003 122.955C66.0614 120.587 65.1706 118.263 64.1323 115.995C61.941 111.14 59.1232 106.545 55.7333 102.298C49.5988 94.584 41.0936 86.4281 30.1516 84.4695C21.4881 82.8143 10.678 86.7874 7.97646 94.9918C4.7239 104.728 15.7877 112.129 24.8303 114.827C30.3309 116.42 36.2285 116.83 42.049 116.024C47.8695 115.218 53.4506 113.219 58.344 110.188C59.61 112.203 60.7511 114.28 61.7625 116.412C63.5216 120.415 65.005 124.518 66.2049 128.698C64.6776 151.19 65.2023 173.682 67.7738 195.952C68.1412 199.912 68.5764 203.861 68.9778 207.815C68.5455 207.42 68.0785 207.055 67.5808 206.724C65.8616 205.727 63.9534 205.001 61.9365 204.576C61.8634 204.128 61.417 203.74 61.1694 203.29C64.2139 189.395 61.2391 175.206 52.8465 163.589C49.1128 158.731 44.2372 154.665 38.5356 151.655C32.5203 148.278 25.2982 146.879 18.0717 147.69C2.87342 150.17 -0.778823 167.49 2.93507 178.299C7.16906 190.589 19.6294 198.651 32.8903 202.656C37.0863 203.887 41.3963 204.825 45.7818 205.463C49.9219 206.076 54.1391 206.308 58.2792 206.922C60.3048 207.044 62.2559 207.566 63.9908 208.451C65.7256 209.336 67.2006 210.561 68.3083 212.037C68.889 212.931 69.3486 213.885 69.678 214.882C71.8961 235.878 74.568 256.809 77.694 277.678C79.6034 290.377 81.6711 303.051 83.8971 315.699C81.872 311.825 79.7451 307.968 77.7249 304.124L71.7372 292.827C69.8092 289.121 68.0944 285.228 65.8806 281.692C64.8458 280.004 63.2132 278.678 61.2236 277.91C61.5042 277.771 61.737 277.565 61.894 277.316C62.0511 277.067 62.1257 276.786 62.1091 276.507C62.2873 260.521 61.3494 243.245 49.9023 230.505C45.2798 225.041 38.8147 221.039 31.3845 219.043C27.6108 217.932 23.5197 217.791 19.5717 218.635C15.6237 219.48 11.9758 221.277 9.03886 223.824C3.71846 229.809 0.709288 237.107 0.479819 244.583C-0.0241721 251.845 2.68581 258.88 8.03164 264.187C19.5843 275.866 38.0974 277.694 54.6428 279.628C57.0631 279.632 59.4063 280.238 61.4063 281.378C63.0328 282.987 64.2954 284.862 65.1295 286.908L72.8304 300.381C75.3118 304.917 77.7931 309.452 80.3084 313.983C82.0225 317.017 83.6736 320.092 85.4555 323.116C87.0735 332.037 88.7965 340.962 90.6246 349.89L88.5179 346.797C85.927 342.98 83.0068 339.353 79.7823 335.948C74.013 329.831 66.9632 322.911 57.2877 322.311C55.3386 322.113 53.3482 322.279 51.4423 322.797C49.5364 323.314 47.7565 324.173 46.2151 325.319C44.6738 326.464 43.4044 327.871 42.4873 329.452C41.5702 331.032 41.0254 332.751 40.8872 334.499C40.6874 337.858 41.7877 341.13 44.0053 343.771C46.223 346.413 49.4244 348.265 53.0776 349.019C62.7016 351.439 72.5901 346.726 78.7248 339.925L79.4571 340.358C79.5528 340.428 79.6715 340.469 79.7972 340.476C79.9229 340.483 80.0495 340.455 80.1599 340.397C82.2023 342.648 84.098 345.002 85.8381 347.449C87.1131 349.287 88.3203 351.136 89.4596 352.995C90.3141 354.39 91.0328 355.807 91.9988 357.245L92.1061 357.903C97.7842 384.594 104.01 411.442 111.719 437.771C112.677 441.082 113.664 444.358 114.719 447.623C114.836 448.34 116.096 447.951 115.95 447.269C113.014 433.969 109.661 420.677 106.643 407.514L105.114 400.706C104.553 394.183 104.459 387.618 104.833 381.051C110.185 381.076 115.524 380.041 120.46 378.02C125.397 375.999 129.806 373.043 133.367 369.368C136.683 365.836 138.912 361.621 139.825 357.157C140.737 352.693 140.3 348.142 138.557 343.973C137.783 341.976 136.458 340.2 134.699 338.801C132.94 337.402 130.801 336.423 128.472 335.952C127.325 335.785 126.149 335.77 124.982 335.907C124.858 335.874 124.726 335.867 124.596 335.889C124.466 335.91 124.343 335.958 124.236 336.029C120.571 336.642 117.176 338.272 114.546 340.679C110.746 344.258 108.079 348.651 106.832 353.383C105.3 358.72 104.228 364.138 103.625 369.587C102.772 376.551 102.492 383.54 102.788 390.498C101.137 382.943 99.5152 375.352 97.9324 367.785C95.4483 355.547 93.0321 343.299 90.7855 331.023C95.9779 323.765 100.163 316.002 103.244 307.909C106.289 299.45 106.953 290.539 105.177 281.97C104.93 280.456 104.579 278.948 104.125 277.447C108.76 278.512 113.632 278.704 118.435 278.011C123.237 277.317 127.865 275.753 132.027 273.416C136.762 270.92 141.301 268.129 145.605 265.064C149.506 262.594 153.038 259.686 156.105 256.416C162.535 249.076 162.997 240.378 160.642 231.924C158.503 223.219 154.256 215.1 148.191 208.118C145.393 204.868 141.746 202.277 137.546 200.553C133.345 198.83 128.706 198.022 124.003 198.194C114.62 198.957 107.704 205.026 103.189 212.146C98.442 220.408 95.5918 229.369 94.8096 238.491C93.888 248.369 94.9215 258.244 97.863 267.667C99.7139 273.286 101.216 279.003 102.363 284.792C103.242 290.129 103.11 295.595 101.972 300.966C99.5047 310.502 95.6003 319.749 90.3661 328.452C87.8951 314.801 85.555 301.098 83.4572 287.385C79.3528 260.662 75.9398 233.837 73.2182 206.909L73.1451 206.46C75.2829 201.044 76.7659 195.463 77.5687 189.813C78.5436 182.576 79.1027 175.316 79.2437 168.059L79.6528 155.196C79.7404 155.232 79.8395 155.243 79.9365 155.227C80.0335 155.211 80.1239 155.169 80.1956 155.107C93.5732 164.309 112.739 154.34 121.332 143.179C126.131 136.852 128.643 129.432 128.515 121.954C128.388 114.477 125.629 107.316 120.622 101.47C115.813 96.1171 107.781 91.2902 99.4517 94.2448C91.7715 96.9094 87.48 104.974 84.5779 111.309C77.932 125.65 76.8373 141.141 76.4838 156.265C76.1303 171.39 76.1112 186.429 72.6456 201.264C70.1269 179.904 69.207 158.363 69.8918 136.781C71.043 114.591 75.4415 92.0249 86.4438 71.5112C87.8324 68.9218 89.2985 66.3812 90.8762 63.8837C91.0554 63.6248 91.1537 63.3302 91.1602 63.0318C91.1668 62.7333 91.0814 62.4422 90.9134 62.1898C93.1704 58.0449 94.742 53.6529 95.578 49.1542C96.713 43.4493 97.0799 37.6719 96.6711 31.945C96.3581 25.9697 95.2907 20.0712 93.4886 14.3594C92.8294 11.7145 91.5672 9.23704 89.7782 7.07655C87.9891 4.91605 85.7103 3.11715 83.079 1.78849C80.311 0.772232 77.2612 0.429271 74.2343 0.793848C71.2074 1.15843 68.3095 2.21785 65.83 3.86622ZM29.6447 86.4855C39.6413 88.1994 47.5398 95.6257 53.1596 102.534C54.0283 103.589 54.8001 104.69 55.6058 105.786C54.9508 105.187 54.2668 104.624 53.6216 104.085C52.1176 102.864 50.5146 101.741 48.8245 100.725C45.2675 98.5498 41.3775 96.8209 37.2589 95.5845C28.9127 92.9563 19.7865 92.5688 10.9909 94.4693C13.612 88.334 22.8527 85.4149 29.6447 86.4855ZM10.5548 99.481C10.4131 98.7312 10.3701 97.966 10.4265 97.2005C19.061 94.9325 28.1423 94.8329 36.6397 96.913C40.6626 98.0293 44.4523 99.6757 47.8851 101.799C49.5422 102.857 51.1246 104.003 52.6242 105.229C52.9832 105.508 53.3131 105.823 53.6431 106.137L51.9171 105.805C49.9109 105.468 47.8661 105.298 45.8092 105.298C41.2771 105.27 36.8134 105.876 32.3058 106.212C23.916 106.875 15.4179 105.807 10.5743 99.6006L10.5548 99.481ZM30.5095 113.134C23.3788 112.224 16.9851 108.994 12.5563 104.064C16.9494 106.868 22.3002 108.308 27.8192 108.172C32.7682 108.193 37.7359 107.474 42.6847 107.281C44.9615 107.188 47.2352 107.269 49.4807 107.522C50.5847 107.646 51.6748 107.837 52.7434 108.095C53.364 108.269 53.9604 108.51 54.581 108.685C47.3491 112.754 38.7882 114.38 30.529 113.253L30.5095 113.134ZM15.4966 151.332C18.2602 150.44 21.1744 150.039 24.0691 150.152C26.9638 150.264 29.7808 150.888 32.3557 151.988C38.2048 154.146 43.3463 157.511 47.3674 161.813C52.3194 167.038 55.8508 173.223 57.7049 179.92C59.2763 186.059 60.071 192.362 60.0744 198.712L59.9622 198.024C59.2084 195.539 58.2511 193.087 57.2308 190.676C55.2096 185.962 52.7894 181.403 49.9903 177.036C44.592 168.71 37.7341 159.764 28.1803 154.787C24.3718 152.762 20.0234 151.617 15.5161 151.452L15.4966 151.332ZM11.3548 153.911C25.7635 151.928 36.2588 162.889 43.5484 172.133C47.5933 177.237 51.03 182.712 53.8065 188.473C55.1423 191.323 56.2743 193.992 57.329 196.828L57.4119 197.336C55.5432 194.848 53.5147 192.448 51.5009 190.138C47.5956 185.618 43.4035 181.302 38.9436 177.211C29.9939 169.19 19.897 162.239 8.89017 156.522C9.61828 155.587 10.4437 154.712 11.3548 153.911ZM5.49004 164.073C5.89795 162.317 6.56796 160.608 7.48207 158.992C18.2776 164.644 28.2513 171.409 37.2054 179.152C41.8399 183.114 46.152 187.362 50.1115 191.868C52.3728 194.414 54.4451 197.083 56.4496 199.764C55.4213 199.011 54.3349 198.329 53.3163 197.636C50.9396 196.09 48.4419 194.657 45.9151 193.258C40.8858 190.397 35.7112 187.712 30.614 184.861C20.9821 179.405 11.49 173.098 5.61619 164.206L5.49004 164.073ZM11.7894 186.674C8.58714 182.894 6.42636 178.483 5.47054 173.773C6.8272 175.741 8.2997 177.641 9.88224 179.467C12.8609 182.869 16.1616 186.036 19.7507 188.935C26.9936 194.606 35.4208 198.986 44.6003 201.85L47.8975 202.847C34.3331 200.825 20.3834 196.442 11.7699 186.555L11.7894 186.674ZM47.086 200.862C42.6119 199.545 38.3324 197.794 34.3231 195.641C26.166 191.446 19.034 185.896 13.2993 179.278C11.2357 176.626 9.36479 173.857 7.69746 170.986C13.5684 176.777 20.363 181.774 27.8812 185.829C33.0657 188.788 38.4149 191.475 43.6866 194.328C46.3249 195.769 48.9341 197.246 51.3835 198.81C53.8328 200.375 56.2824 202.154 58.9302 203.44C55.0564 202.538 50.9841 201.913 47.0665 200.742L47.086 200.862ZM43.8809 229.248C54.2873 238.597 57.349 251.599 58.1761 264.567C57.9371 263.103 57.3831 261.628 56.9115 260.232C53.2315 249.427 47.2027 239.439 39.1564 230.816C37.2204 228.769 35.0178 226.797 32.9995 224.886C31.7042 223.777 30.3848 222.735 28.9974 221.703C34.6875 222.881 39.8331 225.452 43.8614 229.128L43.8809 229.248ZM23.9704 221.204C24.2758 221.154 24.6055 221.253 24.8866 221.269C29.7468 224.507 34.0891 228.306 37.8058 232.571C41.599 236.681 44.9441 241.107 47.7992 245.793C50.7059 250.577 53.0789 255.615 54.886 260.839C55.7998 263.452 56.578 266.086 57.2204 268.743L57.6008 271.075C55.9979 267.654 53.9976 264.359 52.0945 261.233C48.953 256.081 45.4011 251.144 41.4645 246.458C34.0695 237.664 25.3883 229.798 15.6351 223.054C18.2121 221.813 21.0666 221.137 23.9509 221.084L23.9704 221.204ZM12.7286 224.879C13.0419 224.634 13.3792 224.414 13.7362 224.223C23.6755 230.9 32.5305 238.74 40.0745 247.544C43.8921 252.078 47.3572 256.843 50.447 261.809C52.0005 264.286 53.4232 266.816 54.7829 269.386C55.8853 271.447 56.8956 273.583 57.9979 275.644C56.6539 274.237 55.1355 273.042 53.8496 271.564L47.4696 265.547C43.3115 261.408 38.945 257.272 34.7141 253.114C26.3882 244.775 18.2284 236.246 10.2349 227.526C10.9482 226.531 11.7778 225.603 12.7091 224.759L12.7286 224.879ZM21.4684 269.482C14.8326 266.618 9.48854 261.91 6.21563 256.045C4.62368 252.777 3.89776 249.204 4.09192 245.589C4.83953 246.756 5.68893 247.907 6.49464 249.003C7.87792 250.864 9.35322 252.648 10.8624 254.427C14.0055 257.86 17.4943 261.028 21.2884 263.896C27.0341 268.357 33.499 272.044 40.4891 274.848C33.8139 273.877 27.3875 271.997 21.4342 269.273L21.4684 269.482ZM45.652 275.54C37.286 272.3 29.5428 267.982 22.6638 262.72C18.9788 259.823 15.6124 256.623 12.6062 253.161C11.1165 251.501 9.71392 249.735 8.27742 247.975C6.84093 246.215 5.85962 244.043 4.42312 242.283L4.69772 240.55C14.1392 254.72 27.9097 266.149 44.4965 273.581C46.5623 274.502 48.6862 275.352 50.8342 276.137C49.0646 275.751 47.3243 275.544 45.6179 275.331L45.652 275.54ZM51.5019 274.893C48.8303 273.913 46.2214 272.813 43.6851 271.596C27.4614 263.964 14.2307 252.28 5.55792 237.924L5.52866 237.745C5.90302 236.418 6.35148 235.105 6.87231 233.813C7.43771 232.388 8.13179 231.002 8.94766 229.669C16.9827 237.932 25.0517 246.19 33.2708 254.3C37.4533 258.589 41.8974 262.774 46.3076 266.964L52.6828 272.951C53.9588 274.155 55.3077 275.592 56.758 276.582C54.7698 275.71 53.068 275.313 51.4678 274.684L51.5019 274.893ZM45.4536 330.041C45.9196 329.291 46.4981 328.598 47.1724 327.981C48.6857 326.787 50.4819 325.917 52.4141 325.442C54.3463 324.967 56.3596 324.9 58.2892 325.247C65.5949 326.264 71.4407 331.355 76.2247 336.129C71.7626 333.364 66.7142 331.396 61.3478 330.332C57.7436 329.589 54.0268 329.267 50.2905 329.375C48.6599 329.325 47.0202 329.479 45.4195 329.832L45.4536 330.041ZM43.6514 335.859C43.6645 335.07 43.7693 334.282 43.9642 333.506C44.9432 332.839 46.0357 332.318 47.1957 331.966C48.7535 331.645 50.3416 331.489 51.9261 331.501C55.3525 331.472 58.7532 331.814 62.0529 332.519C64.839 333.123 67.5286 334.001 70.0726 335.138C69.8634 335.107 69.6511 335.091 69.4376 335.088C65.6237 334.666 61.726 334.875 57.9407 335.706C54.2971 336.193 50.9249 337.834 48.4545 340.322C47.7399 341.302 47.3445 342.431 47.3138 343.577C44.9331 341.511 43.605 338.663 43.6173 335.649L43.6514 335.859ZM56.8519 347.391C54.2087 347.165 51.6911 346.376 49.511 345.09C49.2107 344.681 49.0142 344.216 48.9343 343.727C48.8545 343.238 48.8932 342.734 49.0478 342.251C49.3102 341.612 49.7101 341.021 50.2244 340.511C50.7388 340 51.3575 339.581 52.0452 339.276C54.9066 337.973 58.0078 337.175 61.1702 336.928C64.2192 336.611 67.2862 336.7 70.2685 337.193C71.7516 337.417 73.2051 337.755 74.6126 338.203C75.2039 338.378 75.7833 338.58 76.3485 338.809C74.1175 341.558 71.1584 343.788 67.7484 345.289C64.3384 346.79 60.5891 347.513 56.8519 347.391ZM129.6 339.021C129.892 340.814 130.776 342.603 131.142 344.415C131.501 346.418 131.612 348.457 131.472 350.499C131.164 354.664 129.768 358.748 127.393 362.426C123.034 368.877 116.087 373.674 108.018 375.806C111.739 369.798 116.867 364.512 121.083 358.76C123.698 355.372 125.599 351.607 126.69 347.658C127.578 344.535 127.588 341.297 126.72 338.232C127.769 338.349 128.786 338.607 129.736 338.998L129.6 339.021ZM123.07 338.705C123.342 338.661 123.613 338.616 123.851 338.578C124.297 340.034 124.543 341.539 124.582 343.061C124.573 345.075 124.22 347.087 123.536 349.032C122.069 353.005 119.882 356.763 117.062 360.153C114.007 364.058 110.56 367.903 107.927 372.046C109.486 366.75 111.377 361.523 113.592 356.392C115.106 353.077 116.756 349.739 118.575 346.374C119.46 344.756 120.385 343.163 121.275 341.576C122.042 340.678 122.69 339.707 123.206 338.683L123.07 338.705ZM107.113 362.789C107.821 358.096 109.197 353.479 111.21 349.048C112.868 345.402 115.773 342.272 119.504 340.115L119.175 340.66C118.251 342.253 117.332 343.876 116.48 345.488C114.729 348.842 113.147 352.169 111.73 355.653C108.84 362.422 106.794 369.425 105.629 376.533C105.29 376.588 105.236 376.904 105.377 377.126C105.257 377.371 105.159 377.623 105.082 377.88C105.498 372.793 106.217 367.718 107.234 362.677L107.113 362.789ZM106.668 378.205L107.326 377.115C111.793 376.38 116.063 374.789 119.835 372.456C123.607 370.122 126.788 367.103 129.154 363.612C131.68 359.824 133.209 355.605 133.62 351.284C133.852 349.044 133.79 346.799 133.435 344.594C133.247 343.23 132.946 341.884 132.534 340.567C133.121 341.045 133.651 341.575 134.116 342.15C139.309 348.791 137.753 358.465 132.941 365.265C129.97 369.063 126.049 372.215 121.504 374.461C116.959 376.707 111.92 377.983 106.803 378.182L106.668 378.205ZM136.796 204.024C137.457 205.941 138.327 207.855 138.823 209.83C139.439 212.358 139.801 214.938 139.906 217.54C140.083 222.783 139.234 228.05 137.396 233.108C135.498 238.358 132.493 243.276 128.545 247.594C124.611 251.653 120.442 255.529 116.056 259.206C112.098 262.476 108.58 266.14 105.577 270.121C108.016 261.639 111.326 253.343 115.465 245.34C118.11 240.459 121.094 235.718 124.399 231.148C127.918 226.696 130.867 221.921 133.188 216.918C135.173 212.369 135.514 207.438 134.163 202.827C135.072 203.173 135.951 203.572 136.796 204.024ZM130.914 201.915C135.452 212.221 127.284 222.361 121.19 231.119C114.953 239.873 110.034 249.283 106.565 259.097C105.391 262.546 104.462 266.05 103.783 269.585C102.664 260.846 102.831 251.969 104.281 243.175C106.011 233.382 109.551 223.845 114.757 214.953C116.175 212.543 117.704 210.176 119.35 207.883C120.996 205.589 122.782 203.732 124.312 201.58C126.56 201.458 128.801 201.652 130.953 202.154L130.914 201.915ZM98.5669 254.05C97.4541 245.06 98.2139 235.898 100.809 227.018C103.05 219.41 106.464 211.09 113.352 205.7C115.449 204.04 117.931 202.816 120.604 202.124C119.738 203.216 118.91 204.333 118.14 205.38C116.485 207.614 114.97 209.855 113.552 212.265C110.84 216.756 108.538 221.422 106.668 226.215C102.936 235.82 101.04 245.851 101.06 255.883C101.049 261.535 101.811 267.14 103.331 272.574L103.399 272.993C101.307 266.883 99.7058 260.633 98.606 254.289L98.5669 254.05ZM104.587 273.444C111.412 263.615 122.273 257.179 130.441 248.328C135.328 242.937 138.861 236.705 140.789 230.075C142.716 223.444 142.992 216.577 141.596 209.961C141.396 208.735 141.181 207.42 140.666 206.185C142.028 207.144 143.286 208.212 144.426 209.376L144.504 209.855C144.99 211.34 145.432 212.772 145.788 214.309C147.672 222.785 146.84 231.654 143.385 239.926C139.083 249.986 131.1 258.584 120.753 264.301C115.38 267.233 109.197 269.254 105.033 273.616C104.936 273.663 104.766 273.69 104.631 273.713L104.587 273.444ZM106.381 273.979C111.258 270.828 116.442 268.081 121.864 265.776C129.978 261.432 136.772 255.346 141.59 248.109C146.407 240.871 149.084 232.728 149.36 224.467C149.444 221.179 149.167 217.905 148.532 214.69L148.488 214.421C149.676 216.232 150.738 218.108 151.668 220.04C151.849 221.146 152.024 222.222 152.2 223.298C152.387 225.706 152.364 228.131 152.129 230.551C151.44 237.802 148.934 244.889 144.797 251.294C140.659 257.698 134.993 263.257 128.216 267.563C123.59 270.467 118.601 272.868 113.361 274.712C111.018 274.872 108.676 274.705 106.42 274.219L106.381 273.979ZM153.94 232.895C154.276 230.624 154.439 228.342 154.427 226.064C157.226 232.758 159.453 240.219 157.061 247.33C154.098 256.068 143.746 261.992 135.66 266.87C130.705 270.021 125.198 272.394 119.391 273.882C128.553 270.226 136.569 264.539 142.638 257.389C148.708 250.238 152.618 241.875 153.979 233.134L153.94 232.895ZM107.738 96.7902C107.739 96.902 107.757 97.0126 107.792 97.1189C110.261 102.754 111.078 108.904 110.171 115.01C109.264 121.117 106.66 126.987 102.596 132.09C98.7675 136.434 94.2525 140.273 89.1999 143.481C86.9794 144.999 84.924 146.702 83.0636 148.564C83.7445 144.752 84.9724 141.014 86.7171 137.442C89.0827 132.729 92.1805 128.235 94.9439 123.825C100.214 115.57 105.406 106.192 104.442 96.6528C105.575 96.6311 106.699 96.758 107.777 97.0292L107.738 96.7902ZM79.9255 151.53C80.1872 142.929 81.3143 134.334 83.2932 125.849C84.9494 118.981 87.7241 112.325 91.5286 106.094C93.1658 103.007 95.6349 100.304 98.7092 98.2325C99.7666 97.6248 100.941 97.2038 102.164 96.9937C102.915 106.936 97.423 116.179 91.9445 124.867C89.0028 129.221 86.4121 133.746 84.1927 138.406C82.1971 142.405 81.1417 146.694 81.0932 151.002L80.7495 151.457C80.475 151.421 80.1918 151.446 79.9255 151.53ZM82.8823 151.508C87.7579 145.956 95.1612 142.662 100.696 137.524C106.393 132.274 110.346 125.751 112.092 118.721C113.838 111.69 113.305 104.445 110.555 97.8341C111.006 98.0367 111.394 98.2803 111.816 98.5183C112.671 100.343 113.894 102.076 114.715 103.906C115.727 106.246 116.528 108.66 117.112 111.126C118.3 116.04 118.401 121.149 117.408 126.175C116.583 130.766 114.571 135.166 111.532 139.028C108.493 142.89 104.51 146.108 99.8977 148.425C94.6301 150.93 88.6925 151.984 82.8725 151.449L82.8823 151.508ZM111.607 142.495C115.269 138.391 117.944 133.683 119.456 128.677C120.967 123.671 121.283 118.481 120.381 113.446C119.873 110.336 119.026 107.288 117.852 104.346L117.371 103.105C120.112 106.342 122.12 110.032 123.29 113.984C125.309 120.538 124.908 127.575 122.147 134.086C119.237 140.868 113.957 146.716 107.103 150.748C100.059 154.966 90.5073 156.831 83.3683 152.779C88.5789 153.357 93.9243 152.712 98.8766 150.909C103.829 149.105 108.217 146.205 111.607 142.495ZM55.6614 24.3666C57.0408 19.1205 59.677 14.1569 63.388 9.81882C64.9719 8.1257 66.8709 6.68339 68.9968 5.55896C64.5808 14.4749 62.2852 24.038 62.2578 33.6317C61.9307 44.1532 63.7473 54.5642 67.62 64.3637C69.0096 67.8295 70.6647 71.1989 72.5739 74.4491C64.7638 68.4776 59.0521 60.642 56.0679 51.8052C53.0838 42.9684 52.9431 33.4736 55.6614 24.3666ZM66.3358 20.4157C67.6059 15.0745 69.2207 9.79045 71.1723 4.59025C71.2526 4.58722 71.3325 4.57419 71.4096 4.55152C74.5706 10.0758 76.5132 16.1182 77.1372 22.3665C77.6401 28.7133 77.5182 35.1092 76.7731 41.482C76.0623 48.2262 75.1093 54.9792 74.8881 61.7356C74.7029 66.3706 75.1172 70.9878 76.1231 75.4965C65.686 58.9708 62.1793 39.5139 66.2001 20.4378L66.3358 20.4157ZM79.1838 3.74353C84.9434 4.89054 88.2782 9.74728 89.921 14.2663C91.6747 19.4351 92.7468 24.789 93.1164 30.2235C93.6724 36.0318 93.4619 41.905 92.4889 47.725C91.5867 52.2487 90.2399 56.7093 88.4644 61.055C88.2263 61.1265 88.005 61.2392 87.8136 61.3864C87.6223 61.5336 87.4647 61.7123 87.3504 61.9119C86.0534 63.9954 84.8291 66.0976 83.6485 68.2542C89.3326 51.7368 90.0065 34.3505 85.6008 17.8863C84.1173 12.8965 81.9904 8.09594 79.2612 3.57742L79.1838 3.74353ZM76.1929 3.55643C83.0046 14.8417 86.3587 27.6085 85.9334 40.6319C85.2698 53.0957 82.7608 65.494 78.4712 77.5069C74.7728 57.8267 82.9396 37.4381 79.5078 17.6836C78.7906 12.7529 77.0734 8.01265 74.4383 3.68919C75.0211 3.61482 75.607 3.5705 76.1929 3.55643Z" fill="#94AE94"/>
</svg>
