<svg width="198" height="297" viewBox="0 0 198 297" fill="none" xmlns="http://www.w3.org/2000/svg">
<path d="M197.198 38.9563C197.725 37.7176 197.999 36.3616 198 34.9879C198.001 33.6141 197.73 32.2574 197.207 31.0173C196.683 29.7771 195.92 28.6849 194.974 27.8208C194.028 26.9567 192.922 26.3425 191.739 26.0234C191.604 26.0043 191.468 26.0043 191.334 26.0234C192.141 24.3938 192.688 22.6172 192.952 20.7742C193.37 18.2738 192.973 15.6869 191.833 13.4915C190.693 11.2961 188.888 9.64036 186.751 8.83025C186.597 8.77226 186.432 8.77226 186.279 8.83025C186.701 7.52901 186.78 6.11725 186.504 4.76665C186.229 3.41604 185.612 2.1848 184.728 1.22266C181.83 -1.66823 178.19 1.22266 175.696 3.16259C174.516 4.11354 173.404 5.1786 172.326 6.20563C170.068 2.40183 164.54 1.98341 160.934 3.04848C158.615 3.83047 156.466 5.14699 154.621 6.91479C152.776 8.68259 151.276 10.8632 150.217 13.3187C147.724 18.9278 146.333 25.0777 146.139 31.3487C145.953 34.636 146.055 37.9358 146.442 41.2006C146.55 43.6272 146.97 46.0232 147.689 48.3137C146.923 47.6521 146.203 46.9274 145.532 46.1455C144.266 44.5135 143.201 42.6967 142.364 40.7441C140.66 36.9108 139.947 32.6131 140.308 28.3437C140.724 24.212 142.095 20.2765 144.285 16.9323C145.41 15.1945 146.723 13.6227 148.194 12.2537C149.61 10.9223 151.228 10.0475 152.643 8.79221C153.081 8.41183 152.643 7.46089 152.205 7.61304C148.314 8.95451 144.948 11.7603 142.667 15.563C140.107 19.2984 138.494 23.749 138.001 28.439C137.508 33.129 138.154 37.8819 139.87 42.1896C140.735 44.4452 141.869 46.5568 143.24 48.4658C144.431 50.4565 146.056 52.0677 147.959 53.1445C138.519 67.7919 130.316 83.405 123.457 99.779V99.2085C125.592 88.6691 126.038 77.783 124.771 67.0664C124.198 62.7301 122.951 57.4428 118.671 56.1495C116.953 55.8511 115.197 56.2698 113.733 57.3271C112.269 58.3844 111.197 60.0078 110.717 61.8932C109.177 67.0581 108.248 72.4298 107.953 77.8692C107.437 83.0716 107.223 88.3068 107.313 93.5408C107.45 105.272 109.236 116.904 112.604 128.003C112.604 128.422 112.368 128.84 112.234 129.258C112.199 129.349 112.182 129.446 112.182 129.544C112.182 129.642 112.199 129.739 112.234 129.829C111.357 132.644 110.447 135.459 109.638 138.273C103.154 160.714 98.7383 183.849 96.4605 207.312C94.1001 190.729 90.3421 174.439 85.2375 158.662C82.5076 150.141 79.3733 141.773 75.9019 133.595C76.8624 131.469 77.6302 129.238 78.1936 126.938C78.9688 124.123 79.6765 121.309 80.2832 118.456C81.4796 113.029 82.3244 107.512 82.8109 101.947C83.9003 90.884 83.3077 79.6921 81.0584 68.8542C80.081 64.5939 78.0251 59.7631 73.6775 59.1925C72.0691 59.1655 70.4989 59.7461 69.2165 60.842C67.9341 61.9378 67.0131 63.4861 66.5998 65.2406C65.3409 69.7694 64.7155 74.4922 64.7462 79.2385C64.4763 84.7065 64.6115 90.1904 65.1506 95.6329C65.9521 105.077 67.9967 114.333 71.2171 123.096C67.3537 114.811 63.1243 106.749 58.5448 98.9422C55.4891 93.693 52.2537 88.6212 48.8385 83.727C46.3242 79.7865 43.5287 76.0845 40.4801 72.658C42.0688 71.3397 43.4867 69.7778 44.693 68.0173C46.4023 65.7604 47.9041 63.3134 49.1754 60.714C51.7533 55.3974 53.304 49.5248 53.7253 43.4828C54.096 38.1575 53.4894 31.6911 49.4114 28.2677C47.8524 26.8106 45.8807 26.0356 43.857 26.0845C41.8333 26.1334 39.8929 27.0029 38.3905 28.5339C37.2119 26.5948 35.6702 24.9716 33.8744 23.7792C31.9365 22.3457 29.6699 21.5821 27.3529 21.5821C25.0359 21.5821 22.7693 22.3457 20.8314 23.7792C19.206 21.9704 17.0137 20.9588 14.7311 20.9644C13.3185 20.9943 11.9728 21.6486 10.9833 22.7868C9.99379 23.9249 9.43955 25.4559 9.4398 27.0504C9.44636 28.98 9.77798 30.8904 10.4171 32.6801C6.54128 32.6801 3.67653 37.9293 3.67653 41.8092C3.57283 44.6039 4.1437 47.378 5.32804 49.8352C3.61365 51.5617 2.25018 53.686 1.33107 56.0627C0.411961 58.4394 -0.0411322 61.0122 0.00293183 63.6049C0.360775 66.2142 1.29144 68.6809 2.71013 70.7804C4.12881 72.8799 5.99042 74.5453 8.12534 75.6249C17.4273 81.0263 29.1559 79.4287 38.7612 75.8912C40.6486 78.9342 42.8056 81.8251 44.7603 84.716C47.6588 89.1284 50.5236 93.5408 53.2535 98.0673C58.7894 107.261 63.864 116.798 68.4535 126.634C70.3071 130.438 72.0597 134.66 73.7448 138.768L73.4753 138.426C70.1272 134.461 66.4096 130.915 62.387 127.851C54.5968 121.959 45.915 117.731 36.7728 115.375C33.1666 114.462 27.8079 112.56 24.4039 115.07C20.9999 117.581 21.8424 123.21 24.1679 126.482C27.3143 130.453 30.9456 133.898 34.9528 136.714C38.7592 139.641 42.7852 142.187 46.9847 144.322C56.9274 149.364 67.7329 151.871 78.6318 151.663C82.9498 163.424 86.6082 175.481 89.5852 187.761C89.9222 189.092 90.2256 190.462 90.5289 191.831C86.7078 184.968 81.5277 179.2 75.3962 174.98C72.5657 172.557 69.2594 170.939 65.7573 170.263C65.0149 170.278 64.285 170.481 63.6222 170.859C62.9595 171.237 62.3812 171.779 61.9305 172.445C61.4798 173.111 61.1685 173.884 61.02 174.705C60.8714 175.526 60.8893 176.374 61.0725 177.186C62.2581 181.341 64.2633 185.139 66.9369 188.293C69.4797 192.008 72.2381 195.528 75.194 198.83C80.9491 205.228 87.3916 210.786 94.371 215.376C94.5395 215.757 94.7417 216.099 94.9102 216.442C95.0913 216.804 95.3768 217.086 95.7192 217.24C95.2136 224.277 94.8765 231.352 94.7754 238.427C94.6069 247.937 94.7755 257.446 95.3821 266.994C95.6854 271.749 96.0225 276.503 96.528 281.22C96.7976 283.54 97.0673 285.861 97.4043 288.143C97.7413 290.425 98.5502 293.126 99.1568 295.751C99.2272 296.142 99.4279 296.488 99.7175 296.717C100.007 296.947 100.364 297.042 100.714 296.983C101.063 296.925 101.38 296.717 101.598 296.403C101.817 296.089 101.92 295.692 101.887 295.294C101.718 291.072 101.651 286.964 101.246 282.704C100.842 278.443 100.505 274.373 100.235 270.227C99.6624 262.277 99.3927 254.289 99.359 246.301V245.997C112.963 235.513 123.229 220.381 128.647 202.824C129.355 200.694 129.928 198.526 130.467 196.319C131.2 194.191 131.477 191.897 131.276 189.625C130.366 184.984 125.883 186.201 123.355 188.179C116.154 194.099 110.364 201.94 106.504 211.002C104.082 216.503 102.086 222.23 100.539 228.119C100.134 229.565 99.7635 231.01 99.3928 232.455C99.7953 219.799 100.808 207.178 102.426 194.646C103.37 187.457 104.516 180.343 105.796 173.23C109.481 170.212 112.993 166.934 116.312 163.417C120.187 159.613 123.861 155.238 127.4 150.94C134.491 142.322 140.97 133.089 146.779 123.325C148.734 119.977 151.733 114.005 147.386 111.152C143.038 108.3 138.825 113.663 135.96 116.135C128.542 122.591 122.041 130.287 116.682 138.958C114.579 142.588 112.677 146.361 110.987 150.255C115.412 132.485 121.046 115.126 127.838 98.3336C133.999 83.3351 140.989 68.7886 148.767 54.7801C149.441 58.5839 153.688 60.7901 156.654 62.1215C163.423 65.1921 170.926 65.5169 177.884 63.0405C184.841 60.564 190.822 55.4398 194.806 48.5419C195.293 48.0751 195.723 47.538 196.086 46.9443C196.408 46.321 196.689 45.6727 196.929 45.0044C197.405 43.6492 197.722 42.2299 197.873 40.7822C197.958 40.4366 197.938 40.0686 197.816 39.7374C197.694 39.4061 197.476 39.131 197.198 38.9563ZM7.4176 37.7011C8.34151 36.0782 9.7166 34.8473 11.3271 34.2016C11.7316 35.2666 12.1697 36.2937 12.5741 37.2446C14.1547 41.0784 15.9794 44.7777 18.034 48.3137C22.6415 56.173 28.2259 63.2443 34.6158 69.3106C33.4856 69.2527 32.3599 69.113 31.2456 68.8922C28.9142 68.3596 26.6502 67.5035 24.505 66.3437C20.4243 63.9935 16.758 60.8224 13.6863 56.9863C10.3107 53.5561 7.80901 49.1698 6.44019 44.2816C6.00844 42.0367 6.33291 39.6908 7.35024 37.7011H7.4176ZM11.5631 73.2285C9.51245 72.5619 7.64943 71.3078 6.15529 69.5881C4.66115 67.8685 3.58671 65.7418 3.03627 63.4147C2.29481 59.0404 4.5866 55.2366 6.40656 51.5089C7.42705 53.3399 8.5529 55.0934 9.77685 56.7581C13.1828 61.4282 17.3036 65.3706 21.9435 68.3977C24.4403 69.9877 27.1157 71.1904 29.8974 71.9733C31.7203 72.5553 33.5987 72.8873 35.4921 72.9623C27.7466 76.0891 19.2941 76.1829 11.4956 73.2285H11.5631ZM13.1134 32.5279C12.0686 29.9033 10.1475 23.9313 14.2593 23.2847C17.4274 22.7902 20.3258 26.7081 22.2468 29.0284C26.5834 34.3609 30.011 40.5505 32.3577 47.2866C34.3428 53.3924 35.4797 59.8078 35.728 66.3056C26.0641 57.0599 18.3204 45.5282 13.0459 32.5279H13.1134ZM35.054 46.7541C32.536 38.9426 28.559 31.8336 23.3927 25.9093L23.1905 25.7191C24.9224 24.7178 26.8791 24.3205 28.8116 24.5779C30.7441 24.8353 32.5651 25.7357 34.0429 27.1646C37.4986 30.7622 39.7085 35.6292 40.2779 40.8963C42.1197 49.2643 41.4317 58.087 38.3231 65.9633C38.2397 59.3863 37.1095 52.8798 34.9865 46.7541H35.054ZM38.795 70.3757L38.6265 70.1475C45.3671 61.8932 44.693 47.7431 42.4012 37.625C41.8992 35.3363 41.1758 33.1168 40.2442 31.0064C40.3943 30.9175 40.5309 30.8019 40.6486 30.6641C43.4459 27.3547 48.0969 30.0554 49.7147 33.3647C51.4217 37.7629 51.7545 42.6851 50.6583 47.3247C49.9042 52.0071 48.4208 56.5017 46.277 60.5999C45.1739 62.7287 43.8869 64.7291 42.4348 66.5719C41.39 67.9793 40.0082 69.2726 39.0645 70.7561C38.9831 70.622 38.893 70.4948 38.795 70.3757ZM68.9591 101.529C67.3788 92.1004 67.0719 82.4563 68.049 72.9242C68.3861 69.653 68.6894 64.5939 71.4193 62.5779C71.7318 62.3722 72.0742 62.2306 72.4305 62.1595C72.4305 72.9242 73.0034 83.689 73.3404 94.4537C73.5089 99.9692 73.6438 105.447 73.8123 110.962C73.8123 113.701 73.8122 116.44 74.0481 119.216V120.396C71.7225 114.289 69.9606 107.929 68.7905 101.415L68.9591 101.529ZM35.4247 118.037C43.5115 120.076 51.2514 123.583 58.3426 128.422C62.3266 131.166 66.0829 134.31 69.5657 137.817C71.2372 139.412 72.7821 141.168 74.183 143.066C66.5998 138.578 58.8819 134.318 51.0629 130.4C42.6164 125.877 33.8862 122.063 24.9431 118.988C26.1901 115.108 32.8296 117.429 35.4247 118.037ZM53.995 143.523C46.2015 140.576 38.8996 136.179 32.3914 130.514C29.83 128.308 25.1116 124.922 24.7408 120.814C33.0654 125.226 41.5923 128.954 49.9843 133.367C58.3764 137.779 66.3976 142.534 74.4189 147.555C67.4545 147.304 60.5562 145.947 53.9275 143.523H53.995ZM75.2278 94.8341C74.7222 83.8792 74.3514 72.9242 73.61 61.9693C74.7112 62.2135 75.7014 62.8867 76.4074 63.8712C77.7433 66.0358 78.567 68.5497 78.8003 71.1745C80.4779 80.8417 80.9317 90.7287 80.1484 100.54C79.7003 106.09 78.9462 111.604 77.8903 117.048C77.5196 118.95 77.0815 120.852 76.6433 122.716C76.6433 121.765 76.6433 120.814 76.4411 119.901L75.8681 111.685L75.2278 94.8341ZM66.7009 182.816C65.5875 181.352 64.6159 179.758 63.8025 178.061C63.5234 177.342 63.3854 176.564 63.398 175.779C73.9451 184.937 83.1369 195.928 90.63 208.339C81.4318 201.393 73.3221 192.768 66.6336 182.816H66.7009ZM64.1395 174.295C64.0183 174.256 63.89 174.256 63.7688 174.295C64.0637 173.805 64.5031 173.448 65.0089 173.288C65.5147 173.127 66.0545 173.175 66.5325 173.421C69.5615 174.554 72.4324 176.168 75.0593 178.213C80.1788 181.956 84.5705 186.835 87.9674 192.554C90.5439 196.884 92.5531 201.611 93.9328 206.59C94.1013 207.426 94.2362 208.263 94.4047 209.138C86.6214 195.206 76.2772 183.324 64.0721 174.295H64.1395ZM125.715 202.938C123.05 210.941 119.384 218.473 114.829 225.304C111.251 230.559 107.233 235.413 102.83 239.797C106.639 232.95 110.279 225.951 113.986 219.066C118.839 210.089 123.794 201.15 128.579 192.135C128.294 193.71 127.911 195.261 127.433 196.776C126.928 198.868 126.422 200.922 125.647 202.938H125.715ZM106.706 218.724C109.607 210.268 113.92 202.519 119.412 195.901C120.798 194.287 122.285 192.787 123.861 191.413C124.704 190.645 125.634 190.005 126.625 189.511C121.637 198.906 116.884 208.53 111.964 217.849C108.391 224.772 104.684 231.619 101.213 238.618C101.651 236.64 102.089 234.814 102.594 232.76C103.729 227.997 105.102 223.311 106.706 218.724ZM146.644 114.576C146.946 115.19 147.03 115.91 146.88 116.592C146.093 119.179 144.868 121.568 143.274 123.629C137.975 132.332 132.129 140.595 125.782 148.354C122.243 152.652 118.536 156.76 114.761 160.754C113.683 161.933 112.537 163.036 111.391 164.139C116.312 156.811 121.322 149.545 126.422 142.344C129.793 137.703 133.163 133.1 136.533 128.574L141.589 121.917C143.479 119.838 145.173 117.544 146.644 115.07C146.677 114.993 146.694 114.909 146.694 114.823C146.694 114.737 146.677 114.653 146.644 114.576ZM116.312 145.957C120.65 137.659 126.056 130.134 132.354 123.629C135.371 120.412 138.63 117.497 142.094 114.918C143.027 113.999 144.226 113.498 145.465 113.511C145.542 113.49 145.623 113.49 145.7 113.511C145.536 113.455 145.36 113.455 145.195 113.511C143.279 115.414 141.551 117.543 140.038 119.863L134.949 127.433C131.579 132.035 128.209 136.6 124.838 141.24C119.21 149.114 113.885 157.178 108.661 165.357C109.301 163.302 109.908 161.21 110.65 159.194C112.243 154.63 114.136 150.205 116.312 145.957ZM112.941 107.425C112.941 109.973 112.773 112.636 112.705 115.299C109.835 100.937 109.435 86.0869 111.526 71.5549C112.099 67.7511 112.436 60.4097 116.244 58.9263H116.783C115.144 69.5962 114.075 80.3677 113.582 91.1825C113.211 96.5458 112.941 101.985 112.941 107.425ZM120.828 97.8011C119.494 104.536 117.817 111.178 115.806 117.695C115.806 114.233 115.503 110.772 115.503 107.387C115.503 101.909 115.503 96.4317 115.772 90.9923C116.143 80.1895 117.12 69.4628 117.929 58.7361C121.3 59.2686 122.041 66.6099 122.344 69.5388C123.134 78.995 122.599 88.5325 120.76 97.8011H120.828ZM185.301 11.6831L185.605 10.9604C185.656 11.0828 185.732 11.1908 185.825 11.2763C185.918 11.3618 186.027 11.4228 186.144 11.4549C191.132 13.3187 191.604 19.7091 189.514 24.4258C186.891 29.3383 183.348 33.5445 179.134 36.7501C171.346 43.3307 162.253 47.6657 152.643 49.3787C159.61 45.5281 165.883 40.2531 171.146 33.8212C176.847 27.326 181.601 19.8544 185.234 11.6831H185.301ZM171.82 9.62905C173.033 8.3738 174.28 7.15658 175.561 5.82525C177.027 4.25635 178.713 2.97116 180.549 2.02146C181.055 1.80941 181.601 1.75 182.134 1.84912C182.666 1.94824 183.166 2.20245 183.585 2.58662C184.004 2.97079 184.326 3.47163 184.521 4.03962C184.715 4.60761 184.775 5.22311 184.695 5.82525C184.46 8.03028 183.767 10.1416 182.673 11.9874C179.294 18.903 175.137 25.2959 170.304 31.0064C164.783 37.1461 158.744 42.6625 152.273 47.4768C155.259 32.9446 161.99 19.7355 171.618 9.51494L171.82 9.62905ZM149.509 41.5049C149.066 38.6409 148.84 35.7395 148.835 32.8322C148.785 27.462 149.643 22.1302 151.363 17.1225C152.1 14.7375 153.256 12.5449 154.762 10.6757C156.268 8.8065 158.092 7.29912 160.125 6.24367C161.962 5.35411 163.967 5.00091 165.956 5.21665C167.776 5.58335 169.523 6.31785 171.112 7.38481C166.722 11.6907 162.837 16.6121 159.552 22.0294C155.322 29.0088 152.124 36.7166 150.082 44.8522C149.711 43.7491 149.475 42.5699 149.307 41.5049H149.509ZM192.884 45.4989C192.581 46.2216 192.312 46.9823 192.008 47.7431C188.605 53.1444 183.824 57.2466 178.302 59.5028C172.781 61.7591 166.781 62.0622 161.103 60.3717C158.971 59.7602 156.903 58.8931 154.935 57.7851C153.216 56.8342 150.486 55.0084 150.419 52.5359C152.196 54.0115 154.211 55.0837 156.351 55.693C159.139 56.6272 162.037 57.0761 164.945 57.0244C171.328 56.7261 177.581 54.8841 183.279 51.623C186.7 49.9828 189.936 47.8887 192.918 45.3847L192.884 45.4989ZM191.873 42.4558C187.833 46.0888 183.274 48.9187 178.392 50.8242C173.704 53.0636 168.654 54.1776 163.563 54.0954C161.083 54.0019 158.624 53.5415 156.249 52.7261C155.099 52.2264 153.974 51.6549 152.879 51.0144C164.307 49.5838 175.082 44.2791 183.785 35.7992C186.316 33.4761 188.58 30.8055 190.525 27.8492C190.591 28.1452 190.731 28.4135 190.929 28.6224C191.126 28.8314 191.372 28.9723 191.637 29.0284C192.823 29.3184 193.875 30.083 194.6 31.1808C195.325 32.2785 195.673 33.6353 195.581 35.0004C195.414 36.4784 194.982 37.9023 194.309 39.1845C193.637 40.4667 192.739 41.58 191.671 42.4558H191.873Z" fill="#94AE94"/>
</svg>
