<svg width="37" height="41" viewBox="0 0 37 41" fill="none" xmlns="http://www.w3.org/2000/svg">
<path d="M17.8985 3.20283e-09H1.55849C1.3304 3.20283e-09 1.11166 0.0884997 0.950374 0.24603C0.789093 0.403561 0.698486 0.617218 0.698486 0.84V2.52C0.698486 2.74278 0.789093 2.95644 0.950374 3.11397C1.11166 3.2715 1.3304 3.36 1.55849 3.36H4.13849C4.82274 3.36 5.47898 3.6255 5.96282 4.09809C6.44667 4.57068 6.71849 5.21165 6.71849 5.88V34.44C6.71849 35.1083 6.44667 35.7493 5.96282 36.2219C5.47898 36.6945 4.82274 36.96 4.13849 36.96H1.55849C1.3304 36.96 1.11166 37.0485 0.950374 37.206C0.789093 37.3636 0.698486 37.5772 0.698486 37.8V39.48C0.698486 39.7028 0.789093 39.9164 0.950374 40.074C1.11166 40.2315 1.3304 40.32 1.55849 40.32H32.8952C33.2789 40.3201 33.6516 40.1949 33.9541 39.9643C34.2565 39.7337 34.4714 39.411 34.5644 39.0474L36.551 29.6041C36.5828 29.4803 36.5852 29.351 36.5582 29.226C36.5311 29.1011 36.4752 28.9839 36.3948 28.8832C36.3144 28.7826 36.2115 28.7011 36.094 28.6451C35.9766 28.5891 35.8476 28.56 35.7168 28.56H33.9968C33.8163 28.56 33.6403 28.6154 33.4938 28.7186C33.3473 28.8217 33.2377 28.9672 33.1807 29.1346L30.8509 33.9578C30.5868 34.8248 30.0432 35.5853 29.301 36.1262C28.5588 36.6671 27.6576 36.9596 26.7315 36.96H16.1785C15.4942 36.96 14.838 36.6945 14.3542 36.2219C13.8703 35.7493 13.5985 35.1083 13.5985 34.44V21.84H20.4785C21.6189 21.84 22.7126 22.2825 23.519 23.0702C24.3255 23.8578 24.7785 24.9261 24.7785 26.04V26.88H27.3585V12.6H24.7785V14.28C24.7785 14.8316 24.6673 15.3777 24.4512 15.8873C24.2351 16.3968 23.9183 16.8598 23.519 17.2498C23.1198 17.6399 22.6457 17.9492 22.124 18.1603C21.6023 18.3714 21.0432 18.48 20.4785 18.48H13.5985V5.88C13.5985 5.21165 13.8703 4.57068 14.3542 4.09809C14.838 3.6255 15.4942 3.36 16.1785 3.36H26.4985C27.6389 3.36 28.7326 3.8025 29.539 4.59015C30.3455 5.3778 30.7985 6.44609 30.7985 7.56V10.92C30.7985 11.1428 30.8891 11.3564 31.0504 11.514C31.2117 11.6715 31.4304 11.76 31.6585 11.76H32.6329C32.8399 11.76 33.0401 11.687 33.1965 11.5545C33.3529 11.4219 33.4551 11.2387 33.4843 11.0384L34.8181 1.91772C34.853 1.67942 34.835 1.43659 34.7655 1.20567C34.6959 0.974746 34.5763 0.761124 34.4148 0.579272C34.2534 0.39742 34.0538 0.251585 33.8296 0.151642C33.6053 0.0517001 33.3618 -1.48598e-05 33.1153 3.20283e-09H17.8985Z" fill="white"/>
</svg>
