<svg width="29" height="30" viewBox="0 0 29 30" fill="none" xmlns="http://www.w3.org/2000/svg">
<path d="M8.85704 0.0425148C8.77851 0.0659523 8.18804 0.328453 7.54812 0.623765C6.9082 0.921421 6.0763 1.3058 5.70108 1.47689C4.82555 1.87767 4.68302 1.99017 4.58994 2.35345C4.52304 2.60189 4.54631 2.64408 5.38403 3.79486C6.78021 5.71673 9.6424 9.54408 9.76166 9.65424C9.91873 9.79252 10.1456 9.90267 10.3812 9.95189C10.7099 10.0175 10.7215 10.0152 12.2719 9.29799C13.034 8.94408 13.8804 8.55267 14.1567 8.42845C14.8432 8.11439 15.0235 7.95033 15.1021 7.56127C15.1632 7.25892 15.137 7.20736 14.4883 6.34017C11.4487 2.28783 9.96818 0.326108 9.89255 0.253452C9.68021 0.0495462 9.17991 -0.0535793 8.85704 0.0425148Z" fill="white"/>
<path d="M3.46966 3.1874C1.92804 3.54365 0.875078 4.44599 0.360233 5.85693C-0.468754 8.12333 0.168257 11.6929 2.10838 15.6561C4.07177 19.664 7.04158 23.4702 10.2819 26.1304C13.0568 28.4061 15.7038 29.6601 18.3536 29.9554C18.723 29.9976 19.8312 29.9976 20.1716 29.9577C20.8057 29.8804 21.37 29.7585 21.9284 29.5804C22.1786 29.4983 22.4433 29.4022 22.4782 29.3788C22.4927 29.3694 19.9418 25.7905 19.6422 25.4061C19.3368 25.0124 18.7376 24.2249 17.8097 22.9921C17.3152 22.3382 17.4025 22.3897 16.9574 22.4788C16.5851 22.5515 15.8114 22.5585 15.3722 22.4905C14.4094 22.3476 13.3041 21.9022 12.318 21.2647C11.9137 21.0046 11.1632 20.414 10.7851 20.0624C10.2121 19.528 9.63034 18.8765 9.14749 18.2226C8.85371 17.8241 8.70828 17.5897 8.51339 17.1913C8.02473 16.1929 7.72222 15.2718 7.57387 14.3319C7.50116 13.8679 7.50697 13.0663 7.58842 12.6397C7.74258 11.8124 8.10617 11.1233 8.68501 10.5538C8.77227 10.4694 8.83626 10.3944 8.83044 10.3851C8.82463 10.378 8.66755 10.1624 8.4814 9.90693C7.99273 9.23662 7.27718 8.1913 6.10788 6.44521C4.67678 4.30302 3.8507 3.11708 3.79544 3.11943C3.7809 3.11943 3.63255 3.1499 3.46966 3.1874Z" fill="white"/>
<path d="M22.368 19.0172C22.3127 19.0359 21.6786 19.3219 20.9573 19.657C20.2388 19.9922 19.4069 20.3742 19.1102 20.5078C18.5314 20.7727 18.3307 20.9039 18.2143 21.0961C18.066 21.3422 18.0747 21.6 18.2347 21.8297C20.2737 24.7453 23.1185 28.6898 23.2784 28.8234C23.3308 28.8656 23.4559 28.9359 23.5606 28.9758C23.7322 29.0437 23.7729 29.0508 24.026 29.0508H24.3052L24.7677 28.8352C25.0237 28.718 25.8876 28.3195 26.6875 27.9516C27.4874 27.5812 28.1767 27.2508 28.2233 27.2156C28.3425 27.1266 28.4443 26.993 28.5083 26.8406C28.5723 26.693 28.5839 26.3742 28.5287 26.2477C28.5112 26.2031 28.2378 25.8141 27.9237 25.3828C27.6066 24.9516 26.7515 23.7703 26.0185 22.7578C24.1103 20.1211 23.5344 19.3359 23.4384 19.2375C23.3861 19.1836 23.2784 19.1203 23.1592 19.0734C22.9934 19.0078 22.9323 18.9961 22.717 18.9914C22.5629 18.9867 22.432 18.9984 22.368 19.0172Z" fill="white"/>
</svg>
